Muli-SemiBoldItalic.ufo
<glyph name="exclam" format="2">
  <advance width="237.3012048192771"/>
  <unicode hex="0021"/>
  <outline>
    <contour>
      <point x="79.42168674698794" y="195.40963855421688" type="line"/>
      <point x="141.25301204819277" y="195.40963855421688" type="line"/>
      <point x="253.04819277108433" y="705.0" type="line"/>
      <point x="128.25301204819277" y="705.0" type="line"/>
    </contour>
    <contour>
      <point x="18.915662650602414" y="0.0" type="line"/>
      <point x="138.3855421686747" y="0.0" type="line"/>
      <point x="157.20481927710844" y="119.04819277108433" type="line"/>
      <point x="37.73493975903615" y="119.04819277108433" type="line"/>
    </contour>
  </outline>
</glyph>
<glyph name="numbersign" format="2">
  <advance width="600.0"/>
  <unicode hex="0023"/>
  <outline>
    <contour>
      <point x="42.33734939759036" y="0.0" type="line"/>
      <point x="117.6144578313253" y="0.0" type="line"/>
      <point x="179.9277108433735" y="177.49397590361446" type="line"/>
      <point x="322.8313253012048" y="177.49397590361446" type="line"/>
      <point x="258.8072289156627" y="0.0" type="line"/>
      <point x="334.0843373493976" y="0.0" type="line"/>
      <point x="397.3975903614458" y="177.49397590361446" type="line"/>
      <point x="533.2048192771085" y="177.49397590361446" type="line"/>
      <point x="544.4698795180723" y="245.9277108433735" type="line"/>
      <point x="422.06024096385545" y="245.9277108433735" type="line"/>
      <point x="502.3975903614458" y="467.0722891566265" type="line"/>
      <point x="600.9156626506025" y="467.0722891566265" type="line"/>
      <point x="611.1807228915662" y="536.2168674698795" type="line"/>
      <point x="527.0602409638553" y="536.2168674698795" type="line"/>
      <point x="588.0843373493976" y="705.0" type="line"/>
      <point x="513.5180722891566" y="705.0" type="line"/>
      <point x="452.7831325301205" y="536.2168674698795" type="line"/>
      <point x="308.87951807228916" y="536.2168674698795" type="line"/>
      <point x="369.6144578313253" y="705.0" type="line"/>
      <point x="295.6265060240964" y="705.0" type="line"/>
      <point x="234.6024096385542" y="536.2168674698795" type="line"/>
      <point x="99.50602409638554" y="536.2168674698795" type="line"/>
      <point x="89.24096385542168" y="467.0722891566265" type="line"/>
      <point x="209.9397590361446" y="467.0722891566265" type="line"/>
      <point x="129.6024096385542" y="245.9277108433735" type="line"/>
      <point x="32.084337349397586" y="245.9277108433735" type="line"/>
      <point x="20.819277108433734" y="177.49397590361446" type="line"/>
      <point x="105.65060240963855" y="177.49397590361446" type="line"/>
    </contour>
    <contour>
      <point x="204.59036144578315" y="245.9277108433735" type="line"/>
      <point x="284.21686746987956" y="467.0722891566265" type="line"/>
      <point x="427.4096385542169" y="467.0722891566265" type="line"/>
      <point x="347.7831325301205" y="245.9277108433735" type="line"/>
    </contour>
  </outline>
</glyph>
<glyph name="dollar" format="2">
  <advance width="600.0"/>
  <unicode hex="0024"/>
  <outline>
    <contour>
      <point x="210.67469879518075" y="-115.0" type="line"/>
      <point x="293.32530120481925" y="-115.0" type="line"/>
      <point x="314.0361445783132" y="14.975903614457831" type="line"/>
      <point x="293.06024096385545" y="-4.0" type="line"/>
      <point x="433.06024096385545" y="6.686746987951807"/>
      <point x="530.3253012048193" y="75.39759036144578"/>
      <point x="547.7469879518072" y="184.50602409638554" type="curve" smooth="yes"/>
      <point x="564.4578313253013" y="289.48192771084337"/>
      <point x="511.5903614457831" y="354.7469879518072"/>
      <point x="381.90361445783134" y="380.30120481927713" type="curve" smooth="yes"/>
      <point x="289.1927710843374" y="398.43373493975906" type="line" smooth="yes"/>
      <point x="211.83132530120483" y="413.0120481927711"/>
      <point x="184.65060240963857" y="449.50602409638554"/>
      <point x="194.0963855421687" y="507.46987951807233" type="curve" smooth="yes"/>
      <point x="205.54216867469881" y="577.5903614457832"/>
      <point x="271.7710843373494" y="621.7951807228916"/>
      <point x="370.55421686746985" y="621.7951807228916" type="curve" smooth="yes"/>
      <point x="446.1566265060241" y="621.7951807228916"/>
      <point x="507.289156626506" y="599.6385542168674"/>
      <point x="551.156626506024" y="557.7469879518072" type="curve"/>
      <point x="592.0843373493975" y="635.1084337349398" type="line"/>
      <point x="547.9277108433735" y="679.4216867469879"/>
      <point x="475.7951807228916" y="706.0"/>
      <point x="407.0843373493976" y="709.4216867469879" type="curve"/>
      <point x="420.6144578313253" y="694.5783132530121" type="line"/>
      <point x="441.32530120481925" y="820.0" type="line"/>
      <point x="358.67469879518075" y="820.0" type="line"/>
      <point x="337.9638554216868" y="694.5783132530121" type="line"/>
      <point x="356.33734939759034" y="709.0" type="line"/>
      <point x="214.09638554216866" y="700.6024096385543"/>
      <point x="114.51807228915663" y="629.6024096385541"/>
      <point x="95.09638554216868" y="509.2048192771084" type="curve" smooth="yes"/>
      <point x="78.09638554216868" y="403.49397590361446"/>
      <point x="137.75903614457832" y="331.2289156626506"/>
      <point x="250.33734939759037" y="309.0963855421687" type="curve" smooth="yes"/>
      <point x="343.0481927710843" y="290.9638554216868" type="line" smooth="yes"/>
      <point x="427.144578313253" y="275.8072289156626"/>
      <point x="456.6144578313253" y="241.46987951807228"/>
      <point x="447.45783132530124" y="187.3734939759036" type="curve" smooth="yes"/>
      <point x="438.0120481927711" y="126.6987951807229"/>
      <point x="381.0722891566265" y="83.20481927710843"/>
      <point x="279.710843373494" y="83.20481927710843" type="curve" smooth="yes"/>
      <point x="181.08433734939757" y="83.20481927710843"/>
      <point x="112.8433734939759" y="108.20481927710843"/>
      <point x="58.26506024096386" y="148.65060240963857" type="curve"/>
      <point x="15.493975903614459" y="68.73493975903615" type="line"/>
      <point x="69.78313253012048" y="22.0"/>
      <point x="165.6265060240964" y="-0.7108433734939759"/>
      <point x="251.33734939759037" y="-5.421686746987952" type="curve"/>
      <point x="230.38554216867473" y="13.975903614457831" type="line"/>
    </contour>
  </outline>
</glyph>
<glyph name="ampersand" format="2">
  <advance width="678.1024096385543"/>
  <unicode hex="0026"/>
  <outline>
    <contour>
      <point x="613.5301204819277" y="-9.421686746987952" type="curve"/>
      <point x="659.1445783132531" y="64.09638554216868" type="line"/>
      <point x="607.2771084337348" y="87.56626506024097"/>
      <point x="563.8313253012049" y="124.7710843373494"/>
      <point x="534.9879518072289" y="161.7710843373494" type="curve"/>
      <point x="540.566265060241" y="135.24096385542168" type="line"/>
      <point x="598.8072289156627" y="208.0843373493976"/>
      <point x="643.2289156626506" y="306.9277108433735"/>
      <point x="664.9397590361446" y="417.50602409638554" type="curve"/>
      <point x="576.0240963855421" y="417.50602409638554" type="line"/>
      <point x="559.7349397590361" y="331.87951807228916"/>
      <point x="526.289156626506" y="251.5421686746988"/>
      <point x="483.28915662650604" y="196.25301204819277" type="curve"/>
      <point x="502.0843373493976" y="196.25301204819277" type="line"/>
      <point x="347.855421686747" y="393.1566265060241" type="line"/>
      <point x="346.5903614457831" y="369.04819277108436" type="line"/>
      <point x="468.7951807228916" y="433.83132530120486"/>
      <point x="517.6144578313252" y="492.51807228915663"/>
      <point x="528.6144578313252" y="560.6506024096385" type="curve" smooth="yes"/>
      <point x="543.7469879518072" y="657.0240963855422"/>
      <point x="474.06024096385545" y="714.4216867469879"/>
      <point x="374.28915662650604" y="714.4216867469879" type="curve" smooth="yes"/>
      <point x="255.25301204819274" y="714.4216867469879"/>
      <point x="187.43373493975903" y="649.3132530120482"/>
      <point x="174.0120481927711" y="565.6506024096386" type="curve" smooth="yes"/>
      <point x="163.72289156626505" y="501.20481927710847"/>
      <point x="183.3012048192771" y="447.3855421686747"/>
      <point x="233.3253012048193" y="385.1807228915663" type="curve"/>
      <point x="253.83132530120483" y="403.8433734939759" type="line"/>
      <point x="207.3855421686747" y="377.8192771084337" type="line" smooth="yes"/>
      <point x="109.51807228915662" y="322.9277108433735"/>
      <point x="45.80722891566265" y="267.7951807228916"/>
      <point x="32.80722891566265" y="185.79518072289156" type="curve" smooth="yes"/>
      <point x="14.3855421686747" y="70.42168674698794"/>
      <point x="97.60240963855422" y="-9.421686746987952"/>
      <point x="247.97590361445785" y="-9.421686746987952" type="curve" smooth="yes"/>
      <point x="343.68674698795184" y="-9.421686746987952"/>
      <point x="434.10843373493975" y="30.02409638554217"/>
      <point x="498.8433734939759" y="96.49397590361446" type="curve"/>
      <point x="469.7590361445783" y="97.20481927710844" type="line"/>
      <point x="504.0" y="57.65060240963855"/>
      <point x="555.1084337349398" y="15.337349397590362"/>
    </contour>
    <contour>
      <point x="262.0602409638554" y="70.80722891566265" type="curve" smooth="yes"/>
      <point x="167.12048192771084" y="70.80722891566265"/>
      <point x="122.93975903614457" y="117.6987951807229"/>
      <point x="133.80722891566262" y="189.7710843373494" type="curve" smooth="yes"/>
      <point x="143.38554216867468" y="247.81927710843374"/>
      <point x="184.855421686747" y="282.26506024096386"/>
      <point x="261.3734939759036" y="325.6265060240964" type="curve" smooth="yes"/>
      <point x="303.13253012048193" y="349.8072289156627" type="line"/>
      <point x="260.12048192771084" y="353.09638554216866" type="line"/>
      <point x="439.43373493975906" y="129.6867469879518" type="line"/>
      <point x="448.5421686746988" y="156.2168674698795" type="line"/>
      <point x="396.3614457831325" y="100.56626506024097"/>
      <point x="335.578313253012" y="70.80722891566265"/>
    </contour>
    <contour>
      <point x="370.73493975903614" y="642.722891566265" type="curve" smooth="yes"/>
      <point x="423.3614457831325" y="642.722891566265"/>
      <point x="453.96385542168673" y="610.8313253012049"/>
      <point x="445.3855421686747" y="561.0722891566265" type="curve" smooth="yes"/>
      <point x="437.8072289156626" y="510.7590361445783"/>
      <point x="394.78313253012044" y="473.86746987951807"/>
      <point x="298.13253012048193" y="422.50602409638554" type="curve"/>
      <point x="320.21686746987956" y="425.0843373493976" type="line"/>
      <point x="272.7469879518072" y="486.4457831325301"/>
      <point x="261.03614457831327" y="513.6024096385543"/>
      <point x="268.6144578313253" y="563.0722891566265" type="curve" smooth="yes"/>
      <point x="275.48192771084337" y="607.8313253012049"/>
      <point x="314.5301204819277" y="642.722891566265"/>
    </contour>
  </outline>
</glyph>
<glyph name="quotesingle" format="2">
  <advance width="230.789156626506"/>
  <unicode hex="0027"/>
  <outline>
    <contour>
      <point x="109.46987951807229" y="422.2289156626506" type="line"/>
      <point x="177.27710843373495" y="422.2289156626506" type="line"/>
      <point x="246.6265060240964" y="705.0" type="line"/>
      <point x="128.51807228915663" y="705.0" type="line"/>
    </contour>
  </outline>
</glyph>
<glyph name="parenleft" format="2">
  <advance width="334.82530120481925"/>
  <unicode hex="0028"/>
  <outline>
    <contour>
      <point x="151.77108433734938" y="-180.0" type="curve"/>
      <point x="233.8433734939759" y="-180.0" type="line"/>
      <point x="211.84337349397592" y="-82.1566265060241"/>
      <point x="198.42168674698792" y="14.843373493975907"/>
      <point x="198.42168674698792" y="98.57831325301206" type="curve" smooth="yes"/>
      <point x="198.42168674698792" y="325.86746987951807"/>
      <point x="274.86746987951807" y="529.4457831325301"/>
      <point x="379.0240963855422" y="705.0" type="curve"/>
      <point x="292.08433734939763" y="705.0" type="line"/>
      <point x="177.97590361445782" y="556.8192771084338"/>
      <point x="94.0" y="347.4819277108434"/>
      <point x="94.0" y="128.3012048192771" type="curve" smooth="yes"/>
      <point x="94.0" y="27.481927710843372"/>
      <point x="113.26506024096385" y="-78.60240963855422"/>
    </contour>
  </outline>
</glyph>
<glyph name="parenright" format="2">
  <advance width="334.82530120481925"/>
  <unicode hex="0029"/>
  <outline>
    <contour>
      <point x="46.096385542168676" y="-180.0" type="line"/>
      <point x="160.20481927710844" y="-31.819277108433734"/>
      <point x="244.1807228915663" y="178.22891566265062"/>
      <point x="244.1807228915663" y="396.69879518072287" type="curve" smooth="yes"/>
      <point x="244.1807228915663" y="498.22891566265065"/>
      <point x="224.9156626506024" y="603.6024096385543"/>
      <point x="186.40963855421688" y="705.0" type="curve"/>
      <point x="104.33734939759036" y="705.0" type="line"/>
      <point x="126.33734939759036" y="607.1566265060242"/>
      <point x="139.75903614457832" y="510.86746987951807"/>
      <point x="139.75903614457832" y="426.4216867469879" type="curve" smooth="yes"/>
      <point x="139.75903614457832" y="199.84337349397592"/>
      <point x="63.313253012048186" y="-4.445783132530121"/>
      <point x="-40.8433734939759" y="-180.0" type="curve"/>
    </contour>
  </outline>
</glyph>
<glyph name="asterisk" format="2">
  <advance width="455.5542168674699"/>
  <unicode hex="002A"/>
  <outline>
    <contour>
      <point x="177.24096385542168" y="359.93975903614455" type="line"/>
      <point x="276.578313253012" y="490.27710843373495" type="line"/>
      <point x="352.7590361445783" y="359.93975903614455" type="line"/>
      <point x="409.6385542168674" y="401.4216867469879" type="line"/>
      <point x="321.9036144578313" y="523.3373493975903" type="line"/>
      <point x="477.2409638554217" y="568.2289156626506" type="line"/>
      <point x="459.4216867469879" y="634.3734939759037" type="line"/>
      <point x="307.50602409638554" y="580.2168674698795" type="line"/>
      <point x="325.9277108433735" y="736.0" type="line"/>
      <point x="255.0722891566265" y="736.0" type="line"/>
      <point x="248.6265060240964" y="579.7951807228916" type="line"/>
      <point x="104.71084337349399" y="634.3734939759037" type="line"/>
      <point x="78.62650602409639" y="568.2289156626506" type="line"/>
      <point x="227.67469879518072" y="523.6265060240963" type="line"/>
      <point x="120.36144578313254" y="401.4216867469879" type="line"/>
    </contour>
  </outline>
</glyph>
<glyph name="plus" format="2">
  <advance width="600.0"/>
  <unicode hex="002B"/>
  <outline>
    <contour>
      <point x="228.5180722891566" y="40.0" type="line"/>
      <point x="304.7710843373494" y="40.0" type="line"/>
      <point x="337.92771084337346" y="249.93975903614458" type="line"/>
      <point x="545.7349397590361" y="249.93975903614458" type="line"/>
      <point x="557.421686746988" y="323.7710843373494" type="line"/>
      <point x="349.6144578313253" y="323.7710843373494" type="line"/>
      <point x="381.7710843373494" y="528.0" type="line"/>
      <point x="305.51807228915663" y="528.0" type="line"/>
      <point x="273.3614457831325" y="323.7710843373494" type="line"/>
      <point x="64.26506024096386" y="323.7710843373494" type="line"/>
      <point x="52.57831325301205" y="249.93975903614458" type="line"/>
      <point x="261.6746987951807" y="249.93975903614458" type="line"/>
    </contour>
  </outline>
</glyph>
<glyph name="comma" format="2">
  <advance width="237.3012048192771"/>
  <unicode hex="002C"/>
  <outline>
    <contour>
      <point x="54.66265060240964" y="-122.87951807228916" type="line"/>
      <point x="114.27710843373495" y="-74.95180722891565"/>
      <point x="132.0963855421687" y="-32.57831325301205"/>
      <point x="141.93975903614458" y="28.19277108433735" type="curve" smooth="yes"/>
      <point x="156.20481927710844" y="119.04819277108433" type="line"/>
      <point x="37.445783132530124" y="119.04819277108433" type="line"/>
      <point x="18.62650602409639" y="0.0" type="line"/>
      <point x="103.03614457831326" y="0.0" type="line"/>
      <point x="78.63855421686746" y="22.349397590361445" type="line"/>
      <point x="71.79518072289156" y="-17.156626506024097"/>
      <point x="58.975903614457835" y="-43.42168674698796"/>
      <point x="16.734939759036138" y="-81.81927710843374" type="curve"/>
    </contour>
  </outline>
</glyph>
<glyph name="hyphen" format="2">
  <advance width="432.7951807228916"/>
  <unicode hex="002D"/>
  <outline>
    <contour>
      <point x="66.75903614457832" y="234.09638554216866" type="line"/>
      <point x="360.34939759036143" y="234.09638554216866" type="line"/>
      <point x="372.7469879518072" y="315.4578313253012" type="line"/>
      <point x="79.86746987951807" y="315.4578313253012" type="line"/>
    </contour>
  </outline>
</glyph>
<glyph name="period" format="2">
  <advance width="237.3012048192771"/>
  <unicode hex="002E"/>
  <outline>
    <contour>
      <point x="18.915662650602414" y="0.0" type="line"/>
      <point x="138.3855421686747" y="0.0" type="line"/>
      <point x="157.20481927710844" y="119.04819277108433" type="line"/>
      <point x="37.73493975903615" y="119.04819277108433" type="line"/>
    </contour>
  </outline>
</glyph>
<glyph name="slash" format="2">
  <advance width="299.16265060240966"/>
  <unicode hex="002F"/>
  <outline>
    <contour>
      <point x="16.361445783132528" y="-56.975903614457835" type="line"/>
      <point x="409.18072289156623" y="749.6867469879518" type="line"/>
      <point x="320.9759036144578" y="749.6867469879518" type="line"/>
      <point x="-72.55421686746988" y="-56.975903614457835" type="line"/>
    </contour>
  </outline>
</glyph>
<glyph name="zero" format="2">
  <advance width="600.0"/>
  <unicode hex="0030"/>
  <outline>
    <contour>
      <point x="268.8433734939759" y="-9.421686746987952" type="curve" smooth="yes"/>
      <point x="422.81927710843377" y="-9.421686746987952"/>
      <point x="529.7951807228916" y="103.28915662650603"/>
      <point x="566.7951807228916" y="340.86746987951807" type="curve" smooth="yes"/>
      <point x="605.5060240963855" y="584.8433734939758"/>
      <point x="532.9759036144577" y="714.4216867469879"/>
      <point x="363.4457831325301" y="714.4216867469879" type="curve" smooth="yes"/>
      <point x="205.33734939759034" y="714.4216867469879"/>
      <point x="102.91566265060241" y="604.8433734939758"/>
      <point x="64.91566265060241" y="366.9759036144579" type="curve" smooth="yes"/>
      <point x="27.91566265060241" y="126.8433734939759"/>
      <point x="96.46987951807229" y="-9.421686746987952"/>
    </contour>
    <contour>
      <point x="274.8192771084337" y="77.78313253012048" type="curve" smooth="yes"/>
      <point x="171.96385542168676" y="77.78313253012048"/>
      <point x="133.9156626506024" y="160.87951807228916"/>
      <point x="165.0722891566265" y="357.9759036144579" type="curve" smooth="yes"/>
      <point x="195.09638554216866" y="549.8554216867469"/>
      <point x="257.3253012048193" y="627.9277108433735"/>
      <point x="357.1807228915663" y="627.9277108433735" type="curve" smooth="yes"/>
      <point x="460.7469879518072" y="627.9277108433735"/>
      <point x="498.7951807228916" y="548.2530120481928"/>
      <point x="467.6385542168675" y="350.86746987951807" type="curve" smooth="yes"/>
      <point x="437.6144578313253" y="157.9879518072289"/>
      <point x="374.3855421686747" y="77.78313253012048"/>
    </contour>
  </outline>
</glyph>
<glyph name="one" format="2">
  <advance width="600.0"/>
  <unicode hex="0031"/>
  <outline>
    <contour>
      <point x="79.96385542168674" y="0.0" type="line"/>
      <point x="501.85542168674704" y="0.0" type="line"/>
      <point x="515.6746987951808" y="87.33734939759036" type="line"/>
      <point x="361.6506024096385" y="87.33734939759036" type="line"/>
      <point x="459.8313253012048" y="705.0" type="line"/>
      <point x="385.4698795180723" y="705.0" type="line"/>
      <point x="189.67469879518072" y="595.289156626506" type="line"/>
      <point x="174.14457831325302" y="492.8433734939759" type="line"/>
      <point x="393.33734939759034" y="615.1084337349398" type="line"/>
      <point x="342.1686746987952" y="617.2409638554217" type="line"/>
      <point x="257.8072289156626" y="87.33734939759036" type="line"/>
      <point x="93.78313253012048" y="87.33734939759036" type="line"/>
    </contour>
  </outline>
</glyph>
<glyph name="two" format="2">
  <advance width="600.0"/>
  <unicode hex="0032"/>
  <outline>
    <contour>
      <point x="42.626506024096386" y="0.0" type="line"/>
      <point x="509.5301204819277" y="0.0" type="line"/>
      <point x="523.3493975903615" y="87.33734939759036" type="line"/>
      <point x="158.02409638554215" y="87.33734939759036" type="line"/>
      <point x="158.6024096385542" y="59.12048192771084" type="line"/>
      <point x="409.10843373493975" y="280.62650602409644" type="line" smooth="yes"/>
      <point x="497.8192771084337" y="358.49397590361446"/>
      <point x="549.9518072289156" y="424.2048192771084"/>
      <point x="562.9518072289156" y="510.2048192771084" type="curve" smooth="yes"/>
      <point x="582.6626506024096" y="637.1807228915663"/>
      <point x="504.95180722891564" y="714.4216867469879"/>
      <point x="353.33734939759034" y="714.4216867469879" type="curve" smooth="yes"/>
      <point x="264.49397590361446" y="714.4216867469879"/>
      <point x="167.36144578313252" y="682.2650602409639"/>
      <point x="103.80722891566265" y="631.3975903614459" type="curve"/>
      <point x="138.02409638554218" y="552.7469879518072" type="line"/>
      <point x="203.4698795180723" y="604.0602409638554"/>
      <point x="268.20481927710847" y="625.7951807228916"/>
      <point x="340.69879518072287" y="625.7951807228916" type="curve" smooth="yes"/>
      <point x="426.7951807228916" y="625.7951807228916"/>
      <point x="470.9759036144578" y="585.4578313253012"/>
      <point x="458.81927710843377" y="509.2289156626506" type="curve" smooth="yes"/>
      <point x="448.66265060240966" y="448.0"/>
      <point x="413.7710843373494" y="403.5301204819277"/>
      <point x="344.87951807228916" y="340.6385542168674" type="curve" smooth="yes"/>
      <point x="54.734939759036145" y="76.78313253012048" type="line"/>
    </contour>
  </outline>
</glyph>
<glyph name="three" format="2">
  <advance width="600.0"/>
  <unicode hex="0033"/>
  <outline>
    <contour>
      <point x="263.3132530120482" y="-9.421686746987952" type="curve" smooth="yes"/>
      <point x="409.9759036144579" y="-9.421686746987952"/>
      <point x="511.37349397590367" y="57.0"/>
      <point x="530.7951807228916" y="181.81927710843374" type="curve" smooth="yes"/>
      <point x="546.7951807228916" y="281.6867469879518"/>
      <point x="497.2409638554217" y="351.68674698795184"/>
      <point x="404.34939759036143" y="367.5542168674699" type="curve"/>
      <point x="403.34939759036143" y="356.13253012048193" type="line"/>
      <point x="489.7951807228916" y="376.710843373494"/>
      <point x="552.6626506024096" y="441.6024096385542"/>
      <point x="564.6626506024096" y="520.6024096385543" type="curve" smooth="yes"/>
      <point x="583.6626506024096" y="642.0240963855422"/>
      <point x="505.10843373493975" y="714.4216867469879"/>
      <point x="355.6265060240964" y="714.4216867469879" type="curve" smooth="yes"/>
      <point x="262.2048192771084" y="714.4216867469879"/>
      <point x="168.65060240963857" y="684.843373493976"/>
      <point x="103.80722891566265" y="630.1084337349398" type="curve"/>
      <point x="137.73493975903617" y="551.4578313253012" type="line"/>
      <point x="201.75903614457832" y="602.9277108433736"/>
      <point x="267.49397590361446" y="625.7951807228916"/>
      <point x="343.6746987951807" y="625.7951807228916" type="curve" smooth="yes"/>
      <point x="430.7710843373494" y="625.7951807228916"/>
      <point x="474.1084337349398" y="586.0361445783133"/>
      <point x="462.9518072289157" y="516.2289156626506" type="curve" smooth="yes"/>
      <point x="451.21686746987956" y="440.6867469879518"/>
      <point x="389.566265060241" y="399.32530120481925"/>
      <point x="303.89156626506025" y="399.32530120481925" type="curve" smooth="yes"/>
      <point x="203.33734939759037" y="399.32530120481925" type="line"/>
      <point x="190.22891566265062" y="314.8313253012048" type="line"/>
      <point x="302.0240963855421" y="314.8313253012048" type="line" smooth="yes"/>
      <point x="399.5903614457832" y="314.8313253012048"/>
      <point x="444.0843373493976" y="274.2048192771084"/>
      <point x="432.34939759036143" y="195.3734939759036" type="curve" smooth="yes"/>
      <point x="419.9036144578313" y="113.5421686746988"/>
      <point x="361.12048192771084" y="79.20481927710843"/>
      <point x="265.8915662650602" y="79.20481927710843" type="curve" smooth="yes"/>
      <point x="190.57831325301203" y="79.20481927710843"/>
      <point x="124.71084337349399" y="101.78313253012048"/>
      <point x="68.26506024096386" y="152.96385542168673" type="curve"/>
      <point x="27.91566265060241" y="73.60240963855422" type="line"/>
      <point x="78.49397590361447" y="20.867469879518072"/>
      <point x="167.75903614457832" y="-9.421686746987952"/>
    </contour>
  </outline>
</glyph>
<glyph name="four" format="2">
  <advance width="600.0"/>
  <unicode hex="0034"/>
  <outline>
    <contour>
      <point x="332.48192771084337" y="0.0" type="line"/>
      <point x="432.7710843373494" y="0.0" type="line"/>
      <point x="455.2168674698795" y="146.09638554216866" type="line"/>
      <point x="560.2650602409639" y="146.09638554216866" type="line"/>
      <point x="573.3734939759037" y="227.03614457831324" type="line"/>
      <point x="468.3253012048193" y="227.03614457831324" type="line"/>
      <point x="544.7710843373494" y="705.0" type="line"/>
      <point x="459.3012048192771" y="705.0" type="line"/>
      <point x="40.048192771084345" y="219.6144578313253" type="line"/>
      <point x="27.65060240963856" y="146.09638554216866" type="line"/>
      <point x="355.6385542168675" y="146.09638554216866" type="line"/>
    </contour>
    <contour>
      <point x="368.03614457831327" y="227.03614457831324" type="line"/>
      <point x="122.43373493975903" y="227.03614457831324" type="line"/>
      <point x="123.59036144578313" y="202.24096385542168" type="line"/>
      <point x="451.5301204819277" y="582.4939759036145" type="line"/>
      <point x="425.10843373493975" y="582.4939759036145" type="line"/>
    </contour>
  </outline>
</glyph>
<glyph name="five" format="2">
  <advance width="600.0"/>
  <unicode hex="0035"/>
  <outline>
    <contour>
      <point x="278.6024096385542" y="-9.421686746987952" type="curve" smooth="yes"/>
      <point x="430.2409638554217" y="-9.421686746987952"/>
      <point x="532.3734939759036" y="73.39759036144578"/>
      <point x="552.6626506024096" y="206.55421686746988" type="curve" smooth="yes"/>
      <point x="576.3734939759036" y="354.5301204819277"/>
      <point x="493.5301204819277" y="444.2409638554217"/>
      <point x="362.0843373493976" y="444.2409638554217" type="curve" smooth="yes"/>
      <point x="288.9277108433735" y="444.2409638554217"/>
      <point x="223.0120481927711" y="415.92771084337346"/>
      <point x="179.27710843373492" y="363.0120481927711" type="curve"/>
      <point x="206.65060240963857" y="363.0120481927711" type="line"/>
      <point x="246.56626506024097" y="618.3734939759036" type="line"/>
      <point x="574.4216867469879" y="618.3734939759036" type="line"/>
      <point x="589.2409638554217" y="705.0" type="line"/>
      <point x="162.2289156626506" y="705.0" type="line"/>
      <point x="95.09638554216868" y="281.2048192771084" type="line"/>
      <point x="166.50602409638554" y="281.2048192771084" type="line"/>
      <point x="213.10843373493975" y="333.144578313253"/>
      <point x="266.73493975903614" y="357.7469879518072"/>
      <point x="330.8072289156626" y="357.7469879518072" type="curve" smooth="yes"/>
      <point x="420.7710843373494" y="357.7469879518072"/>
      <point x="466.9518072289157" y="299.93975903614455"/>
      <point x="453.50602409638554" y="213.97590361445785" type="curve" smooth="yes"/>
      <point x="439.7710843373494" y="126.40963855421685"/>
      <point x="374.4096385542169" y="79.20481927710843"/>
      <point x="281.6024096385542" y="79.20481927710843" type="curve" smooth="yes"/>
      <point x="208.710843373494" y="79.20481927710843"/>
      <point x="143.13253012048193" y="102.78313253012048"/>
      <point x="87.6867469879518" y="152.96385542168673" type="curve"/>
      <point x="49.62650602409638" y="73.60240963855422" type="line"/>
      <point x="98.49397590361447" y="21.57831325301205"/>
      <point x="187.18072289156626" y="-9.421686746987952"/>
    </contour>
  </outline>
</glyph>
<glyph name="six" format="2">
  <advance width="600.0"/>
  <unicode hex="0036"/>
  <outline>
    <contour>
      <point x="291.26506024096386" y="-9.421686746987952" type="curve" smooth="yes"/>
      <point x="432.71084337349396" y="-9.421686746987952"/>
      <point x="528.3734939759037" y="73.3132530120482"/>
      <point x="549.5060240963855" y="206.10843373493978" type="curve" smooth="yes"/>
      <point x="573.2168674698795" y="352.6626506024096"/>
      <point x="490.50602409638554" y="446.7951807228916"/>
      <point x="362.03614457831327" y="446.7951807228916" type="curve" smooth="yes"/>
      <point x="250.3855421686747" y="446.7951807228916"/>
      <point x="172.6265060240964" y="379.87951807228916"/>
      <point x="142.6265060240964" y="271.93975903614455" type="curve"/>
      <point x="153.4698795180723" y="271.93975903614455" type="line"/>
      <point x="167.20481927710844" y="357.06024096385545" type="line" smooth="yes"/>
      <point x="198.0963855421687" y="541.566265060241"/>
      <point x="280.03614457831327" y="625.7951807228916"/>
      <point x="408.421686746988" y="625.7951807228916" type="curve" smooth="yes"/>
      <point x="469.1566265060241" y="625.7951807228916"/>
      <point x="521.7349397590361" y="607.2168674698795"/>
      <point x="566.0240963855422" y="561.6144578313254" type="curve"/>
      <point x="607.6626506024096" y="638.8192771084338" type="line"/>
      <point x="563.9759036144578" y="688.9759036144578"/>
      <point x="491.26506024096386" y="714.4216867469879"/>
      <point x="413.5542168674699" y="714.4216867469879" type="curve" smooth="yes"/>
      <point x="236.44578313253012" y="714.4216867469879"/>
      <point x="106.91566265060241" y="598.710843373494"/>
      <point x="69.33734939759037" y="357.3975903614458" type="curve" smooth="yes"/>
      <point x="30.04819277108434" y="111.92771084337349"/>
      <point x="119.20481927710843" y="-9.421686746987952"/>
    </contour>
    <contour>
      <point x="292.8192771084337" y="74.93975903614458" type="curve" smooth="yes"/>
      <point x="205.9879518072289" y="74.93975903614458"/>
      <point x="157.20481927710844" y="133.3012048192771"/>
      <point x="171.36144578313252" y="221.10843373493975" type="curve" smooth="yes"/>
      <point x="184.80722891566265" y="304.0722891566265"/>
      <point x="245.6144578313253" y="363.144578313253"/>
      <point x="333.31325301204816" y="363.144578313253" type="curve" smooth="yes"/>
      <point x="417.85542168674704" y="363.144578313253"/>
      <point x="467.6385542168675" y="305.0722891566265"/>
      <point x="453.1927710843374" y="211.53012048192772" type="curve" smooth="yes"/>
      <point x="440.03614457831327" y="129.43373493975903"/>
      <point x="388.9638554216868" y="74.93975903614458"/>
    </contour>
  </outline>
</glyph>
<glyph name="seven" format="2">
  <advance width="600.0"/>
  <unicode hex="0037"/>
  <outline>
    <contour>
      <point x="55.74698795180724" y="0.0" type="line"/>
      <point x="174.27710843373495" y="0.0" type="line"/>
      <point x="600.2409638554217" y="627.7951807228916" type="line"/>
      <point x="612.3493975903615" y="705.0" type="line"/>
      <point x="132.36144578313252" y="705.0" type="line"/>
      <point x="117.54216867469879" y="616.9518072289156" type="line"/>
      <point x="502.81927710843377" y="616.9518072289156" type="line"/>
      <point x="504.5301204819277" y="657.0361445783133" type="line"/>
    </contour>
  </outline>
</glyph>
<glyph name="eight" format="2">
  <advance width="600.0"/>
  <unicode hex="0038"/>
  <outline>
    <contour>
      <point x="268.8433734939759" y="-9.421686746987952" type="curve" smooth="yes"/>
      <point x="425.6867469879518" y="-9.421686746987952"/>
      <point x="527.5060240963855" y="57.28915662650603"/>
      <point x="547.2168674698795" y="179.84337349397592" type="curve" smooth="yes"/>
      <point x="564.2168674698795" y="281.13253012048193"/>
      <point x="512.7951807228916" y="350.10843373493975"/>
      <point x="418.34939759036143" y="366.6867469879518" type="curve"/>
      <point x="415.9277108433735" y="349.86746987951807" type="line"/>
      <point x="505.9518072289157" y="366.0240963855422"/>
      <point x="569.0843373493976" y="427.73493975903614"/>
      <point x="583.7951807228916" y="515.5783132530121" type="curve" smooth="yes"/>
      <point x="601.7951807228916" y="634.0"/>
      <point x="520.1084337349398" y="714.4216867469879"/>
      <point x="369.71084337349396" y="714.4216867469879" type="curve" smooth="yes"/>
      <point x="215.1566265060241" y="714.4216867469879"/>
      <point x="121.91566265060241" y="647.5542168674699"/>
      <point x="104.20481927710844" y="535.5783132530121" type="curve" smooth="yes"/>
      <point x="90.49397590361446" y="447.4457831325301"/>
      <point x="135.20481927710844" y="371.73493975903614"/>
      <point x="220.65060240963854" y="353.1566265060241" type="curve"/>
      <point x="223.0722891566265" y="370.6867469879518" type="line"/>
      <point x="123.33734939759037" y="358.3975903614458"/>
      <point x="49.204819277108435" y="298.9759036144578"/>
      <point x="33.204819277108435" y="201.81927710843374" type="curve" smooth="yes"/>
      <point x="13.493975903614459" y="73.42168674698794"/>
      <point x="97.3132530120482" y="-9.421686746987952"/>
    </contour>
    <contour>
      <point x="273.9759036144578" y="73.22891566265059" type="curve" smooth="yes"/>
      <point x="164.12048192771084" y="73.22891566265059"/>
      <point x="118.07228915662651" y="121.144578313253"/>
      <point x="130.51807228915663" y="199.53012048192772" type="curve" smooth="yes"/>
      <point x="143.67469879518072" y="276.6265060240964"/>
      <point x="201.87951807228916" y="315.67469879518075"/>
      <point x="309.4457831325301" y="315.67469879518075" type="curve" smooth="yes"/>
      <point x="417.72289156626505" y="315.67469879518075"/>
      <point x="465.0602409638554" y="275.20481927710847"/>
      <point x="451.6144578313253" y="194.24096385542168" type="curve" smooth="yes"/>
      <point x="439.16867469879514" y="113.27710843373494"/>
      <point x="378.96385542168673" y="73.22891566265059"/>
    </contour>
    <contour>
      <point x="323.5542168674699" y="398.32530120481925" type="curve" smooth="yes"/>
      <point x="231.56626506024097" y="398.32530120481925"/>
      <point x="188.93975903614458" y="450.10843373493975"/>
      <point x="200.09638554216866" y="521.9156626506025" type="curve" smooth="yes"/>
      <point x="210.96385542168673" y="589.144578313253"/>
      <point x="264.7469879518072" y="631.7710843373494"/>
      <point x="360.3132530120482" y="631.7710843373494" type="curve" smooth="yes"/>
      <point x="453.3012048192771" y="631.7710843373494"/>
      <point x="496.50602409638554" y="587.722891566265"/>
      <point x="485.0602409638554" y="511.46987951807233" type="curve" smooth="yes"/>
      <point x="473.32530120481925" y="435.79518072289153"/>
      <point x="416.2530120481928" y="398.32530120481925"/>
    </contour>
  </outline>
</glyph>
<glyph name="nine" format="2">
  <advance width="600.0"/>
  <unicode hex="0039"/>
  <outline>
    <contour>
      <point x="218.73493975903614" y="-9.421686746987952" type="curve" smooth="yes"/>
      <point x="395.8433734939759" y="-9.421686746987952"/>
      <point x="525.3734939759037" y="107.0"/>
      <point x="563.6626506024097" y="347.6024096385542" type="curve" smooth="yes"/>
      <point x="602.2409638554217" y="593.0722891566265"/>
      <point x="514.3734939759037" y="714.4216867469879"/>
      <point x="343.0240963855422" y="714.4216867469879" type="curve" smooth="yes"/>
      <point x="200.86746987951807" y="714.4216867469879"/>
      <point x="103.91566265060241" y="631.6867469879519"/>
      <point x="82.78313253012048" y="499.6024096385542" type="curve" smooth="yes"/>
      <point x="60.07228915662651" y="353.04819277108436"/>
      <point x="142.49397590361446" y="258.2048192771084"/>
      <point x="270.96385542168673" y="258.2048192771084" type="curve" smooth="yes"/>
      <point x="382.6144578313253" y="258.2048192771084"/>
      <point x="459.6626506024096" y="325.12048192771084"/>
      <point x="490.3734939759036" y="433.06024096385545" type="curve"/>
      <point x="478.81927710843377" y="433.06024096385545" type="line"/>
      <point x="465.0843373493976" y="347.93975903614455" type="line" smooth="yes"/>
      <point x="435.6144578313253" y="163.43373493975903"/>
      <point x="352.2530120481928" y="79.20481927710843"/>
      <point x="224.57831325301203" y="79.20481927710843" type="curve" smooth="yes"/>
      <point x="163.8433734939759" y="79.20481927710843"/>
      <point x="110.55421686746988" y="98.49397590361446"/>
      <point x="66.26506024096385" y="143.3855421686747" type="curve"/>
      <point x="24.62650602409639" y="66.89156626506025" type="line"/>
      <point x="69.02409638554218" y="16.02409638554217"/>
      <point x="141.02409638554218" y="-9.421686746987952"/>
    </contour>
    <contour>
      <point x="298.9759036144578" y="342.56626506024094" type="curve" smooth="yes"/>
      <point x="214.43373493975903" y="342.56626506024094"/>
      <point x="165.36144578313252" y="400.6385542168675"/>
      <point x="179.80722891566265" y="493.46987951807233" type="curve" smooth="yes"/>
      <point x="192.25301204819277" y="575.566265060241"/>
      <point x="245.32530120481925" y="630.7710843373494"/>
      <point x="340.7590361445783" y="630.7710843373494" type="curve" smooth="yes"/>
      <point x="427.5903614457831" y="630.7710843373494"/>
      <point x="475.08433734939763" y="571.6987951807229"/>
      <point x="461.6385542168675" y="484.60240963855426" type="curve" smooth="yes"/>
      <point x="448.1927710843374" y="400.9277108433735"/>
      <point x="387.3855421686747" y="342.56626506024094"/>
    </contour>
  </outline>
</glyph>
<glyph name="colon" format="2">
  <advance width="237.3012048192771"/>
  <unicode hex="003A"/>
  <outline>
    <contour>
      <point x="79.80722891566265" y="385.2168674698795" type="line"/>
      <point x="199.27710843373495" y="385.2168674698795" type="line"/>
      <point x="218.0963855421687" y="503.5542168674699" type="line"/>
      <point x="98.62650602409639" y="503.5542168674699" type="line"/>
    </contour>
    <contour>
      <point x="18.62650602409639" y="0.0" type="line"/>
      <point x="137.3855421686747" y="0.0" type="line"/>
      <point x="156.20481927710844" y="119.04819277108433" type="line"/>
      <point x="37.445783132530124" y="119.04819277108433" type="line"/>
    </contour>
  </outline>
</glyph>
<glyph name="semicolon" format="2">
  <advance width="237.3012048192771"/>
  <unicode hex="003B"/>
  <outline>
    <contour>
      <point x="52.53012048192771" y="-122.87951807228916" type="line"/>
      <point x="112.14457831325302" y="-77.24096385542168"/>
      <point x="135.96385542168676" y="-30.156626506024097"/>
      <point x="144.80722891566265" y="30.325301204819276" type="curve" smooth="yes"/>
      <point x="158.7831325301205" y="119.04819277108433" type="line"/>
      <point x="40.02409638554217" y="119.04819277108433" type="line"/>
      <point x="21.204819277108438" y="0.0" type="line"/>
      <point x="100.16867469879517" y="0.0" type="line"/>
      <point x="81.2168674698795" y="22.349397590361445" type="line"/>
      <point x="75.79518072289156" y="-15.734939759036145"/>
      <point x="59.265060240963855" y="-48.13253012048193"/>
      <point x="13.891566265060234" y="-88.66265060240964" type="curve"/>
    </contour>
    <contour>
      <point x="79.80722891566265" y="384.50602409638554" type="line"/>
      <point x="199.27710843373495" y="384.50602409638554" type="line"/>
      <point x="218.0963855421687" y="503.5542168674699" type="line"/>
      <point x="98.62650602409639" y="503.5542168674699" type="line"/>
    </contour>
  </outline>
</glyph>
<glyph name="less" format="2">
  <advance width="600.0"/>
  <unicode hex="003C"/>
  <outline>
    <contour>
      <point x="510.5783132530121" y="34.1566265060241" type="line"/>
      <point x="523.2650602409639" y="110.6987951807229" type="line"/>
      <point x="97.66265060240964" y="307.0843373493976" type="line"/>
      <point x="89.3975903614458" y="257.3614457831325" type="line"/>
      <point x="577.6024096385543" y="454.7469879518072" type="line"/>
      <point x="591.0" y="540.5542168674699" type="line"/>
      <point x="64.97590361445783" y="326.32530120481925" type="line"/>
      <point x="52.57831325301205" y="248.3855421686747" type="line"/>
    </contour>
  </outline>
</glyph>
<glyph name="equal" format="2">
  <advance width="600.0"/>
  <unicode hex="003D"/>
  <outline>
    <contour>
      <point x="68.57831325301204" y="349.93975903614455" type="line"/>
      <point x="560.7349397590361" y="349.93975903614455" type="line"/>
      <point x="572.421686746988" y="423.7710843373494" type="line"/>
      <point x="80.26506024096385" y="423.7710843373494" type="line"/>
    </contour>
    <contour>
      <point x="37.57831325301205" y="150.93975903614458" type="line"/>
      <point x="529.7349397590361" y="150.93975903614458" type="line"/>
      <point x="541.421686746988" y="224.06024096385542" type="line"/>
      <point x="49.265060240963855" y="224.06024096385542" type="line"/>
    </contour>
  </outline>
</glyph>
<glyph name="greater" format="2">
  <advance width="600.0"/>
  <unicode hex="003E"/>
  <outline>
    <contour>
      <point x="19.710843373493976" y="34.1566265060241" type="line"/>
      <point x="545.7349397590361" y="248.3855421686747" type="line"/>
      <point x="558.132530120482" y="326.32530120481925" type="line"/>
      <point x="100.13253012048192" y="540.5542168674699" type="line"/>
      <point x="87.44578313253011" y="463.30120481927713" type="line"/>
      <point x="513.0481927710845" y="265.9156626506024" type="line"/>
      <point x="521.3132530120482" y="316.34939759036143" type="line"/>
      <point x="33.10843373493976" y="119.25301204819277" type="line"/>
    </contour>
  </outline>
</glyph>
<glyph name="question" format="2">
  <advance width="454.68072289156623"/>
  <unicode hex="003F"/>
  <outline>
    <contour>
      <point x="162.55421686746988" y="195.40963855421688" type="line"/>
      <point x="225.25301204819277" y="195.40963855421688" type="line"/>
      <point x="233.0963855421687" y="221.67469879518072" type="line" smooth="yes"/>
      <point x="244.25301204819277" y="268.45783132530124"/>
      <point x="272.69879518072287" y="310.0602409638554"/>
      <point x="348.855421686747" y="374.26506024096386" type="curve" smooth="yes"/>
      <point x="413.96385542168673" y="426.28915662650604"/>
      <point x="474.14457831325296" y="491.0240963855422"/>
      <point x="474.14457831325296" y="577.7590361445783" type="curve" smooth="yes"/>
      <point x="474.14457831325296" y="660.4457831325302"/>
      <point x="405.6144578313253" y="714.4216867469879"/>
      <point x="300.50602409638554" y="714.4216867469879" type="curve" smooth="yes"/>
      <point x="246.81927710843374" y="714.4216867469879"/>
      <point x="183.73493975903614" y="701.8674698795181"/>
      <point x="136.18072289156626" y="676.6024096385543" type="curve"/>
      <point x="122.07228915662651" y="586.5301204819277" type="line"/>
      <point x="168.91566265060243" y="611.3734939759036"/>
      <point x="220.6024096385542" y="627.9277108433735"/>
      <point x="273.89156626506025" y="627.9277108433735" type="curve" smooth="yes"/>
      <point x="333.96385542168673" y="627.9277108433735"/>
      <point x="369.7228915662651" y="602.7469879518072"/>
      <point x="369.7228915662651" y="559.2530120481928" type="curve" smooth="yes"/>
      <point x="369.7228915662651" y="504.4457831325301"/>
      <point x="324.93975903614455" y="454.3734939759036"/>
      <point x="283.33734939759034" y="415.48192771084337" type="curve" smooth="yes"/>
      <point x="204.84337349397592" y="342.8313253012048"/>
      <point x="177.97590361445785" y="293.51807228915663"/>
      <point x="168.3975903614458" y="229.6265060240964" type="curve" smooth="yes"/>
    </contour>
    <contour>
      <point x="103.04819277108433" y="0.0" type="line"/>
      <point x="222.51807228915663" y="0.0" type="line"/>
      <point x="241.33734939759037" y="119.04819277108433" type="line"/>
      <point x="121.86746987951807" y="119.04819277108433" type="line"/>
    </contour>
  </outline>
</glyph>
<glyph name="at" format="2">
  <advance width="967.3132530120482"/>
  <unicode hex="0040"/>
  <outline>
    <contour>
      <point x="503.73493975903614" y="-164.13253012048193" type="curve" smooth="yes"/>
      <point x="622.8915662650602" y="-164.13253012048193"/>
      <point x="725.0481927710842" y="-128.10843373493975"/>
      <point x="789.3373493975904" y="-64.06024096385542" type="curve"/>
      <point x="753.0963855421687" y="-7.891566265060241" type="line"/>
      <point x="694.9638554216868" y="-65.93975903614458"/>
      <point x="607.7831325301205" y="-98.12048192771084"/>
      <point x="503.73493975903614" y="-98.12048192771084" type="curve" smooth="yes"/>
      <point x="287.2409638554217" y="-98.12048192771084"/>
      <point x="143.03614457831324" y="40.506024096385545"/>
      <point x="143.03614457831324" y="270.6024096385542" type="curve" smooth="yes"/>
      <point x="143.03614457831324" y="498.7831325301205"/>
      <point x="296.8192771084337" y="648.4096385542168"/>
      <point x="517.710843373494" y="648.4096385542168" type="curve" smooth="yes"/>
      <point x="714.7349397590361" y="648.4096385542168"/>
      <point x="850.8313253012049" y="530.4698795180723"/>
      <point x="850.8313253012049" y="343.1566265060241" type="curve" smooth="yes"/>
      <point x="850.8313253012049" y="210.63855421686748"/>
      <point x="791.4698795180723" y="122.3012048192771"/>
      <point x="721.3975903614457" y="122.3012048192771" type="curve" smooth="yes"/>
      <point x="683.2168674698795" y="122.3012048192771"/>
      <point x="664.7710843373494" y="142.74698795180723"/>
      <point x="664.7710843373494" y="186.48192771084337" type="curve" smooth="yes"/>
      <point x="664.7710843373494" y="199.90361445783134"/>
      <point x="666.4819277108434" y="216.74698795180723"/>
      <point x="670.1927710843373" y="236.72289156626505" type="curve" smooth="yes"/>
      <point x="713.6385542168674" y="487.5542168674699" type="line"/>
      <point x="635.3855421686746" y="487.5542168674699" type="line"/>
      <point x="618.6746987951807" y="393.26506024096386" type="line"/>
      <point x="632.7831325301205" y="393.26506024096386" type="line"/>
      <point x="617.9397590361446" y="460.10843373493975"/>
      <point x="570.7831325301205" y="496.9759036144578"/>
      <point x="498.9156626506024" y="496.9759036144578" type="curve" smooth="yes"/>
      <point x="374.9156626506024" y="496.9759036144578"/>
      <point x="283.7590361445783" y="389.6867469879518"/>
      <point x="283.7590361445783" y="243.10843373493975" type="curve" smooth="yes"/>
      <point x="283.7590361445783" y="128.55421686746988"/>
      <point x="343.89156626506025" y="59.0"/>
      <point x="448.86746987951807" y="59.0" type="curve" smooth="yes"/>
      <point x="518.5542168674699" y="59.0"/>
      <point x="583.8433734939758" y="103.26506024096386"/>
      <point x="618.1325301204819" y="188.19277108433735" type="curve"/>
      <point x="593.7831325301205" y="186.57831325301206" type="line"/>
      <point x="591.156626506024" y="107.1566265060241"/>
      <point x="636.4216867469879" y="59.0"/>
      <point x="716.2650602409637" y="59.0" type="curve" smooth="yes"/>
      <point x="831.3975903614459" y="59.0"/>
      <point x="917.5542168674699" y="169.86746987951807"/>
      <point x="917.5542168674699" y="343.1566265060241" type="curve" smooth="yes"/>
      <point x="917.5542168674699" y="566.1325301204819"/>
      <point x="751.8192771084338" y="714.4216867469879"/>
      <point x="518.710843373494" y="714.4216867469879" type="curve" smooth="yes"/>
      <point x="255.62650602409636" y="714.4216867469879"/>
      <point x="69.04819277108435" y="535.4216867469879"/>
      <point x="69.04819277108435" y="270.6024096385542" type="curve" smooth="yes"/>
      <point x="69.04819277108435" y="6.710843373493976"/>
      <point x="247.89156626506025" y="-164.13253012048193"/>
    </contour>
    <contour>
      <point x="461.95180722891564" y="126.43373493975903" type="curve" smooth="yes"/>
      <point x="400.7469879518072" y="126.43373493975903"/>
      <point x="365.855421686747" y="167.6144578313253"/>
      <point x="365.855421686747" y="243.81927710843374" type="curve" smooth="yes"/>
      <point x="365.855421686747" y="351.7590361445783"/>
      <point x="426.9277108433735" y="428.8313253012048"/>
      <point x="510.28915662650604" y="428.8313253012048" type="curve" smooth="yes"/>
      <point x="575.0722891566264" y="428.8313253012048"/>
      <point x="604.9638554216867" y="393.51807228915663"/>
      <point x="604.9638554216867" y="323.4457831325301" type="curve" smooth="yes"/>
      <point x="604.9638554216867" y="208.08433734939757"/>
      <point x="544.8915662650602" y="126.43373493975903"/>
    </contour>
  </outline>
</glyph>
<glyph name="A" format="2">
  <advance width="741.6144578313254"/>
  <unicode hex="0041"/>
  <anchor x="329.3734939759036" y="0.0" name="bottom"/>
  <anchor x="662.6385542168674" y="0.0" name="ogonek"/>
  <anchor x="441.3734939759036" y="705.0" name="top"/>
  <outline>
    <contour>
      <point x="-30.16867469879518" y="0.0" type="line"/>
      <point x="79.67469879518072" y="0.0" type="line"/>
      <point x="197.25301204819277" y="199.73493975903614" type="line"/>
      <point x="146.9277108433735" y="172.25301204819277" type="line"/>
      <point x="573.9759036144579" y="172.25301204819277" type="line"/>
      <point x="534.2048192771084" y="199.73493975903614" type="line"/>
      <point x="589.7831325301205" y="0.0" type="line"/>
      <point x="691.7831325301205" y="0.0" type="line"/>
      <point x="484.8313253012048" y="705.0" type="line"/>
      <point x="396.2048192771084" y="705.0" type="line"/>
    </contour>
    <contour>
      <point x="425.5542168674699" y="590.710843373494" type="line"/>
      <point x="428.9759036144579" y="590.710843373494" type="line"/>
      <point x="527.4939759036145" y="231.55421686746988" type="line"/>
      <point x="550.8915662650602" y="255.32530120481928" type="line"/>
      <point x="195.5180722891566" y="255.32530120481928" type="line"/>
      <point x="216.51807228915663" y="231.55421686746988" type="line"/>
    </contour>
  </outline>
</glyph>
<glyph name="B" format="2">
  <advance width="684.7951807228916"/>
  <unicode hex="0042"/>
  <anchor x="308.10843373493975" y="0.0" name="bottom"/>
  <anchor x="419.8192771084337" y="705.0" name="top"/>
  <outline>
    <contour>
      <point x="43.493975903614455" y="0.0" type="line"/>
      <point x="353.5903614457832" y="0.0" type="line" smooth="yes"/>
      <point x="506.433734939759" y="0.0"/>
      <point x="601.6987951807229" y="63.53012048192771"/>
      <point x="620.9879518072289" y="185.26506024096386" type="curve" smooth="yes"/>
      <point x="636.277108433735" y="283.71084337349396"/>
      <point x="586.8313253012049" y="353.0"/>
      <point x="485.96385542168673" y="366.5542168674699" type="curve"/>
      <point x="483.96385542168673" y="351.8433734939759" type="line"/>
      <point x="577.6987951807229" y="371.5542168674699"/>
      <point x="641.5662650602409" y="427.81927710843377"/>
      <point x="656.144578313253" y="515.289156626506" type="curve" smooth="yes"/>
      <point x="675.144578313253" y="636.8674698795181"/>
      <point x="601.0120481927711" y="705.0"/>
      <point x="452.34939759036143" y="705.0" type="curve" smooth="yes"/>
      <point x="155.49397590361446" y="705.0" type="line"/>
    </contour>
    <contour>
      <point x="156.1807228915663" y="80.93975903614458" type="line"/>
      <point x="193.22891566265062" y="317.09638554216866" type="line"/>
      <point x="394.26506024096386" y="317.09638554216866" type="line" smooth="yes"/>
      <point x="483.6265060240964" y="317.09638554216866"/>
      <point x="536.277108433735" y="284.2048192771084"/>
      <point x="521.5421686746987" y="190.79518072289156" type="curve" smooth="yes"/>
      <point x="509.38554216867465" y="114.12048192771084"/>
      <point x="447.289156626506" y="80.93975903614458"/>
      <point x="352.9036144578313" y="80.93975903614458" type="curve" smooth="yes"/>
    </contour>
    <contour>
      <point x="206.6265060240964" y="397.32530120481925" type="line"/>
      <point x="242.3855421686747" y="624.7710843373494" type="line"/>
      <point x="432.0240963855422" y="624.7710843373494" type="line" smooth="yes"/>
      <point x="523.6746987951807" y="624.7710843373494"/>
      <point x="565.3012048192771" y="585.855421686747"/>
      <point x="552.1445783132531" y="503.1807228915663" type="curve" smooth="yes"/>
      <point x="541.9879518072289" y="436.2409638554217"/>
      <point x="486.7590361445783" y="397.32530120481925"/>
      <point x="385.50602409638554" y="397.32530120481925" type="curve" smooth="yes"/>
    </contour>
  </outline>
</glyph>
<glyph name="C" format="2">
  <advance width="684.355421686747"/>
  <unicode hex="0043"/>
  <anchor x="353.95180722891564" y="0.0" name="bottom"/>
  <anchor x="466.5301204819277" y="705.0" name="top"/>
  <outline>
    <contour>
      <point x="377.21686746987956" y="-9.421686746987952" type="curve" smooth="yes"/>
      <point x="468.9277108433735" y="-9.421686746987952"/>
      <point x="559.7951807228916" y="21.44578313253012"/>
      <point x="624.0602409638554" y="78.04819277108433" type="curve"/>
      <point x="590.6867469879519" y="159.67469879518072" type="line"/>
      <point x="527.6867469879518" y="105.20481927710843"/>
      <point x="458.92771084337346" y="83.46987951807229"/>
      <point x="387.87951807228916" y="83.46987951807229" type="curve" smooth="yes"/>
      <point x="223.6024096385542" y="83.46987951807229"/>
      <point x="157.71084337349396" y="191.27710843373495"/>
      <point x="184.44578313253012" y="357.9759036144578" type="curve" smooth="yes"/>
      <point x="211.46987951807228" y="526.5662650602409"/>
      <point x="309.6746987951807" y="621.5301204819277"/>
      <point x="458.3734939759036" y="621.5301204819277" type="curve" smooth="yes"/>
      <point x="536.132530120482" y="621.5301204819277"/>
      <point x="587.7349397590361" y="603.0843373493976"/>
      <point x="644.6024096385543" y="552.7469879518072" type="curve"/>
      <point x="683.9518072289156" y="636.3734939759036" type="line"/>
      <point x="632.0843373493975" y="686.843373493976"/>
      <point x="557.9518072289156" y="714.4216867469879"/>
      <point x="463.50602409638554" y="714.4216867469879" type="curve" smooth="yes"/>
      <point x="254.71084337349401" y="715.1325301204819"/>
      <point x="111.75903614457832" y="588.132530120482"/>
      <point x="76.46987951807229" y="366.5542168674699" type="curve" smooth="yes"/>
      <point x="41.46987951807229" y="145.39759036144576"/>
      <point x="142.13253012048193" y="-9.421686746987952"/>
    </contour>
  </outline>
</glyph>
<glyph name="D" format="2">
  <advance width="753.6144578313254"/>
  <unicode hex="0044"/>
  <anchor x="343.3734939759036" y="0.0" name="bottom"/>
  <anchor x="207.9277108433735" y="358.0" name="center"/>
  <anchor x="455.3734939759036" y="705.0" name="top"/>
  <outline>
    <contour>
      <point x="43.493975903614455" y="0.0" type="line"/>
      <point x="290.90361445783134" y="0.0" type="line" smooth="yes"/>
      <point x="525.3012048192771" y="0.0"/>
      <point x="672.566265060241" y="112.71084337349397"/>
      <point x="708.855421686747" y="339.4457831325301" type="curve" smooth="yes"/>
      <point x="744.855421686747" y="567.3132530120482"/>
      <point x="639.8795180722892" y="705.0"/>
      <point x="389.3734939759036" y="705.0" type="curve" smooth="yes"/>
      <point x="155.49397590361446" y="705.0" type="line"/>
    </contour>
    <contour>
      <point x="161.15662650602408" y="87.33734939759036" type="line"/>
      <point x="244.5180722891566" y="618.3734939759036" type="line"/>
      <point x="376.9759036144578" y="618.3734939759036" type="line" smooth="yes"/>
      <point x="559.2530120481928" y="618.3734939759036"/>
      <point x="634.1686746987951" y="531.433734939759"/>
      <point x="605.433734939759" y="348.0240963855422" type="curve" smooth="yes"/>
      <point x="577.8313253012047" y="171.6987951807229"/>
      <point x="475.8915662650602" y="87.33734939759036"/>
      <point x="294.32530120481925" y="87.33734939759036" type="curve" smooth="yes"/>
    </contour>
  </outline>
</glyph>
<glyph name="E" format="2">
  <advance width="591.2409638554217"/>
  <unicode hex="0045"/>
  <anchor x="290.10843373493975" y="0.0" name="bottom"/>
  <anchor x="467.5301204819277" y="0.0" name="ogonek"/>
  <anchor x="402.10843373493975" y="705.0" name="top"/>
  <anchor x="94.1566265060241" y="705.0" name="topleft"/>
  <outline>
    <contour>
      <point x="43.493975903614455" y="0.0" type="line"/>
      <point x="504.9036144578313" y="0.0" type="line"/>
      <point x="518.0120481927711" y="83.78313253012048" type="line"/>
      <point x="156.89156626506025" y="83.78313253012048" type="line"/>
      <point x="194.22891566265062" y="315.96385542168673" type="line"/>
      <point x="532.6385542168674" y="315.96385542168673" type="line"/>
      <point x="545.7469879518072" y="399.7469879518072" type="line"/>
      <point x="207.33734939759037" y="399.7469879518072" type="line"/>
      <point x="241.67469879518075" y="621.9277108433735" type="line"/>
      <point x="603.5060240963855" y="621.9277108433735" type="line"/>
      <point x="616.9036144578313" y="705.0" type="line"/>
      <point x="155.49397590361446" y="705.0" type="line"/>
    </contour>
  </outline>
</glyph>
<glyph name="F" format="2">
  <advance width="566.7951807228916"/>
  <unicode hex="0046"/>
  <anchor x="264.9759036144578" y="0.0" name="bottom"/>
  <anchor x="379.10843373493975" y="705.0" name="top"/>
  <outline>
    <contour>
      <point x="43.493975903614455" y="0.0" type="line"/>
      <point x="147.33734939759034" y="0.0" type="line"/>
      <point x="197.07228915662648" y="313.12048192771084" type="line"/>
      <point x="522.2168674698795" y="313.12048192771084" type="line"/>
      <point x="535.3253012048193" y="396.1927710843373" type="line"/>
      <point x="210.18072289156623" y="396.1927710843373" type="line"/>
      <point x="245.2289156626506" y="621.9277108433735" type="line"/>
      <point x="592.7951807228915" y="621.9277108433735" type="line"/>
      <point x="606.9036144578313" y="705.0" type="line"/>
      <point x="155.49397590361446" y="705.0" type="line"/>
    </contour>
  </outline>
</glyph>
<glyph name="G" format="2">
  <advance width="734.7289156626506"/>
  <unicode hex="0047"/>
  <anchor x="376.66265060240966" y="0.0" name="bottom"/>
  <anchor x="476.50602409638554" y="705.0" name="top"/>
  <outline>
    <contour>
      <point x="385.50602409638554" y="-9.421686746987952" type="curve" smooth="yes"/>
      <point x="466.06024096385545" y="-9.421686746987952"/>
      <point x="564.4819277108434" y="10.867469879518072"/>
      <point x="627.3012048192771" y="44.71084337349397" type="curve"/>
      <point x="680.1445783132531" y="374.7710843373494" type="line"/>
      <point x="419.13253012048193" y="374.7710843373494" type="line"/>
      <point x="406.44578313253015" y="296.67469879518075" type="line"/>
      <point x="579.1204819277108" y="296.67469879518075" type="line"/>
      <point x="542.9397590361446" y="65.72289156626506" type="line"/>
      <point x="575.156626506024" y="116.09638554216866" type="line"/>
      <point x="516.1325301204819" y="92.49397590361446"/>
      <point x="459.7951807228916" y="80.62650602409639"/>
      <point x="394.45783132530124" y="80.62650602409639" type="curve" smooth="yes"/>
      <point x="219.33734939759037" y="80.62650602409639"/>
      <point x="156.71084337349396" y="182.56626506024097"/>
      <point x="184.44578313253012" y="354.13253012048193" type="curve" smooth="yes"/>
      <point x="210.75903614457832" y="525.144578313253"/>
      <point x="312.4096385542169" y="622.9518072289156"/>
      <point x="473.3493975903615" y="622.9518072289156" type="curve" smooth="yes"/>
      <point x="558.5301204819277" y="622.9518072289156"/>
      <point x="605.5542168674698" y="604.6385542168675"/>
      <point x="660.2650602409639" y="559.3012048192771" type="curve"/>
      <point x="700.6144578313252" y="641.7951807228916" type="line"/>
      <point x="650.3253012048193" y="686.9759036144578"/>
      <point x="581.0602409638554" y="714.4216867469879"/>
      <point x="477.7710843373494" y="714.4216867469879" type="curve" smooth="yes"/>
      <point x="261.55421686746985" y="714.4216867469879"/>
      <point x="111.75903614457832" y="588.132530120482"/>
      <point x="76.75903614457832" y="365.13253012048193" type="curve" smooth="yes"/>
      <point x="40.75903614457832" y="138.26506024096386"/>
      <point x="137.86746987951807" y="-9.421686746987952"/>
    </contour>
  </outline>
</glyph>
<glyph name="H" format="2">
  <advance width="769.6626506024096"/>
  <unicode hex="0048"/>
  <anchor x="345.6867469879518" y="0.0" name="bottom"/>
  <anchor x="433.10843373493975" y="556.6626506024096" name="center"/>
  <anchor x="457.6867469879518" y="705.0" name="top"/>
  <anchor x="94.1566265060241" y="705.0" name="topleft"/>
  <outline>
    <contour>
      <point x="43.493975903614455" y="0.0" type="line"/>
      <point x="147.33734939759034" y="0.0" type="line"/>
      <point x="197.07228915662648" y="313.8313253012048" type="line"/>
      <point x="592.7710843373494" y="313.8313253012048" type="line"/>
      <point x="543.0361445783133" y="0.0" type="line"/>
      <point x="646.8795180722891" y="0.0" type="line"/>
      <point x="758.8795180722891" y="705.0" type="line"/>
      <point x="655.0361445783133" y="705.0" type="line"/>
      <point x="606.5903614457832" y="401.1686746987952" type="line"/>
      <point x="210.89156626506022" y="401.1686746987952" type="line"/>
      <point x="259.33734939759034" y="705.0" type="line"/>
      <point x="155.49397590361446" y="705.0" type="line"/>
    </contour>
  </outline>
</glyph>
<glyph name="I" format="2">
  <advance width="270.12048192771084"/>
  <unicode hex="0049"/>
  <anchor x="95.06024096385542" y="0.0" name="bottom"/>
  <anchor x="127.43373493975903" y="0.0" name="ogonek"/>
  <anchor x="207.06024096385542" y="705.0" name="top"/>
  <anchor x="95.1566265060241" y="705.0" name="topleft"/>
  <outline>
    <contour>
      <point x="43.493975903614455" y="0.0" type="line"/>
      <point x="147.33734939759034" y="0.0" type="line"/>
      <point x="259.33734939759034" y="705.0" type="line"/>
      <point x="155.49397590361446" y="705.0" type="line"/>
    </contour>
  </outline>
</glyph>
<glyph name="J" format="2">
  <advance width="343.7168674698795"/>
  <unicode hex="004A"/>
  <anchor x="169.43373493975903" y="0.0" name="bottom"/>
  <anchor x="281.433734939759" y="705.0" name="top"/>
  <outline>
    <contour>
      <point x="14.506024096385541" y="-186.710843373494" type="curve" smooth="yes"/>
      <point x="138.04819277108433" y="-186.710843373494"/>
      <point x="200.57831325301203" y="-125.57831325301206"/>
      <point x="221.55421686746985" y="5.987951807228917" type="curve" smooth="yes"/>
      <point x="332.578313253012" y="705.0" type="line"/>
      <point x="228.73493975903614" y="705.0" type="line"/>
      <point x="119.13253012048192" y="13.674698795180717" type="line" smooth="yes"/>
      <point x="106.84337349397589" y="-67.34939759036145"/>
      <point x="71.95180722891567" y="-102.50602409638554"/>
      <point x="10.951807228915662" y="-102.50602409638554" type="curve" smooth="yes"/>
      <point x="-6.626506024096383" y="-102.50602409638554"/>
      <point x="-29.46987951807229" y="-100.21686746987952"/>
      <point x="-54.18072289156626" y="-91.21686746987952" type="curve"/>
      <point x="-67.28915662650603" y="-175.0" type="line"/>
      <point x="-38.31325301204819" y="-184.710843373494"/>
      <point x="-7.91566265060241" y="-186.710843373494"/>
    </contour>
  </outline>
</glyph>
<glyph name="K" format="2">
  <advance width="648.0060240963855"/>
  <unicode hex="004B"/>
  <anchor x="290.32530120481925" y="0.0" name="bottom"/>
  <anchor x="402.03614457831327" y="705.0" name="top"/>
  <anchor x="94.1566265060241" y="705.0" name="topleft"/>
  <outline>
    <contour>
      <point x="43.493975903614455" y="0.0" type="line"/>
      <point x="147.33734939759034" y="0.0" type="line"/>
      <point x="199.9156626506024" y="329.4698795180723" type="line"/>
      <point x="201.9156626506024" y="329.4698795180723" type="line"/>
      <point x="500.13253012048193" y="0.0" type="line"/>
      <point x="627.9518072289156" y="0.0" type="line"/>
      <point x="279.65060240963857" y="387.9277108433735" type="line"/>
      <point x="282.49397590361446" y="339.4457831325301" type="line"/>
      <point x="713.9277108433735" y="705.0" type="line"/>
      <point x="580.6867469879518" y="705.0" type="line"/>
      <point x="210.7590361445783" y="388.3734939759036" type="line"/>
      <point x="208.7590361445783" y="388.3734939759036" type="line"/>
      <point x="259.33734939759034" y="705.0" type="line"/>
      <point x="155.49397590361446" y="705.0" type="line"/>
    </contour>
  </outline>
</glyph>
<glyph name="L" format="2">
  <advance width="551.9036144578313"/>
  <unicode hex="004C"/>
  <anchor x="270.10843373493975" y="0.0" name="bottom"/>
  <anchor x="202.7710843373494" y="387.0" name="center"/>
  <anchor x="438.4096385542169" y="391.6867469879518" name="dot"/>
  <anchor x="207.06024096385542" y="705.0" name="top"/>
  <anchor x="367.8072289156627" y="705.0" name="topright"/>
  <outline>
    <contour>
      <point x="43.493975903614455" y="0.0" type="line"/>
      <point x="492.6385542168674" y="0.0" type="line"/>
      <point x="506.45783132530113" y="88.75903614457832" type="line"/>
      <point x="161.15662650602408" y="88.75903614457832" type="line"/>
      <point x="259.33734939759034" y="705.0" type="line"/>
      <point x="155.49397590361446" y="705.0" type="line"/>
    </contour>
  </outline>
</glyph>
<glyph name="M" format="2">
  <advance width="863.6385542168674"/>
  <unicode hex="004D"/>
  <anchor x="391.8192771084337" y="0.0" name="bottom"/>
  <anchor x="503.8192771084337" y="705.0" name="top"/>
  <outline>
    <contour>
      <point x="44.20481927710844" y="0.0" type="line"/>
      <point x="138.65060240963857" y="0.0" type="line"/>
      <point x="228.0120481927711" y="564.0602409638554" type="line"/>
      <point x="195.34939759036146" y="564.0602409638554" type="line"/>
      <point x="361.46987951807233" y="0.0" type="line"/>
      <point x="424.03614457831327" y="0.0" type="line"/>
      <point x="768.4578313253012" y="563.7710843373494" type="line"/>
      <point x="734.3493975903615" y="563.7710843373494" type="line"/>
      <point x="644.9879518072289" y="0.0" type="line"/>
      <point x="739.433734939759" y="0.0" type="line"/>
      <point x="851.433734939759" y="705.0" type="line"/>
      <point x="761.4096385542168" y="705.0" type="line"/>
      <point x="391.48192771084337" y="91.63855421686746" type="line"/>
      <point x="421.6144578313253" y="91.63855421686746" type="line"/>
      <point x="247.2289156626506" y="705.0" type="line"/>
      <point x="156.20481927710844" y="705.0" type="line"/>
    </contour>
  </outline>
</glyph>
<glyph name="N" format="2">
  <advance width="750.3734939759036"/>
  <unicode hex="004E"/>
  <anchor x="337.8192771084337" y="0.0" name="bottom"/>
  <anchor x="449.10843373493975" y="705.0" name="top"/>
  <outline>
    <contour>
      <point x="43.493975903614455" y="0.0" type="line"/>
      <point x="140.0722891566265" y="0.0" type="line"/>
      <point x="230.14457831325302" y="567.7469879518072" type="line"/>
      <point x="209.4578313253012" y="572.722891566265" type="line"/>
      <point x="548.5180722891566" y="0.0" type="line"/>
      <point x="627.5903614457832" y="0.0" type="line"/>
      <point x="739.5903614457832" y="705.0" type="line"/>
      <point x="643.0120481927711" y="705.0" type="line"/>
      <point x="552.9397590361446" y="137.25301204819277" type="line"/>
      <point x="573.9156626506025" y="132.27710843373495" type="line"/>
      <point x="234.85542168674698" y="705.0" type="line"/>
      <point x="155.49397590361446" y="705.0" type="line"/>
    </contour>
  </outline>
</glyph>
<glyph name="O" format="2">
  <advance width="778.5481927710844"/>
  <unicode hex="004F"/>
  <anchor x="347.95180722891564" y="-9.421686746987952" name="Qtail"/>
  <anchor x="348.95180722891564" y="0.0" name="bottom"/>
  <anchor x="409.50602409638554" y="353.0" name="center"/>
  <anchor x="413.06024096385545" y="0.0" name="ogonek"/>
  <anchor x="460.95180722891564" y="705.0" name="top"/>
  <anchor x="97.0" y="705.0" name="topleft"/>
  <anchor x="530.2409638554217" y="705.0" name="topright"/>
  <outline>
    <contour>
      <point x="358.6385542168674" y="-9.421686746987952" type="curve" smooth="yes"/>
      <point x="559.0361445783133" y="-9.421686746987952"/>
      <point x="699.144578313253" y="117.57831325301206"/>
      <point x="733.433734939759" y="339.1566265060241" type="curve" smooth="yes"/>
      <point x="768.433734939759" y="559.7349397590361"/>
      <point x="667.3253012048193" y="714.4216867469879"/>
      <point x="451.26506024096386" y="714.4216867469879" type="curve" smooth="yes"/>
      <point x="251.1566265060241" y="714.4216867469879"/>
      <point x="111.75903614457832" y="588.132530120482"/>
      <point x="76.75903614457832" y="366.5542168674699" type="curve" smooth="yes"/>
      <point x="42.46987951807229" y="145.3975903614458"/>
      <point x="143.57831325301206" y="-9.421686746987952"/>
    </contour>
    <contour>
      <point x="366.6144578313253" y="80.62650602409639" type="curve" smooth="yes"/>
      <point x="224.2048192771084" y="80.62650602409639"/>
      <point x="156.71084337349396" y="184.43373493975903"/>
      <point x="184.44578313253012" y="356.5542168674699" type="curve" smooth="yes"/>
      <point x="211.75903614457832" y="525.144578313253"/>
      <point x="299.0120481927711" y="624.3734939759036"/>
      <point x="442.86746987951807" y="624.3734939759036" type="curve" smooth="yes"/>
      <point x="585.9879518072289" y="624.3734939759036"/>
      <point x="653.1927710843373" y="520.277108433735"/>
      <point x="626.4578313253012" y="349.1566265060241" type="curve" smooth="yes"/>
      <point x="600.144578313253" y="181.27710843373495"/>
      <point x="510.46987951807233" y="80.62650602409639"/>
    </contour>
  </outline>
</glyph>
<glyph name="P" format="2">
  <advance width="657.9036144578313"/>
  <unicode hex="0050"/>
  <anchor x="285.3734939759036" y="0.0" name="bottom"/>
  <anchor x="396.66265060240966" y="705.0" name="top"/>
  <outline>
    <contour>
      <point x="43.493975903614455" y="0.0" type="line"/>
      <point x="147.33734939759034" y="0.0" type="line"/>
      <point x="193.78313253012047" y="293.5421686746988" type="line"/>
      <point x="394.9277108433735" y="293.5421686746988" type="line" smooth="yes"/>
      <point x="542.566265060241" y="293.5421686746988"/>
      <point x="634.1445783132531" y="365.49397590361446"/>
      <point x="653.1445783132531" y="486.7831325301205" type="curve" smooth="yes"/>
      <point x="674.855421686747" y="621.4698795180723"/>
      <point x="601.0120481927711" y="705.0"/>
      <point x="444.06024096385545" y="705.0" type="curve" smooth="yes"/>
      <point x="155.49397590361446" y="705.0" type="line"/>
    </contour>
    <contour>
      <point x="206.89156626506022" y="377.32530120481925" type="line"/>
      <point x="245.2289156626506" y="621.9277108433735" type="line"/>
      <point x="427.55421686746985" y="621.9277108433735" type="line" smooth="yes"/>
      <point x="523.5180722891566" y="621.9277108433735"/>
      <point x="565.722891566265" y="577.3012048192771"/>
      <point x="552.277108433735" y="494.33734939759034" type="curve" smooth="yes"/>
      <point x="539.8313253012047" y="416.3734939759036"/>
      <point x="485.89156626506025" y="377.32530120481925"/>
      <point x="390.34939759036143" y="377.32530120481925" type="curve" smooth="yes"/>
    </contour>
  </outline>
</glyph>
<glyph name="R" format="2">
  <advance width="696.7951807228916"/>
  <unicode hex="0052"/>
  <anchor x="310.0843373493976" y="0.0" name="bottom"/>
  <anchor x="421.3734939759036" y="705.0" name="top"/>
  <outline>
    <contour>
      <point x="43.493975903614455" y="0.0" type="line"/>
      <point x="147.33734939759034" y="0.0" type="line"/>
      <point x="194.07228915662648" y="296.4096385542169" type="line"/>
      <point x="322.07228915662654" y="296.4096385542169" type="line" smooth="yes"/>
      <point x="383.1686746987952" y="296.4096385542169"/>
      <point x="422.1927710843374" y="284.5421686746988"/>
      <point x="437.92771084337346" y="231.02409638554218" type="curve" smooth="yes"/>
      <point x="510.7469879518073" y="0.0" type="line"/>
      <point x="619.722891566265" y="0.0" type="line"/>
      <point x="545.8795180722891" y="229.96385542168676" type="line" smooth="yes"/>
      <point x="525.7469879518072" y="290.12048192771084"/>
      <point x="488.03614457831327" y="317.8072289156627"/>
      <point x="432.90361445783134" y="317.8072289156627" type="curve" smooth="yes"/>
      <point x="408.5542168674699" y="317.8072289156627" type="line"/>
      <point x="402.68674698795184" y="301.9879518072289" type="line"/>
      <point x="535.9036144578313" y="301.9879518072289"/>
      <point x="637.4578313253012" y="372.51807228915663"/>
      <point x="656.1686746987953" y="491.9156626506024" type="curve" smooth="yes"/>
      <point x="677.5903614457832" y="627.4457831325301"/>
      <point x="603.0361445783133" y="705.0"/>
      <point x="442.5301204819277" y="705.0" type="curve" smooth="yes"/>
      <point x="155.49397590361446" y="705.0" type="line"/>
    </contour>
    <contour>
      <point x="206.46987951807228" y="375.2168674698795" type="line"/>
      <point x="245.2289156626506" y="621.9277108433735" type="line"/>
      <point x="423.0240963855422" y="621.9277108433735" type="line" smooth="yes"/>
      <point x="521.698795180723" y="621.9277108433735"/>
      <point x="567.7469879518072" y="579.3012048192771"/>
      <point x="554.5903614457831" y="494.78313253012044" type="curve" smooth="yes"/>
      <point x="542.433734939759" y="418.5542168674699"/>
      <point x="486.65060240963857" y="375.2168674698795"/>
      <point x="392.13253012048193" y="375.2168674698795" type="curve" smooth="yes"/>
    </contour>
  </outline>
</glyph>
<glyph name="S" format="2">
  <advance width="632.789156626506"/>
  <unicode hex="0053"/>
  <anchor x="286.8192771084337" y="0.0" name="bottom"/>
  <anchor x="397.7951807228916" y="705.0" name="top"/>
  <outline>
    <contour>
      <point x="287.8192771084337" y="-9.421686746987952" type="curve" smooth="yes"/>
      <point x="451.0120481927711" y="-9.421686746987952"/>
      <point x="558.4096385542168" y="72.26506024096386"/>
      <point x="576.5421686746988" y="184.63855421686748" type="curve" smooth="yes"/>
      <point x="593.5421686746988" y="295.48192771084337"/>
      <point x="537.277108433735" y="361.87951807228916"/>
      <point x="407.54216867469876" y="381.3012048192771" type="curve" smooth="yes"/>
      <point x="308.45783132530124" y="396.144578313253" type="line" smooth="yes"/>
      <point x="220.91566265060243" y="409.0120481927711"/>
      <point x="192.86746987951807" y="448.3493975903615"/>
      <point x="203.3132530120482" y="509.89156626506025" type="curve" smooth="yes"/>
      <point x="214.75903614457832" y="580.8554216867469"/>
      <point x="282.27710843373495" y="625.7951807228916"/>
      <point x="386.3734939759036" y="625.7951807228916" type="curve" smooth="yes"/>
      <point x="471.1084337349398" y="625.7951807228916"/>
      <point x="533.8192771084337" y="602.2168674698795"/>
      <point x="585.5542168674699" y="561.7469879518072" type="curve"/>
      <point x="623.9036144578313" y="642.5301204819277" type="line"/>
      <point x="574.9036144578313" y="685.3975903614457"/>
      <point x="492.2168674698795" y="714.4216867469879"/>
      <point x="396.7710843373494" y="714.4216867469879" type="curve" smooth="yes"/>
      <point x="231.26506024096386" y="714.4216867469879"/>
      <point x="119.73493975903614" y="632.710843373494"/>
      <point x="100.6024096385542" y="510.6265060240964" type="curve" smooth="yes"/>
      <point x="82.89156626506023" y="400.3614457831325"/>
      <point x="142.0" y="327.2289156626506"/>
      <point x="270.6024096385542" y="307.51807228915663" type="curve" smooth="yes"/>
      <point x="369.3975903614458" y="291.9638554216868" type="line" smooth="yes"/>
      <point x="455.51807228915663" y="279.8072289156626"/>
      <point x="482.56626506024094" y="244.46987951807228"/>
      <point x="473.12048192771084" y="186.0843373493976" type="curve" smooth="yes"/>
      <point x="463.6746987951807" y="122.6987951807229"/>
      <point x="405.86746987951807" y="79.20481927710843"/>
      <point x="294.9277108433735" y="79.20481927710843" type="curve" smooth="yes"/>
      <point x="198.4578313253012" y="79.20481927710843"/>
      <point x="128.50602409638554" y="104.9156626506024"/>
      <point x="65.34939759036145" y="144.2289156626506" type="curve"/>
      <point x="26.421686746987948" y="62.02409638554217" type="line"/>
      <point x="85.55421686746988" y="20.44578313253012"/>
      <point x="177.08433734939757" y="-9.421686746987952"/>
    </contour>
  </outline>
</glyph>
<glyph name="T" format="2">
  <advance width="610.6144578313254"/>
  <unicode hex="0054"/>
  <anchor x="265.66265060240966" y="0.0" name="bottom"/>
  <anchor x="322.66265060240966" y="358.0" name="center"/>
  <anchor x="377.66265060240966" y="705.0" name="top"/>
  <outline>
    <contour>
      <point x="212.09638554216866" y="0.0" type="line"/>
      <point x="315.93975903614455" y="0.0" type="line"/>
      <point x="413.8313253012048" y="618.3734939759036" type="line"/>
      <point x="655.2168674698795" y="618.3734939759036" type="line"/>
      <point x="669.3253012048193" y="705.0" type="line"/>
      <point x="82.71084337349397" y="705.0" type="line"/>
      <point x="68.6024096385542" y="618.3734939759036" type="line"/>
      <point x="309.9879518072289" y="618.3734939759036" type="line"/>
    </contour>
  </outline>
</glyph>
<glyph name="U" format="2">
  <advance width="734.7951807228916"/>
  <unicode hex="0055"/>
  <anchor x="328.8192771084337" y="0.0" name="bottom"/>
  <anchor x="411.7469879518072" y="0.0" name="ogonek"/>
  <anchor x="440.8192771084337" y="705.0" name="top"/>
  <anchor x="660.8915662650602" y="705.0" name="topright"/>
  <outline>
    <contour>
      <point x="336.53012048192767" y="-9.421686746987952" type="curve" smooth="yes"/>
      <point x="523.8554216867469" y="-9.421686746987952"/>
      <point x="629.722891566265" y="81.10843373493977"/>
      <point x="661.433734939759" y="279.95180722891564" type="curve" smooth="yes"/>
      <point x="729.0120481927711" y="705.0" type="line"/>
      <point x="626.5903614457832" y="705.0" type="line"/>
      <point x="560.0120481927711" y="285.95180722891564" type="line" smooth="yes"/>
      <point x="536.9879518072289" y="140.51807228915663"/>
      <point x="466.18072289156623" y="80.62650602409639"/>
      <point x="346.6385542168674" y="80.62650602409639" type="curve" smooth="yes"/>
      <point x="210.7831325301205" y="80.62650602409639"/>
      <point x="166.73493975903614" y="149.25301204819277"/>
      <point x="188.46987951807228" y="284.53012048192767" type="curve" smooth="yes"/>
      <point x="255.04819277108433" y="705.0" type="line"/>
      <point x="151.20481927710844" y="705.0" type="line"/>
      <point x="84.33734939759037" y="286.34939759036143" type="line" smooth="yes"/>
      <point x="53.20481927710844" y="88.71084337349399"/>
      <point x="150.42168674698797" y="-9.421686746987952"/>
    </contour>
  </outline>
</glyph>
<glyph name="V" format="2">
  <advance width="708.277108433735"/>
  <unicode hex="0056"/>
  <anchor x="316.7710843373494" y="0.0" name="bottom"/>
  <anchor x="428.7710843373494" y="705.0" name="top"/>
  <outline>
    <contour>
      <point x="268.3132530120482" y="0.0" type="line"/>
      <point x="359.09638554216866" y="0.0" type="line"/>
      <point x="782.4939759036145" y="705.0" type="line"/>
      <point x="670.0963855421687" y="705.0" type="line"/>
      <point x="308.48192771084337" y="87.26506024096385" type="line"/>
      <point x="343.4096385542169" y="87.26506024096385" type="line"/>
      <point x="177.18072289156626" y="705.0" type="line"/>
      <point x="70.49397590361446" y="705.0" type="line"/>
    </contour>
  </outline>
</glyph>
<glyph name="W" format="2">
  <advance width="1115.7289156626507"/>
  <unicode hex="0057"/>
  <anchor x="518.3975903614457" y="0.0" name="bottom"/>
  <anchor x="630.3975903614457" y="705.0" name="top"/>
  <outline>
    <contour>
      <point x="237.1807228915663" y="0.0" type="line"/>
      <point x="325.3855421686747" y="0.0" type="line"/>
      <point x="622.4698795180723" y="579.5903614457832" type="line"/>
      <point x="601.7590361445783" y="579.5903614457832" type="line"/>
      <point x="707.8313253012049" y="0.0" type="line"/>
      <point x="796.6144578313254" y="0.0" type="line"/>
      <point x="1158.1686746987953" y="705.0" type="line"/>
      <point x="1051.7469879518073" y="705.0" type="line"/>
      <point x="742.8433734939758" y="95.7710843373494" type="line"/>
      <point x="776.9518072289156" y="95.7710843373494" type="line"/>
      <point x="670.0120481927711" y="705.0" type="line"/>
      <point x="590.4939759036145" y="705.0" type="line"/>
      <point x="276.1686746987952" y="95.7710843373494" type="line"/>
      <point x="313.27710843373495" y="95.7710843373494" type="line"/>
      <point x="205.75903614457832" y="705.0" type="line"/>
      <point x="101.91566265060241" y="705.0" type="line"/>
    </contour>
  </outline>
</glyph>
<glyph name="X" format="2">
  <advance width="660.5240963855422"/>
  <unicode hex="0058"/>
  <anchor x="290.7951807228916" y="0.0" name="bottom"/>
  <anchor x="402.7951807228916" y="705.0" name="top"/>
  <outline>
    <contour>
      <point x="-41.4578313253012" y="0.0" type="line"/>
      <point x="86.04819277108433" y="0.0" type="line"/>
      <point x="360.6385542168675" y="307.87951807228916" type="line"/>
      <point x="322.28915662650604" y="307.87951807228916" type="line"/>
      <point x="498.5421686746988" y="0.0" type="line"/>
      <point x="616.9156626506025" y="0.0" type="line"/>
      <point x="391.2530120481928" y="380.50602409638554" type="line"/>
      <point x="390.69879518072287" y="338.51807228915663" type="line"/>
      <point x="722.8915662650602" y="705.0" type="line"/>
      <point x="594.6746987951807" y="705.0" type="line"/>
      <point x="337.26506024096386" y="413.30120481927713" type="line"/>
      <point x="369.87951807228916" y="413.30120481927713" type="line"/>
      <point x="204.0722891566265" y="705.0" type="line"/>
      <point x="86.40963855421687" y="705.0" type="line"/>
      <point x="302.49397590361446" y="338.51807228915663" type="line"/>
      <point x="304.04819277108436" y="380.50602409638554" type="line"/>
    </contour>
  </outline>
</glyph>
<glyph name="Y" format="2">
  <advance width="616.855421686747"/>
  <unicode hex="0059"/>
  <anchor x="269.6385542168675" y="0.0" name="bottom"/>
  <anchor x="380.9277108433735" y="705.0" name="top"/>
  <anchor x="89.57831325301206" y="705.0" name="topleft"/>
  <outline>
    <contour>
      <point x="216.36144578313252" y="0.0" type="line"/>
      <point x="320.2048192771084" y="0.0" type="line"/>
      <point x="372.91566265060237" y="330.9759036144578" type="line"/>
      <point x="340.56626506024094" y="261.69879518072287" type="line"/>
      <point x="707.0481927710844" y="705.0" type="line"/>
      <point x="586.6746987951808" y="705.0" type="line"/>
      <point x="312.34939759036143" y="368.2289156626506" type="line"/>
      <point x="336.5903614457831" y="368.2289156626506" type="line"/>
      <point x="169.4698795180723" y="705.0" type="line"/>
      <point x="54.51807228915662" y="705.0" type="line"/>
      <point x="280.4698795180723" y="265.2530120481928" type="line"/>
      <point x="269.0722891566265" y="330.9759036144578" type="line"/>
    </contour>
  </outline>
</glyph>
<glyph name="Z" format="2">
  <advance width="601.3493975903615"/>
  <unicode hex="005A"/>
  <anchor x="266.0843373493976" y="0.0" name="bottom"/>
  <anchor x="378.0843373493976" y="705.0" name="top"/>
  <outline>
    <contour>
      <point x="4.132530120481931" y="0.0" type="line"/>
      <point x="527.3253012048193" y="0.0" type="line"/>
      <point x="541.1445783132531" y="87.33734939759036" type="line"/>
      <point x="121.37349397590361" y="87.33734939759036" type="line"/>
      <point x="116.24096385542168" y="52.25301204819277" type="line"/>
      <point x="615.0843373493975" y="629.2168674698795" type="line"/>
      <point x="627.1927710843373" y="705.0" type="line"/>
      <point x="116.13253012048193" y="705.0" type="line"/>
      <point x="102.02409638554218" y="617.6626506024096" type="line"/>
      <point x="508.6626506024096" y="617.6626506024096" type="line"/>
      <point x="514.0843373493975" y="653.4578313253012" type="line"/>
      <point x="16.24096385542169" y="76.49397590361446" type="line"/>
    </contour>
  </outline>
</glyph>
<glyph name="backslash" format="2">
  <advance width="299.16265060240966"/>
  <unicode hex="005C"/>
  <outline>
    <contour>
      <point x="194.13253012048193" y="-56.975903614457835" type="line"/>
      <point x="277.49397590361446" y="-56.975903614457835" type="line"/>
      <point x="138.2289156626506" y="749.6867469879518" type="line"/>
      <point x="54.86746987951807" y="749.6867469879518" type="line"/>
    </contour>
  </outline>
</glyph>
<glyph name="bracketright" format="2">
  <advance width="333.7590361445783"/>
  <unicode hex="005D"/>
  <outline>
    <contour>
      <point x="-57.60240963855422" y="-180.0" type="line"/>
      <point x="160.44578313253012" y="-180.0" type="line"/>
      <point x="300.44578313253015" y="705.0" type="line"/>
      <point x="82.39759036144578" y="705.0" type="line"/>
      <point x="70.0" y="627.4819277108434" type="line"/>
      <point x="188.4698795180723" y="627.4819277108434" type="line"/>
      <point x="73.26506024096386" y="-102.48192771084338" type="line"/>
      <point x="-46.204819277108435" y="-102.48192771084338" type="line"/>
    </contour>
  </outline>
</glyph>
<glyph name="asciicircum" format="2">
  <advance width="600.0"/>
  <unicode hex="005E"/>
  <outline>
    <contour>
      <point x="26.86746987951807" y="140.0" type="line"/>
      <point x="110.96385542168674" y="140.0" type="line"/>
      <point x="382.2168674698795" y="592.6024096385543" type="line"/>
      <point x="332.49397590361446" y="592.6024096385543" type="line"/>
      <point x="460.4578313253012" y="140.0" type="line"/>
      <point x="537.1325301204819" y="140.0" type="line"/>
      <point x="397.6144578313253" y="628.0" type="line"/>
      <point x="320.3855421686747" y="628.0" type="line"/>
    </contour>
  </outline>
</glyph>
<glyph name="underscore" format="2">
  <advance width="505.0"/>
  <unicode hex="005F"/>
  <outline>
    <contour>
      <point x="-40.28915662650603" y="-62.855421686746986" type="line"/>
      <point x="445.3373493975904" y="-62.855421686746986" type="line"/>
      <point x="455.3132530120482" y="0.0" type="line"/>
      <point x="-30.313253012048193" y="0.0" type="line"/>
    </contour>
  </outline>
</glyph>
<glyph name="a" format="2">
  <advance width="609.3012048192771"/>
  <unicode hex="0061"/>
  <anchor x="257.0843373493976" y="0.0" name="bottom"/>
  <anchor x="289.9277108433735" y="253.710843373494" name="center"/>
  <anchor x="480.5903614457832" y="0.0" name="ogonek"/>
  <anchor x="336.2168674698795" y="484.0" name="top"/>
  <outline>
    <contour>
      <point x="235.73493975903614" y="-9.421686746987952" type="curve" smooth="yes"/>
      <point x="327.6265060240964" y="-9.421686746987952"/>
      <point x="394.6506024096385" y="37.60240963855422"/>
      <point x="428.8072289156626" y="113.93975903614458" type="curve"/>
      <point x="413.3855421686747" y="113.93975903614458" type="line"/>
      <point x="395.2289156626506" y="0.0" type="line"/>
      <point x="495.51807228915663" y="0.0" type="line"/>
      <point x="556.0963855421687" y="382.7590361445783" type="line" smooth="yes"/>
      <point x="562.5180722891566" y="421.73493975903614"/>
      <point x="572.5180722891566" y="463.0"/>
      <point x="583.2289156626506" y="503.5542168674699" type="curve"/>
      <point x="486.0722891566265" y="503.5542168674699" type="line"/>
      <point x="457.20481927710847" y="390.32530120481925" type="line"/>
      <point x="467.78313253012044" y="392.4578313253012" type="line"/>
      <point x="455.20481927710847" y="466.6626506024096"/>
      <point x="391.2048192771084" y="512.9759036144578"/>
      <point x="304.6024096385542" y="512.9759036144578" type="curve" smooth="yes"/>
      <point x="173.6024096385542" y="512.9759036144578"/>
      <point x="73.18072289156626" y="427.81927710843377"/>
      <point x="46.46987951807229" y="265.68674698795184" type="curve" smooth="yes"/>
      <point x="19.18072289156627" y="95.10843373493975"/>
      <point x="96.73493975903615" y="-9.421686746987952"/>
    </contour>
    <contour>
      <point x="266.03614457831327" y="70.09638554216868" type="curve" smooth="yes"/>
      <point x="175.0722891566265" y="70.09638554216868"/>
      <point x="127.3132530120482" y="131.74698795180723"/>
      <point x="147.4698795180723" y="255.6867469879518" type="curve" smooth="yes"/>
      <point x="165.91566265060243" y="372.51807228915663"/>
      <point x="230.56626506024094" y="433.4578313253012"/>
      <point x="316.95180722891564" y="433.4578313253012" type="curve" smooth="yes"/>
      <point x="406.9156626506024" y="433.4578313253012"/>
      <point x="455.96385542168673" y="372.51807228915663"/>
      <point x="436.8072289156626" y="248.57831325301206" type="curve" smooth="yes"/>
      <point x="417.3614457831325" y="131.03614457831324"/>
      <point x="351.421686746988" y="70.09638554216868"/>
    </contour>
  </outline>
</glyph>
<glyph name="c" format="2">
  <advance width="498.7289156626506"/>
  <unicode hex="0063"/>
  <anchor x="249.53012048192772" y="0.0" name="bottom"/>
  <anchor x="326.5301204819277" y="484.0" name="top"/>
  <outline>
    <contour>
      <point x="264.48192771084337" y="-9.421686746987952" type="curve" smooth="yes"/>
      <point x="331.5903614457831" y="-9.421686746987952"/>
      <point x="405.87951807228916" y="14.867469879518072"/>
      <point x="447.45783132530124" y="53.18072289156626" type="curve"/>
      <point x="415.79518072289153" y="123.855421686747" type="line"/>
      <point x="373.7710843373494" y="87.3855421686747"/>
      <point x="322.4578313253012" y="71.51807228915662"/>
      <point x="278.9879518072289" y="71.51807228915662" type="curve" smooth="yes"/>
      <point x="180.49397590361446" y="71.51807228915662"/>
      <point x="130.15662650602408" y="140.9879518072289"/>
      <point x="148.89156626506025" y="257.26506024096386" type="curve" smooth="yes"/>
      <point x="167.33734939759034" y="372.51807228915663"/>
      <point x="236.25301204819277" y="432.7469879518072"/>
      <point x="329.6385542168675" y="432.7469879518072" type="curve" smooth="yes"/>
      <point x="370.7951807228916" y="432.7469879518072"/>
      <point x="417.3734939759036" y="418.1686746987952"/>
      <point x="451.39759036144574" y="386.27710843373495" type="curve"/>
      <point x="487.1927710843374" y="455.3734939759036" type="line"/>
      <point x="451.48192771084337" y="493.10843373493975"/>
      <point x="388.79518072289153" y="512.9759036144578"/>
      <point x="326.2168674698795" y="512.9759036144578" type="curve" smooth="yes"/>
      <point x="179.42168674698797" y="512.9759036144578"/>
      <point x="72.46987951807229" y="427.10843373493975"/>
      <point x="46.46987951807229" y="265.6867469879518" type="curve" smooth="yes"/>
      <point x="19.18072289156627" y="95.81927710843374"/>
      <point x="106.28915662650601" y="-9.421686746987952"/>
    </contour>
  </outline>
</glyph>
<glyph name="d" format="2">
  <advance width="609.3012048192771"/>
  <unicode hex="0064"/>
  <anchor x="266.7951807228916" y="0.0" name="bottom"/>
  <anchor x="303.5301204819277" y="253.710843373494" name="center"/>
  <anchor x="489.66265060240966" y="608.2409638554217" name="stroke"/>
  <anchor x="372.50602409638554" y="676.4216867469879" name="top"/>
  <anchor x="658.277108433735" y="736.0" name="topright"/>
  <outline>
    <contour>
      <point x="235.73493975903614" y="-9.421686746987952" type="curve" smooth="yes"/>
      <point x="327.6265060240964" y="-9.421686746987952"/>
      <point x="394.6506024096385" y="37.60240963855422"/>
      <point x="428.8072289156627" y="113.93975903614458" type="curve"/>
      <point x="414.09638554216866" y="113.93975903614458" type="line"/>
      <point x="395.93975903614455" y="0.0" type="line"/>
      <point x="495.51807228915663" y="0.0" type="line"/>
      <point x="612.5180722891566" y="736.0" type="line"/>
      <point x="511.51807228915663" y="736.0" type="line"/>
      <point x="457.07228915662654" y="392.4578313253012" type="line"/>
      <point x="467.78313253012044" y="392.4578313253012" type="line"/>
      <point x="455.20481927710847" y="466.66265060240966"/>
      <point x="391.2048192771084" y="512.9759036144578"/>
      <point x="304.6024096385542" y="512.9759036144578" type="curve" smooth="yes"/>
      <point x="173.6024096385542" y="512.9759036144578"/>
      <point x="72.46987951807229" y="427.81927710843377"/>
      <point x="46.46987951807229" y="265.68674698795184" type="curve" smooth="yes"/>
      <point x="19.18072289156627" y="95.10843373493975"/>
      <point x="96.73493975903614" y="-9.421686746987952"/>
    </contour>
    <contour>
      <point x="266.03614457831327" y="70.09638554216868" type="curve" smooth="yes"/>
      <point x="175.07228915662648" y="70.09638554216868"/>
      <point x="127.3132530120482" y="131.74698795180723"/>
      <point x="147.4698795180723" y="255.6867469879518" type="curve" smooth="yes"/>
      <point x="165.91566265060243" y="372.51807228915663"/>
      <point x="230.56626506024094" y="433.4578313253012"/>
      <point x="316.9518072289157" y="433.4578313253012" type="curve" smooth="yes"/>
      <point x="406.9156626506024" y="433.4578313253012"/>
      <point x="455.96385542168673" y="372.51807228915663"/>
      <point x="436.8072289156626" y="248.57831325301206" type="curve" smooth="yes"/>
      <point x="417.3614457831325" y="131.03614457831324"/>
      <point x="351.4216867469879" y="70.09638554216868"/>
    </contour>
  </outline>
</glyph>
<glyph name="e" format="2">
  <advance width="545.9759036144578"/>
  <unicode hex="0065"/>
  <anchor x="251.3975903614458" y="0.0" name="bottom"/>
  <anchor x="336.7469879518072" y="0.0" name="ogonek"/>
  <anchor x="324.13253012048193" y="484.0" name="top"/>
  <outline>
    <contour>
      <point x="278.6385542168675" y="-9.421686746987952" type="curve" smooth="yes"/>
      <point x="353.06024096385545" y="-9.421686746987952"/>
      <point x="424.9277108433735" y="13.024096385542169"/>
      <point x="479.06024096385545" y="54.75903614457832" type="curve"/>
      <point x="447.10843373493975" y="124.01204819277109" type="line"/>
      <point x="399.2409638554217" y="85.25301204819277"/>
      <point x="345.1927710843373" y="70.09638554216868"/>
      <point x="290.30120481927713" y="70.09638554216868" type="curve" smooth="yes"/>
      <point x="174.67469879518072" y="70.09638554216868"/>
      <point x="125.33734939759037" y="134.30120481927713"/>
      <point x="141.49397590361448" y="248.710843373494" type="curve" smooth="yes"/>
      <point x="145.6265060240964" y="276.50602409638554" type="line" smooth="yes"/>
      <point x="158.7831325301205" y="370.6265060240964"/>
      <point x="215.0120481927711" y="440.855421686747"/>
      <point x="311.28915662650604" y="440.855421686747" type="curve" smooth="yes"/>
      <point x="399.9879518072289" y="440.855421686747"/>
      <point x="438.4578313253012" y="384.7831325301205"/>
      <point x="423.5903614457831" y="282.6867469879518" type="curve"/>
      <point x="442.0120481927711" y="297.81927710843377" type="line"/>
      <point x="131.78313253012047" y="297.81927710843377" type="line"/>
      <point x="122.93975903614458" y="239.9156626506024" type="line"/>
      <point x="502.0843373493976" y="239.9156626506024" type="line"/>
      <point x="506.79518072289153" y="270.4698795180723" type="line" smooth="yes"/>
      <point x="528.9277108433735" y="413.1566265060241"/>
      <point x="457.2409638554217" y="512.9759036144578"/>
      <point x="316.0" y="512.9759036144578" type="curve" smooth="yes"/>
      <point x="171.3132530120482" y="512.9759036144578"/>
      <point x="71.75903614457832" y="421.13253012048193"/>
      <point x="47.46987951807229" y="268.9759036144578" type="curve" smooth="yes"/>
      <point x="20.469879518072293" y="99.6867469879518"/>
      <point x="106.28915662650603" y="-9.421686746987952"/>
    </contour>
  </outline>
</glyph>
<glyph name="f" format="2">
  <advance width="351.16265060240966"/>
  <unicode hex="0066"/>
  <anchor x="114.59036144578312" y="0.0" name="bottom"/>
  <anchor x="220.59036144578312" y="670.0" name="top"/>
  <outline>
    <contour>
      <point x="63.73493975903614" y="0.0" type="line"/>
      <point x="164.73493975903614" y="0.0" type="line"/>
      <point x="232.04819277108433" y="426.3253012048193" type="line"/>
      <point x="368.38554216867465" y="426.3253012048193" type="line"/>
      <point x="380.78313253012044" y="503.5542168674699" type="line"/>
      <point x="228.6265060240964" y="503.5542168674699" type="line"/>
      <point x="241.02409638554218" y="483.86746987951807" type="line"/>
      <point x="251.1807228915663" y="551.8072289156627" type="line" smooth="yes"/>
      <point x="263.04819277108436" y="624.0120481927711"/>
      <point x="308.0240963855421" y="656.9277108433735"/>
      <point x="365.5180722891566" y="656.9277108433735" type="curve" smooth="yes"/>
      <point x="389.09638554216866" y="656.9277108433735"/>
      <point x="409.96385542168673" y="651.6385542168675"/>
      <point x="425.3855421686747" y="645.3493975903615" type="curve"/>
      <point x="438.49397590361446" y="726.5783132530121" type="line"/>
      <point x="418.8072289156626" y="734.710843373494"/>
      <point x="388.67469879518075" y="740.0"/>
      <point x="361.6987951807229" y="740.0" type="curve" smooth="yes"/>
      <point x="241.97590361445782" y="740.0"/>
      <point x="172.02409638554215" y="679.3132530120482"/>
      <point x="153.18072289156626" y="564.5421686746988" type="curve" smooth="yes"/>
      <point x="139.3132530120482" y="477.6265060240964" type="line"/>
      <point x="171.21686746987953" y="503.5542168674699" type="line"/>
      <point x="45.57831325301204" y="503.5542168674699" type="line"/>
      <point x="33.18072289156626" y="426.3253012048193" type="line"/>
      <point x="131.04819277108433" y="426.3253012048193" type="line"/>
    </contour>
  </outline>
</glyph>
<glyph name="g" format="2">
  <advance width="611.8795180722891"/>
  <unicode hex="0067"/>
  <anchor x="346.50602409638554" y="484.0" name="top"/>
  <outline>
    <contour>
      <point x="230.8192771084337" y="-223.710843373494" type="curve" smooth="yes"/>
      <point x="385.144578313253" y="-223.710843373494"/>
      <point x="476.5180722891567" y="-142.75903614457832"/>
      <point x="500.6506024096386" y="10.457831325301203" type="curve" smooth="yes"/>
      <point x="559.6746987951808" y="382.7590361445783" type="line" smooth="yes"/>
      <point x="565.3855421686748" y="421.73493975903614"/>
      <point x="575.3855421686746" y="463.0"/>
      <point x="586.8072289156627" y="503.5542168674699" type="curve"/>
      <point x="488.93975903614455" y="503.5542168674699" type="line"/>
      <point x="463.07228915662654" y="399.90361445783134" type="line"/>
      <point x="470.3614457831325" y="391.87951807228916" type="line"/>
      <point x="459.3614457831325" y="466.66265060240966"/>
      <point x="395.07228915662654" y="512.9759036144578"/>
      <point x="306.89156626506025" y="512.9759036144578" type="curve" smooth="yes"/>
      <point x="173.18072289156626" y="512.9759036144578"/>
      <point x="73.18072289156626" y="429.10843373493975"/>
      <point x="48.46987951807229" y="276.3975903614458" type="curve" smooth="yes"/>
      <point x="22.337349397590366" y="115.1566265060241"/>
      <point x="102.44578313253012" y="12.421686746987952"/>
      <point x="240.02409638554218" y="12.421686746987952" type="curve" smooth="yes"/>
      <point x="328.33734939759034" y="12.421686746987952"/>
      <point x="401.22891566265065" y="59.44578313253012"/>
      <point x="431.9638554216868" y="133.2289156626506" type="curve"/>
      <point x="420.67469879518075" y="133.2289156626506" type="line"/>
      <point x="399.3614457831325" y="-2.2289156626506035" type="line" smooth="yes"/>
      <point x="384.49397590361446" y="-94.01204819277109"/>
      <point x="330.44578313253015" y="-144.19277108433735"/>
      <point x="232.13253012048193" y="-144.19277108433735" type="curve" smooth="yes"/>
      <point x="161.53012048192772" y="-144.19277108433735"/>
      <point x="103.86746987951807" y="-126.48192771084338"/>
      <point x="50.8433734939759" y="-85.59036144578313" type="curve"/>
      <point x="18.89156626506024" y="-160.10843373493975" type="line"/>
      <point x="71.44578313253012" y="-202.8433734939759"/>
      <point x="142.57831325301206" y="-223.710843373494"/>
    </contour>
    <contour>
      <point x="268.7469879518072" y="91.22891566265059" type="curve" smooth="yes"/>
      <point x="179.0722891566265" y="91.22891566265059"/>
      <point x="131.02409638554218" y="153.59036144578312"/>
      <point x="148.4698795180723" y="263.55421686746985" type="curve" smooth="yes"/>
      <point x="165.91566265060243" y="372.09638554216866"/>
      <point x="230.85542168674698" y="433.4578313253012"/>
      <point x="320.5301204819277" y="433.4578313253012" type="curve" smooth="yes"/>
      <point x="409.9156626506024" y="433.4578313253012"/>
      <point x="457.2530120481928" y="372.09638554216866"/>
      <point x="439.8072289156627" y="261.4216867469879" type="curve" smooth="yes"/>
      <point x="423.07228915662654" y="153.59036144578312"/>
      <point x="358.13253012048193" y="91.22891566265059"/>
    </contour>
  </outline>
</glyph>
<glyph name="h" format="2">
  <advance width="593.1024096385543"/>
  <unicode hex="0068"/>
  <anchor x="258.0843373493976" y="0.0" name="bottom"/>
  <anchor x="298.79518072289153" y="255.13253012048193" name="center"/>
  <anchor x="297.3734939759036" y="364.28915662650604" name="dot"/>
  <anchor x="230.34939759036143" y="589.2409638554217" name="stroke"/>
  <anchor x="374.7951807228916" y="716.3734939759036" name="top"/>
  <anchor x="283.3855421686747" y="716.3734939759036" name="topright"/>
  <outline>
    <contour>
      <point x="33.78313253012048" y="0.0" type="line"/>
      <point x="134.7831325301205" y="0.0" type="line"/>
      <point x="180.7831325301205" y="287.86746987951807" type="line" smooth="yes"/>
      <point x="194.22891566265062" y="374.5421686746988"/>
      <point x="253.8795180722892" y="432.03614457831327"/>
      <point x="340.84337349397595" y="432.03614457831327" type="curve" smooth="yes"/>
      <point x="414.09638554216866" y="432.03614457831327"/>
      <point x="443.6987951807229" y="395.566265060241"/>
      <point x="429.2530120481928" y="303.0240963855422" type="curve" smooth="yes"/>
      <point x="381.67469879518075" y="0.0" type="line"/>
      <point x="482.6746987951807" y="0.0" type="line"/>
      <point x="530.2530120481928" y="303.6024096385542" type="line" smooth="yes"/>
      <point x="552.3855421686746" y="440.68674698795184"/>
      <point x="504.12048192771084" y="512.9759036144578"/>
      <point x="381.54216867469876" y="512.9759036144578" type="curve" smooth="yes"/>
      <point x="294.3614457831325" y="512.9759036144578"/>
      <point x="222.9156626506024" y="472.9518072289157"/>
      <point x="182.9156626506024" y="396.7710843373494" type="curve"/>
      <point x="197.6265060240964" y="396.7710843373494" type="line"/>
      <point x="251.7831325301205" y="736.0" type="line"/>
      <point x="150.7831325301205" y="736.0" type="line"/>
    </contour>
  </outline>
</glyph>
<glyph name="i" format="2">
  <advance width="248.56626506024097"/>
  <unicode hex="0069"/>
  <anchor x="88.50602409638554" y="0.0" name="bottom"/>
  <anchor x="117.3012048192771" y="0.0" name="ogonek"/>
  <anchor x="161.63855421686748" y="484.0" name="top"/>
  <outline>
    <contour>
      <point x="33.78313253012048" y="0.0" type="line"/>
      <point x="134.7831325301205" y="0.0" type="line"/>
      <point x="214.49397590361448" y="503.5542168674699" type="line"/>
      <point x="113.49397590361446" y="503.5542168674699" type="line"/>
    </contour>
    <contour>
      <point x="122.07228915662651" y="608.9638554216867" type="line"/>
      <point x="239.3855421686747" y="608.9638554216867" type="line"/>
      <point x="256.49397590361446" y="713.9036144578313" type="line"/>
      <point x="139.18072289156626" y="713.9036144578313" type="line"/>
    </contour>
  </outline>
</glyph>
<glyph name="j" format="2">
  <advance width="248.21084337349396"/>
  <unicode hex="006A"/>
  <anchor x="88.37349397590361" y="0.0" name="bottom"/>
  <anchor x="165.3734939759036" y="484.0" name="top"/>
  <outline>
    <contour>
      <point x="-60.31325301204819" y="-220.8433734939759" type="curve" smooth="yes"/>
      <point x="50.6987951807229" y="-220.8433734939759"/>
      <point x="113.93975903614457" y="-159.02409638554218"/>
      <point x="132.78313253012047" y="-39.385542168674704" type="curve" smooth="yes"/>
      <point x="218.93975903614458" y="503.5542168674699" type="line"/>
      <point x="117.93975903614458" y="503.5542168674699" type="line"/>
      <point x="33.07228915662651" y="-31.80722891566265" type="line" smooth="yes"/>
      <point x="21.204819277108438" y="-106.3012048192771"/>
      <point x="-11.506024096385541" y="-137.06024096385542"/>
      <point x="-63.8433734939759" y="-137.06024096385542" type="curve" smooth="yes"/>
      <point x="-82.26506024096386" y="-137.06024096385542"/>
      <point x="-103.71084337349397" y="-132.48192771084337"/>
      <point x="-119.13253012048193" y="-126.48192771084338" type="curve"/>
      <point x="-132.53012048192772" y="-208.42168674698794" type="line"/>
      <point x="-112.8433734939759" y="-217.8433734939759"/>
      <point x="-82.13253012048193" y="-220.8433734939759"/>
    </contour>
    <contour>
      <point x="125.80722891566265" y="608.9638554216867" type="line"/>
      <point x="243.12048192771084" y="608.9638554216867" type="line"/>
      <point x="260.2289156626506" y="713.9036144578313" type="line"/>
      <point x="142.9156626506024" y="713.9036144578313" type="line"/>
    </contour>
  </outline>
</glyph>
<glyph name="k" format="2">
  <advance width="531.4036144578313"/>
  <unicode hex="006B"/>
  <anchor x="225.1686746987952" y="0.0" name="bottom"/>
  <anchor x="344.87951807228916" y="716.3734939759036" name="top"/>
  <outline>
    <contour>
      <point x="33.78313253012048" y="0.0" type="line"/>
      <point x="134.7831325301205" y="0.0" type="line"/>
      <point x="171.65060240963857" y="231.49397590361446" type="line"/>
      <point x="173.65060240963857" y="231.49397590361446" type="line"/>
      <point x="380.73493975903614" y="0.0" type="line"/>
      <point x="503.84337349397595" y="0.0" type="line"/>
      <point x="257.51807228915663" y="283.95180722891564" type="line"/>
      <point x="257.51807228915663" y="238.86746987951807" type="line"/>
      <point x="561.2168674698795" y="503.5542168674699" type="line"/>
      <point x="432.3975903614458" y="503.5542168674699" type="line"/>
      <point x="181.91566265060243" y="283.9277108433735" type="line"/>
      <point x="179.91566265060243" y="283.9277108433735" type="line"/>
      <point x="251.7831325301205" y="736.0" type="line"/>
      <point x="150.7831325301205" y="736.0" type="line"/>
    </contour>
  </outline>
</glyph>
<glyph name="l" format="2">
  <advance width="248.21084337349396"/>
  <unicode hex="006C"/>
  <anchor x="84.63855421686748" y="0.0" name="bottom"/>
  <anchor x="142.34939759036146" y="364.8192771084337" name="center"/>
  <anchor x="303.1084337349398" y="354.86746987951807" name="dot"/>
  <anchor x="198.06024096385542" y="716.3734939759036" name="top"/>
  <anchor x="296.6746987951807" y="736.0" name="topright"/>
  <outline>
    <contour>
      <point x="33.78313253012048" y="0.0" type="line"/>
      <point x="134.7831325301205" y="0.0" type="line"/>
      <point x="251.7831325301205" y="736.0" type="line"/>
      <point x="150.7831325301205" y="736.0" type="line"/>
    </contour>
  </outline>
</glyph>
<glyph name="m" format="2">
  <advance width="887.722891566265"/>
  <unicode hex="006D"/>
  <anchor x="404.2168674698795" y="0.0" name="bottom"/>
  <anchor x="481.2168674698795" y="484.0" name="top"/>
  <outline>
    <contour>
      <point x="33.78313253012048" y="0.0" type="line"/>
      <point x="134.7831325301205" y="0.0" type="line"/>
      <point x="180.0722891566265" y="283.73493975903614" type="line" smooth="yes"/>
      <point x="194.22891566265062" y="374.5421686746988"/>
      <point x="246.87951807228916" y="432.03614457831327"/>
      <point x="325.39759036144574" y="432.03614457831327" type="curve" smooth="yes"/>
      <point x="393.7831325301205" y="432.03614457831327"/>
      <point x="417.09638554216866" y="393.56626506024094"/>
      <point x="402.93975903614455" y="306.89156626506025" type="curve" smooth="yes"/>
      <point x="354.3614457831325" y="0.0" type="line"/>
      <point x="455.3614457831325" y="0.0" type="line"/>
      <point x="500.65060240963857" y="283.73493975903614" type="line" smooth="yes"/>
      <point x="514.8072289156626" y="374.5421686746988"/>
      <point x="568.4578313253012" y="432.03614457831327"/>
      <point x="646.2650602409639" y="432.03614457831327" type="curve" smooth="yes"/>
      <point x="714.3614457831326" y="432.03614457831327"/>
      <point x="737.9638554216867" y="393.56626506024094"/>
      <point x="724.5180722891566" y="306.89156626506025" type="curve" smooth="yes"/>
      <point x="675.9397590361446" y="0.0" type="line"/>
      <point x="776.9397590361446" y="0.0" type="line"/>
      <point x="825.2289156626506" y="301.6024096385542" type="line" smooth="yes"/>
      <point x="847.9397590361446" y="447.421686746988"/>
      <point x="797.3614457831325" y="512.9759036144578"/>
      <point x="683.9638554216867" y="512.9759036144578" type="curve" smooth="yes"/>
      <point x="601.3614457831325" y="512.9759036144578"/>
      <point x="526.6506024096386" y="464.95180722891564"/>
      <point x="490.09638554216866" y="392.50602409638554" type="curve"/>
      <point x="505.65060240963857" y="392.50602409638554" type="line"/>
      <point x="500.67469879518075" y="472.2409638554217"/>
      <point x="448.96385542168673" y="512.9759036144578"/>
      <point x="366.93975903614455" y="512.9759036144578" type="curve" smooth="yes"/>
      <point x="285.7831325301205" y="512.9759036144578"/>
      <point x="221.6265060240964" y="473.9518072289157"/>
      <point x="182.9156626506024" y="397.7710843373494" type="curve"/>
      <point x="196.2048192771084" y="397.7710843373494" type="line"/>
      <point x="203.36144578313255" y="503.5542168674699" type="line"/>
      <point x="105.49397590361446" y="503.5542168674699" type="line"/>
      <point x="103.49397590361446" y="463.0"/>
      <point x="100.07228915662651" y="421.73493975903614"/>
      <point x="94.36144578313252" y="382.7590361445783" type="curve" smooth="yes"/>
    </contour>
  </outline>
</glyph>
<glyph name="o" format="2">
  <advance width="580.722891566265"/>
  <unicode hex="006F"/>
  <anchor x="251.2168674698795" y="0.0" name="bottom"/>
  <anchor x="290.2168674698795" y="252.13253012048193" name="center"/>
  <anchor x="306.9277108433735" y="0.0" name="ogonek"/>
  <anchor x="328.2168674698795" y="484.0" name="top"/>
  <anchor x="382.90361445783134" y="500.0" name="topright"/>
  <outline>
    <contour>
      <point x="258.48192771084337" y="-9.421686746987952" type="curve" smooth="yes"/>
      <point x="400.14457831325296" y="-9.421686746987952"/>
      <point x="507.96385542168673" y="77.1566265060241"/>
      <point x="533.9638554216867" y="238.57831325301206" type="curve" smooth="yes"/>
      <point x="560.9638554216867" y="411.28915662650604"/>
      <point x="479.855421686747" y="512.9759036144578"/>
      <point x="322.3734939759036" y="512.9759036144578" type="curve" smooth="yes"/>
      <point x="180.710843373494" y="512.9759036144578"/>
      <point x="72.46987951807229" y="427.1084337349398"/>
      <point x="46.46987951807229" y="265.68674698795184" type="curve" smooth="yes"/>
      <point x="19.469879518072293" y="92.26506024096386"/>
      <point x="101.0" y="-9.421686746987952"/>
    </contour>
    <contour>
      <point x="264.6144578313253" y="70.09638554216868" type="curve" smooth="yes"/>
      <point x="174.36144578313252" y="70.09638554216868"/>
      <point x="127.3132530120482" y="131.74698795180723"/>
      <point x="147.4698795180723" y="255.6867469879518" type="curve" smooth="yes"/>
      <point x="165.91566265060243" y="372.51807228915663"/>
      <point x="229.85542168674698" y="433.4578313253012"/>
      <point x="315.5301204819277" y="433.4578313253012" type="curve" smooth="yes"/>
      <point x="404.7831325301205" y="433.4578313253012"/>
      <point x="453.12048192771084" y="372.51807228915663"/>
      <point x="433.96385542168673" y="248.57831325301206" type="curve" smooth="yes"/>
      <point x="414.51807228915663" y="131.03614457831324"/>
      <point x="349.28915662650604" y="70.09638554216868"/>
    </contour>
  </outline>
</glyph>
<glyph name="p" format="2">
  <advance width="609.3012048192771"/>
  <unicode hex="0070"/>
  <anchor x="260.2409638554217" y="0.0" name="bottom"/>
  <anchor x="337.2409638554217" y="484.0" name="top"/>
  <outline>
    <contour>
      <point x="-0.21686746987951722" y="-216.0" type="line"/>
      <point x="100.7831325301205" y="-216.0" type="line"/>
      <point x="152.9397590361446" y="111.80722891566265" type="line"/>
      <point x="142.22891566265062" y="111.80722891566265" type="line"/>
      <point x="154.80722891566265" y="36.89156626506024"/>
      <point x="218.80722891566265" y="-9.421686746987952"/>
      <point x="305.4096385542169" y="-9.421686746987952" type="curve" smooth="yes"/>
      <point x="436.4096385542169" y="-9.421686746987952"/>
      <point x="536.8313253012049" y="76.44578313253012"/>
      <point x="563.5421686746988" y="238.57831325301206" type="curve" smooth="yes"/>
      <point x="590.8313253012049" y="408.44578313253015"/>
      <point x="513.277108433735" y="512.9759036144578"/>
      <point x="374.27710843373495" y="512.9759036144578" type="curve" smooth="yes"/>
      <point x="282.3855421686747" y="512.9759036144578"/>
      <point x="215.36144578313255" y="465.95180722891564"/>
      <point x="181.20481927710844" y="390.32530120481925" type="curve"/>
      <point x="195.9156626506024" y="390.32530120481925" type="line"/>
      <point x="203.36144578313255" y="503.5542168674699" type="line"/>
      <point x="105.49397590361446" y="503.5542168674699" type="line"/>
      <point x="103.49397590361446" y="463.0"/>
      <point x="100.78313253012048" y="421.73493975903614"/>
      <point x="94.36144578313252" y="382.7590361445783" type="curve" smooth="yes"/>
    </contour>
    <contour>
      <point x="293.06024096385545" y="70.09638554216868" type="curve" smooth="yes"/>
      <point x="203.09638554216866" y="70.09638554216868"/>
      <point x="154.04819277108433" y="131.74698795180723"/>
      <point x="173.20481927710844" y="255.6867469879518" type="curve" smooth="yes"/>
      <point x="191.65060240963857" y="372.51807228915663"/>
      <point x="258.5903614457831" y="433.4578313253012"/>
      <point x="343.9759036144578" y="433.4578313253012" type="curve" smooth="yes"/>
      <point x="434.9397590361446" y="433.4578313253012"/>
      <point x="482.69879518072287" y="372.51807228915663"/>
      <point x="462.5421686746988" y="248.57831325301206" type="curve" smooth="yes"/>
      <point x="443.09638554216866" y="131.03614457831324"/>
      <point x="379.44578313253015" y="70.09638554216868"/>
    </contour>
  </outline>
</glyph>
<glyph name="q" format="2">
  <advance width="609.3012048192771"/>
  <unicode hex="0071"/>
  <anchor x="264.9277108433735" y="0.0" name="bottom"/>
  <anchor x="335.50602409638554" y="484.0" name="top"/>
  <outline>
    <contour>
      <point x="360.51807228915663" y="-216.0" type="line"/>
      <point x="461.51807228915663" y="-216.0" type="line"/>
      <point x="556.0963855421687" y="382.7590361445783" type="line" smooth="yes"/>
      <point x="562.5180722891566" y="421.73493975903614"/>
      <point x="572.5180722891566" y="463.0"/>
      <point x="583.2289156626506" y="503.5542168674699" type="curve"/>
      <point x="486.0722891566265" y="503.5542168674699" type="line"/>
      <point x="457.20481927710847" y="390.32530120481925" type="line"/>
      <point x="467.78313253012044" y="392.4578313253012" type="line"/>
      <point x="455.20481927710847" y="466.6626506024096"/>
      <point x="391.2048192771084" y="512.9759036144578"/>
      <point x="304.6024096385542" y="512.9759036144578" type="curve" smooth="yes"/>
      <point x="173.6024096385542" y="512.9759036144578"/>
      <point x="73.18072289156626" y="427.81927710843377"/>
      <point x="46.46987951807229" y="265.68674698795184" type="curve" smooth="yes"/>
      <point x="19.18072289156627" y="95.10843373493975"/>
      <point x="96.73493975903615" y="-9.421686746987952"/>
      <point x="235.73493975903614" y="-9.421686746987952" type="curve" smooth="yes"/>
      <point x="327.6265060240964" y="-9.421686746987952"/>
      <point x="394.6506024096385" y="37.60240963855422"/>
      <point x="428.8072289156626" y="113.93975903614458" type="curve"/>
      <point x="412.67469879518075" y="111.80722891566265" type="line"/>
    </contour>
    <contour>
      <point x="266.03614457831327" y="70.09638554216868" type="curve" smooth="yes"/>
      <point x="175.0722891566265" y="70.09638554216868"/>
      <point x="127.3132530120482" y="131.74698795180723"/>
      <point x="147.4698795180723" y="255.6867469879518" type="curve" smooth="yes"/>
      <point x="165.91566265060243" y="372.51807228915663"/>
      <point x="230.56626506024094" y="433.4578313253012"/>
      <point x="316.95180722891564" y="433.4578313253012" type="curve" smooth="yes"/>
      <point x="406.9156626506024" y="433.4578313253012"/>
      <point x="455.96385542168673" y="372.51807228915663"/>
      <point x="436.8072289156626" y="248.57831325301206" type="curve" smooth="yes"/>
      <point x="417.3614457831325" y="131.03614457831324"/>
      <point x="351.421686746988" y="70.09638554216868"/>
    </contour>
  </outline>
</glyph>
<glyph name="r" format="2">
  <advance width="376.16265060240966"/>
  <unicode hex="0072"/>
  <anchor x="83.34939759036145" y="0.0" name="bottom"/>
  <anchor x="267.03614457831327" y="484.0" name="top"/>
  <outline>
    <contour>
      <point x="32.493975903614455" y="0.0" type="line"/>
      <point x="134.2048192771084" y="0.0" type="line"/>
      <point x="179.5180722891566" y="283.7469879518072" type="line" smooth="yes"/>
      <point x="192.93975903614455" y="367.56626506024094"/>
      <point x="252.96385542168673" y="427.06024096385545"/>
      <point x="339.16867469879514" y="427.06024096385545" type="curve" smooth="yes"/>
      <point x="362.56626506024094" y="427.06024096385545"/>
      <point x="378.566265060241" y="425.34939759036143"/>
      <point x="396.9638554216868" y="417.79518072289153" type="curve"/>
      <point x="413.0722891566265" y="507.9759036144579" type="line"/>
      <point x="398.0722891566265" y="511.26506024096386"/>
      <point x="382.65060240963857" y="512.9759036144578"/>
      <point x="365.22891566265065" y="512.9759036144578" type="curve" smooth="yes"/>
      <point x="285.4096385542169" y="512.9759036144578"/>
      <point x="211.0963855421687" y="467.86746987951807"/>
      <point x="177.25301204819277" y="373.65060240963857" type="curve"/>
      <point x="195.78313253012047" y="373.93975903614455" type="line"/>
      <point x="203.36144578313255" y="503.5542168674699" type="line"/>
      <point x="105.49397590361446" y="503.5542168674699" type="line"/>
      <point x="103.49397590361446" y="463.0"/>
      <point x="98.78313253012048" y="419.4457831325301"/>
      <point x="92.78313253012048" y="378.89156626506025" type="curve" smooth="yes"/>
    </contour>
  </outline>
</glyph>
<glyph name="s" format="2">
  <advance width="498.0421686746988"/>
  <unicode hex="0073"/>
  <anchor x="206.8433734939759" y="0.0" name="bottom"/>
  <anchor x="291.8433734939759" y="484.0" name="top"/>
  <outline>
    <contour>
      <point x="214.68674698795178" y="-9.421686746987952" type="curve" smooth="yes"/>
      <point x="333.6626506024096" y="-9.421686746987952"/>
      <point x="419.03614457831327" y="43.86746987951807"/>
      <point x="433.1686746987952" y="135.08433734939757" type="curve" smooth="yes"/>
      <point x="445.87951807228916" y="212.7710843373494"/>
      <point x="407.1686746987952" y="263.1927710843374"/>
      <point x="306.3012048192771" y="279.77108433734935" type="curve" smooth="yes"/>
      <point x="227.92771084337352" y="293.1927710843373" type="line" smooth="yes"/>
      <point x="181.14457831325302" y="301.3493975903615"/>
      <point x="164.12048192771087" y="327.8192771084337"/>
      <point x="169.98795180722894" y="365.6024096385542" type="curve" smooth="yes"/>
      <point x="176.855421686747" y="408.09638554216866"/>
      <point x="217.77108433734938" y="439.144578313253"/>
      <point x="289.9759036144578" y="439.144578313253" type="curve" smooth="yes"/>
      <point x="341.71084337349396" y="439.144578313253"/>
      <point x="393.6867469879518" y="421.144578313253"/>
      <point x="429.3975903614458" y="392.6987951807229" type="curve"/>
      <point x="464.48192771084337" y="460.81927710843377" type="line"/>
      <point x="427.3734939759036" y="492.2409638554217"/>
      <point x="363.3975903614458" y="512.9759036144578"/>
      <point x="289.9759036144578" y="512.9759036144578" type="curve" smooth="yes"/>
      <point x="178.89156626506022" y="512.9759036144578"/>
      <point x="91.36144578313252" y="460.13253012048193"/>
      <point x="76.93975903614458" y="369.1807228915663" type="curve" smooth="yes"/>
      <point x="64.93975903614458" y="290.6265060240964"/>
      <point x="101.36144578313254" y="234.6265060240964"/>
      <point x="199.93975903614458" y="218.6265060240964" type="curve" smooth="yes"/>
      <point x="276.0240963855422" y="206.20481927710844" type="line" smooth="yes"/>
      <point x="326.96385542168673" y="198.04819277108433"/>
      <point x="346.9879518072289" y="173.57831325301206"/>
      <point x="341.12048192771084" y="135.3734939759036" type="curve" smooth="yes"/>
      <point x="334.2530120481928" y="92.87951807228916"/>
      <point x="291.7590361445783" y="65.12048192771084"/>
      <point x="220.10843373493975" y="65.12048192771084" type="curve" smooth="yes"/>
      <point x="159.10843373493975" y="65.12048192771084"/>
      <point x="100.42168674698796" y="84.12048192771084"/>
      <point x="55.57831325301204" y="115.56626506024095" type="curve"/>
      <point x="22.915662650602414" y="46.02409638554217" type="line"/>
      <point x="63.89156626506025" y="12.44578313253012"/>
      <point x="135.44578313253012" y="-9.421686746987952"/>
    </contour>
  </outline>
</glyph>
<glyph name="t" format="2">
  <advance width="363.09638554216866"/>
  <unicode hex="0074"/>
  <anchor x="191.6144578313253" y="0.0" name="bottom"/>
  <anchor x="182.6144578313253" y="273.1807228915663" name="center"/>
  <anchor x="216.59036144578312" y="646.0" name="top"/>
  <anchor x="344.09638554216866" y="716.3734939759036" name="topright"/>
  <outline>
    <contour>
      <point x="234.27710843373495" y="-9.421686746987952" type="curve" smooth="yes"/>
      <point x="258.9879518072289" y="-9.421686746987952"/>
      <point x="281.96385542168673" y="-5.132530120481928"/>
      <point x="304.3614457831325" y="4.0" type="curve"/>
      <point x="317.4698795180723" y="85.93975903614458" type="line"/>
      <point x="299.33734939759034" y="78.93975903614458"/>
      <point x="280.6024096385542" y="74.36144578313252"/>
      <point x="256.73493975903614" y="74.36144578313252" type="curve" smooth="yes"/>
      <point x="204.6867469879518" y="74.36144578313252"/>
      <point x="181.42168674698794" y="104.40963855421687"/>
      <point x="193.289156626506" y="178.9036144578313" type="curve" smooth="yes"/>
      <point x="232.04819277108433" y="426.3253012048193" type="line"/>
      <point x="371.96385542168673" y="426.3253012048193" type="line"/>
      <point x="384.3614457831325" y="503.5542168674699" type="line"/>
      <point x="244.44578313253012" y="503.5542168674699" type="line"/>
      <point x="270.1566265060241" y="663.9759036144578" type="line"/>
      <point x="165.02409638554215" y="636.6024096385543" type="line"/>
      <point x="143.44578313253012" y="503.5542168674699" type="line"/>
      <point x="45.57831325301204" y="503.5542168674699" type="line"/>
      <point x="33.18072289156626" y="426.3253012048193" type="line"/>
      <point x="131.04819277108433" y="426.3253012048193" type="line"/>
      <point x="90.28915662650601" y="169.32530120481928" type="line" smooth="yes"/>
      <point x="72.15662650602408" y="52.951807228915655"/>
      <point x="119.10843373493977" y="-9.421686746987952"/>
    </contour>
  </outline>
</glyph>
<glyph name="u" format="2">
  <advance width="585.5240963855422"/>
  <unicode hex="0075"/>
  <anchor x="253.08433734939757" y="0.0" name="bottom"/>
  <anchor x="450.7710843373494" y="0.0" name="ogonek"/>
  <anchor x="330.0843373493976" y="485.0" name="top"/>
  <anchor x="472.13253012048193" y="500.0" name="topright"/>
  <outline>
    <contour>
      <point x="220.46987951807228" y="-9.421686746987952" type="curve" smooth="yes"/>
      <point x="301.20481927710847" y="-9.421686746987952"/>
      <point x="366.67469879518075" y="33.31325301204819"/>
      <point x="405.38554216867465" y="108.49397590361446" type="curve"/>
      <point x="390.3855421686747" y="108.49397590361446" type="line"/>
      <point x="373.51807228915663" y="0.0" type="line"/>
      <point x="472.0963855421687" y="0.0" type="line"/>
      <point x="551.8072289156627" y="503.5542168674699" type="line"/>
      <point x="450.8072289156626" y="503.5542168674699" type="line"/>
      <point x="405.8072289156626" y="218.97590361445782" type="line" smooth="yes"/>
      <point x="391.3614457831325" y="130.0120481927711"/>
      <point x="335.71084337349396" y="72.22891566265059"/>
      <point x="252.74698795180726" y="72.22891566265059" type="curve" smooth="yes"/>
      <point x="178.65060240963854" y="72.22891566265059"/>
      <point x="149.75903614457832" y="110.27710843373494"/>
      <point x="163.49397590361448" y="201.26506024096386" type="curve" smooth="yes"/>
      <point x="211.49397590361448" y="503.5542168674699" type="line"/>
      <point x="110.49397590361446" y="503.5542168674699" type="line"/>
      <point x="62.204819277108435" y="198.3975903614458" type="line" smooth="yes"/>
      <point x="40.204819277108435" y="58.108433734939766"/>
      <point x="100.07228915662652" y="-9.421686746987952"/>
    </contour>
  </outline>
</glyph>
<glyph name="v" format="2">
  <advance width="536.7048192771084"/>
  <unicode hex="0076"/>
  <anchor x="229.24096385542168" y="0.0" name="bottom"/>
  <anchor x="306.2409638554217" y="484.0" name="top"/>
  <outline>
    <contour>
      <point x="181.7831325301205" y="0.0" type="line"/>
      <point x="273.855421686747" y="0.0" type="line"/>
      <point x="570.5421686746988" y="503.5542168674699" type="line"/>
      <point x="464.67469879518075" y="503.5542168674699" type="line"/>
      <point x="224.63855421686748" y="82.81927710843374" type="line"/>
      <point x="253.6144578313253" y="82.81927710843374" type="line"/>
      <point x="150.2289156626506" y="503.5542168674699" type="line"/>
      <point x="45.93975903614458" y="503.5542168674699" type="line"/>
    </contour>
  </outline>
</glyph>
<glyph name="w" format="2">
  <advance width="875.4819277108434"/>
  <unicode hex="0077"/>
  <anchor x="397.95180722891564" y="0.0" name="bottom"/>
  <anchor x="474.95180722891564" y="484.0" name="top"/>
  <outline>
    <contour>
      <point x="170.89156626506025" y="0.0" type="line"/>
      <point x="264.5421686746988" y="0.0" type="line"/>
      <point x="488.68674698795184" y="427.73493975903614" type="line"/>
      <point x="441.6265060240964" y="427.73493975903614" type="line"/>
      <point x="531.6506024096385" y="0.0" type="line"/>
      <point x="624.3012048192771" y="0.0" type="line"/>
      <point x="895.2289156626506" y="503.5542168674699" type="line"/>
      <point x="791.7831325301205" y="503.5542168674699" type="line"/>
      <point x="575.6385542168674" y="83.66265060240963" type="line"/>
      <point x="599.7951807228916" y="83.66265060240963" type="line"/>
      <point x="515.7469879518072" y="503.5542168674699" type="line"/>
      <point x="437.4457831325301" y="503.5542168674699" type="line"/>
      <point x="217.72289156626505" y="83.66265060240963" type="line"/>
      <point x="243.72289156626505" y="83.66265060240963" type="line"/>
      <point x="160.83132530120483" y="503.5542168674699" type="line"/>
      <point x="59.67469879518072" y="503.5542168674699" type="line"/>
    </contour>
  </outline>
</glyph>
<glyph name="x" format="2">
  <advance width="540.8373493975904"/>
  <unicode hex="0078"/>
  <anchor x="229.53012048192772" y="0.0" name="bottom"/>
  <anchor x="306.5301204819277" y="484.0" name="top"/>
  <outline>
    <contour>
      <point x="-41.855421686746986" y="0.0" type="line"/>
      <point x="83.51807228915662" y="0.0" type="line"/>
      <point x="283.34939759036143" y="210.83132530120483" type="line"/>
      <point x="246.3132530120482" y="210.83132530120483" type="line"/>
      <point x="377.9638554216868" y="0.0" type="line"/>
      <point x="495.49397590361446" y="0.0" type="line"/>
      <point x="312.4096385542169" y="282.6385542168675" type="line"/>
      <point x="309.566265060241" y="236.6265060240964" type="line"/>
      <point x="566.9156626506024" y="503.5542168674699" type="line"/>
      <point x="441.5421686746988" y="503.5542168674699" type="line"/>
      <point x="257.421686746988" y="306.72289156626505" type="line"/>
      <point x="293.0361445783132" y="306.72289156626505" type="line"/>
      <point x="170.80722891566265" y="503.5542168674699" type="line"/>
      <point x="56.40963855421687" y="503.5542168674699" type="line"/>
      <point x="231.36144578313252" y="235.75903614457832" type="line"/>
      <point x="232.7831325301205" y="283.7951807228916" type="line"/>
    </contour>
  </outline>
</glyph>
<glyph name="y" format="2">
  <advance width="536.3493975903615"/>
  <unicode hex="0079"/>
  <anchor x="371.0120481927711" y="0.0" name="bottom"/>
  <anchor x="304.5301204819277" y="484.0" name="top"/>
  <outline>
    <contour>
      <point x="-16.132530120481928" y="-227.0" type="line"/>
      <point x="95.92771084337349" y="-208.0"/>
      <point x="174.3012048192771" y="-170.8433734939759"/>
      <point x="254.5180722891566" y="-35.51807228915663" type="curve" smooth="yes"/>
      <point x="570.5421686746988" y="503.5542168674699" type="line"/>
      <point x="463.67469879518075" y="503.5542168674699" type="line"/>
      <point x="226.63855421686748" y="83.53012048192771" type="line"/>
      <point x="253.90361445783134" y="83.53012048192771" type="line"/>
      <point x="150.2289156626506" y="503.5542168674699" type="line"/>
      <point x="45.22891566265061" y="503.5542168674699" type="line"/>
      <point x="183.65060240963857" y="-9.024096385542169" type="line"/>
      <point x="188.49397590361446" y="31.879518072289155" type="line"/>
      <point x="154.20481927710844" y="-27.40963855421687" type="line" smooth="yes"/>
      <point x="112.46987951807229" y="-97.87951807228916"/>
      <point x="64.75903614457833" y="-125.48192771084338"/>
      <point x="-32.951807228915655" y="-145.34939759036143" type="curve"/>
    </contour>
  </outline>
</glyph>
<glyph name="z" format="2">
  <advance width="521.5963855421687"/>
  <unicode hex="007A"/>
  <anchor x="222.3734939759036" y="0.0" name="bottom"/>
  <anchor x="299.3734939759036" y="484.0" name="top"/>
  <outline>
    <contour>
      <point x="8.867469879518069" y="0.0" type="line"/>
      <point x="441.06024096385545" y="0.0" type="line"/>
      <point x="453.45783132530124" y="77.22891566265059" type="line"/>
      <point x="116.73493975903614" y="77.22891566265059" type="line"/>
      <point x="112.60240963855422" y="49.72289156626506" type="line"/>
      <point x="498.7951807228916" y="436.5903614457831" type="line"/>
      <point x="509.48192771084337" y="503.5542168674699" type="line"/>
      <point x="88.57831325301204" y="503.5542168674699" type="line"/>
      <point x="76.18072289156626" y="426.3253012048193" type="line"/>
      <point x="399.1927710843373" y="426.3253012048193" type="line"/>
      <point x="403.3253012048193" y="451.4096385542169" type="line"/>
      <point x="19.554216867469876" y="66.96385542168674" type="line"/>
    </contour>
  </outline>
</glyph>
<glyph name="braceleft" format="2">
  <advance width="371.40361445783134"/>
  <unicode hex="007B"/>
  <outline>
    <contour>
      <point x="210.1686746987952" y="-180.0" type="curve" smooth="yes"/>
      <point x="293.3614457831325" y="-180.0" type="line"/>
      <point x="305.7590361445783" y="-102.48192771084338" type="line"/>
      <point x="231.57831325301206" y="-102.48192771084338" type="line" smooth="yes"/>
      <point x="202.42168674698794" y="-102.48192771084338"/>
      <point x="190.28915662650604" y="-89.03614457831326"/>
      <point x="196.0" y="-57.614457831325296" type="curve" smooth="yes"/>
      <point x="228.1807228915663" y="154.33734939759037" type="line" smooth="yes"/>
      <point x="239.1807228915663" y="226.6265060240964"/>
      <point x="195.04819277108433" y="265.710843373494"/>
      <point x="152.9156626506024" y="265.710843373494" type="curve"/>
      <point x="152.9156626506024" y="261.710843373494" type="line"/>
      <point x="195.7590361445783" y="261.710843373494"/>
      <point x="252.73493975903617" y="297.95180722891564"/>
      <point x="263.73493975903614" y="370.95180722891564" type="curve" smooth="yes"/>
      <point x="296.9156626506024" y="582.6144578313252" type="line" smooth="yes"/>
      <point x="301.9156626506024" y="614.0361445783133"/>
      <point x="320.33734939759034" y="627.4819277108434"/>
      <point x="348.49397590361446" y="627.4819277108434" type="curve" smooth="yes"/>
      <point x="420.96385542168673" y="627.4819277108434" type="line"/>
      <point x="433.3614457831325" y="705.0" type="line"/>
      <point x="320.9277108433735" y="705.0" type="line" smooth="yes"/>
      <point x="253.2650602409639" y="705.0"/>
      <point x="211.3132530120482" y="668.3132530120482"/>
      <point x="199.4698795180723" y="593.4096385542168" type="curve" smooth="yes"/>
      <point x="165.57831325301206" y="381.7710843373494" type="line" smooth="yes"/>
      <point x="156.57831325301206" y="328.90361445783134"/>
      <point x="136.710843373494" y="307.0361445783132"/>
      <point x="85.10843373493975" y="303.32530120481925" type="curve" smooth="yes"/>
      <point x="51.445783132530124" y="300.1927710843373" type="line"/>
      <point x="40.048192771084345" y="225.09638554216866" type="line"/>
      <point x="72.42168674698794" y="221.96385542168673" type="line" smooth="yes"/>
      <point x="125.02409638554217" y="218.25301204819277"/>
      <point x="135.18072289156626" y="196.0963855421687"/>
      <point x="127.18072289156628" y="142.80722891566265" type="curve" smooth="yes"/>
      <point x="94.28915662650603" y="-68.40963855421687" type="line" smooth="yes"/>
      <point x="83.15662650602411" y="-136.0722891566265"/>
      <point x="121.53012048192771" y="-180.0"/>
    </contour>
  </outline>
</glyph>
<glyph name="bar" format="2">
  <advance width="272.1686746987952"/>
  <unicode hex="007C"/>
  <outline>
    <contour>
      <point x="16.93975903614458" y="-180.0" type="line"/>
      <point x="117.93975903614458" y="-180.0" type="line"/>
      <point x="257.93975903614455" y="705.0" type="line"/>
      <point x="156.93975903614458" y="705.0" type="line"/>
    </contour>
  </outline>
</glyph>
<glyph name="braceright" format="2">
  <advance width="371.40361445783134"/>
  <unicode hex="007D"/>
  <outline>
    <contour>
      <point x="-59.024096385542165" y="-180.0" type="line"/>
      <point x="54.12048192771084" y="-180.0" type="line" smooth="yes"/>
      <point x="121.78313253012048" y="-180.0"/>
      <point x="164.44578313253012" y="-143.3132530120482"/>
      <point x="176.289156626506" y="-68.40963855421687" type="curve" smooth="yes"/>
      <point x="210.18072289156626" y="143.2289156626506" type="line" smooth="yes"/>
      <point x="218.46987951807228" y="195.80722891566265"/>
      <point x="238.04819277108433" y="218.67469879518072"/>
      <point x="290.65060240963857" y="222.3855421686747" type="curve" smooth="yes"/>
      <point x="323.3132530120482" y="224.80722891566265" type="line"/>
      <point x="334.710843373494" y="300.6144578313253" type="line"/>
      <point x="302.6265060240964" y="303.03614457831327" type="line" smooth="yes"/>
      <point x="251.02409638554215" y="306.7469879518072"/>
      <point x="239.86746987951807" y="328.6144578313253"/>
      <point x="247.86746987951807" y="382.1927710843373" type="curve" smooth="yes"/>
      <point x="281.4698795180723" y="593.4096385542168" type="line" smooth="yes"/>
      <point x="291.8915662650602" y="661.0722891566265"/>
      <point x="253.51807228915663" y="705.0"/>
      <point x="164.87951807228913" y="705.0" type="curve" smooth="yes"/>
      <point x="81.6867469879518" y="705.0" type="line"/>
      <point x="69.28915662650603" y="627.4819277108434" type="line"/>
      <point x="144.18072289156626" y="627.4819277108434" type="line" smooth="yes"/>
      <point x="172.33734939759037" y="627.4819277108434"/>
      <point x="184.75903614457832" y="614.0361445783133"/>
      <point x="179.75903614457832" y="582.6144578313252" type="curve" smooth="yes"/>
      <point x="146.86746987951807" y="371.3734939759036" type="line" smooth="yes"/>
      <point x="135.86746987951807" y="298.3734939759036"/>
      <point x="179.71084337349396" y="260.0"/>
      <point x="222.84337349397592" y="260.0" type="curve"/>
      <point x="222.13253012048193" y="264.0" type="line"/>
      <point x="179.0" y="264.0"/>
      <point x="122.3132530120482" y="227.04819277108436"/>
      <point x="111.3132530120482" y="154.04819277108433" type="curve" smooth="yes"/>
      <point x="78.13253012048193" y="-57.614457831325296" type="line" smooth="yes"/>
      <point x="73.13253012048193" y="-89.03614457831326"/>
      <point x="54.421686746987945" y="-102.48192771084338"/>
      <point x="26.265060240963848" y="-102.48192771084338" type="curve" smooth="yes"/>
      <point x="-46.915662650602414" y="-102.48192771084338" type="line"/>
    </contour>
  </outline>
</glyph>
<glyph name="asciitilde" format="2">
  <advance width="600.0"/>
  <unicode hex="007E"/>
  <outline>
    <contour>
      <point x="418.7349397590362" y="213.33734939759037" type="curve" smooth="yes"/>
      <point x="478.73493975903614" y="213.33734939759037"/>
      <point x="522.7108433734941" y="249.3132530120482"/>
      <point x="556.5783132530121" y="311.5783132530121" type="curve"/>
      <point x="503.67469879518075" y="348.34939759036143" type="line"/>
      <point x="481.67469879518075" y="310.2168674698795"/>
      <point x="452.9397590361446" y="284.32530120481925"/>
      <point x="411.46987951807233" y="284.32530120481925" type="curve" smooth="yes"/>
      <point x="383.44578313253015" y="284.32530120481925"/>
      <point x="355.86746987951807" y="300.1927710843373"/>
      <point x="321.0" y="318.6385542168675" type="curve" smooth="yes"/>
      <point x="283.289156626506" y="338.50602409638554"/>
      <point x="238.42168674698794" y="361.3734939759036"/>
      <point x="192.55421686746988" y="361.3734939759036" type="curve" smooth="yes"/>
      <point x="132.55421686746988" y="361.3734939759036"/>
      <point x="89.28915662650601" y="325.3975903614458"/>
      <point x="55.42168674698795" y="262.4216867469879" type="curve"/>
      <point x="108.32530120481927" y="226.36144578313252" type="line"/>
      <point x="129.61445783132532" y="263.7831325301205"/>
      <point x="159.06024096385542" y="290.3855421686747"/>
      <point x="199.81927710843374" y="290.3855421686747" type="curve" smooth="yes"/>
      <point x="227.8433734939759" y="290.3855421686747"/>
      <point x="258.4216867469879" y="274.22891566265065"/>
      <point x="293.28915662650604" y="255.0722891566265" type="curve" smooth="yes"/>
      <point x="330.28915662650604" y="235.20481927710844"/>
      <point x="373.5783132530121" y="213.33734939759037"/>
    </contour>
  </outline>
</glyph>
<glyph name="exclamdown" format="2">
  <advance width="237.3012048192771"/>
  <unicode hex="00A1"/>
  <outline>
    <contour>
      <point x="-12.746987951807228" y="-180.0" type="line"/>
      <point x="112.04819277108433" y="-180.0" type="line"/>
      <point x="158.59036144578315" y="309.144578313253" type="line"/>
      <point x="96.7590361445783" y="309.144578313253" type="line"/>
    </contour>
    <contour>
      <point x="79.80722891566265" y="385.2168674698795" type="line"/>
      <point x="199.27710843373495" y="385.2168674698795" type="line"/>
      <point x="218.0963855421687" y="503.5542168674699" type="line"/>
      <point x="98.62650602409639" y="503.5542168674699" type="line"/>
    </contour>
  </outline>
</glyph>
<glyph name="cent" format="2">
  <advance width="600.0"/>
  <unicode hex="00A2"/>
  <outline>
    <contour>
      <point x="216.67469879518075" y="-115.0" type="line"/>
      <point x="299.32530120481925" y="-115.0" type="line"/>
      <point x="319.7469879518072" y="15.819277108433734" type="line"/>
      <point x="293.2409638554217" y="-9.421686746987952" type="line"/>
      <point x="366.92771084337346" y="-11.55421686746988"/>
      <point x="444.7710843373494" y="12.734939759036145"/>
      <point x="489.9036144578313" y="51.60240963855422" type="curve"/>
      <point x="458.2409638554217" y="121.56626506024097" type="line"/>
      <point x="416.2168674698795" y="87.09638554216866"/>
      <point x="364.90361445783134" y="71.51807228915662"/>
      <point x="321.433734939759" y="71.51807228915662" type="curve" smooth="yes"/>
      <point x="222.93975903614458" y="71.51807228915662"/>
      <point x="172.6024096385542" y="138.40963855421688"/>
      <point x="191.33734939759034" y="247.26506024096386" type="curve" smooth="yes"/>
      <point x="209.07228915662648" y="355.09638554216866"/>
      <point x="278.69879518072287" y="412.7469879518073"/>
      <point x="372.0843373493976" y="412.7469879518073" type="curve" smooth="yes"/>
      <point x="413.2409638554217" y="412.7469879518073"/>
      <point x="459.8192771084337" y="399.1686746987952"/>
      <point x="493.84337349397595" y="368.56626506024094" type="curve"/>
      <point x="529.6385542168674" y="436.66265060240966" type="line"/>
      <point x="495.2168674698795" y="473.10843373493975"/>
      <point x="437.50602409638554" y="491.26506024096386"/>
      <point x="374.2409638554217" y="492.68674698795184" type="curve"/>
      <point x="391.32530120481925" y="466.578313253012" type="line"/>
      <point x="414.0361445783132" y="607.5542168674699" type="line"/>
      <point x="331.3855421686747" y="607.5542168674699" type="line"/>
      <point x="307.9638554216868" y="461.6024096385542" type="line"/>
      <point x="332.33734939759034" y="490.8433734939759" type="line"/>
      <point x="200.09638554216866" y="476.44578313253015"/>
      <point x="112.07228915662651" y="393.7590361445783"/>
      <point x="88.20481927710844" y="252.13253012048193" type="curve" smooth="yes"/>
      <point x="64.04819277108435" y="103.50602409638554"/>
      <point x="133.33734939759037" y="15.240963855421686"/>
      <point x="254.33734939759037" y="-3.8674698795180724" type="curve"/>
      <point x="237.80722891566268" y="20.08433734939759" type="line"/>
    </contour>
  </outline>
</glyph>
<glyph name="sterling" format="2">
  <advance width="600.0"/>
  <unicode hex="00A3"/>
  <outline>
    <contour>
      <point x="4.734939759036145" y="0.0" type="line"/>
      <point x="525.3975903614457" y="0.0" type="line"/>
      <point x="539.2168674698795" y="85.9156626506024" type="line"/>
      <point x="139.55421686746988" y="85.9156626506024" type="line"/>
      <point x="138.55421686746988" y="80.62650602409639" type="line"/>
      <point x="189.3132530120482" y="99.36144578313252"/>
      <point x="225.65060240963854" y="137.67469879518072"/>
      <point x="235.80722891566262" y="205.19277108433735" type="curve" smooth="yes"/>
      <point x="254.8313253012048" y="321.0722891566265" type="line"/>
      <point x="431.7951807228916" y="321.0722891566265" type="line"/>
      <point x="442.06024096385545" y="386.2168674698795" type="line"/>
      <point x="264.3855421686747" y="386.2168674698795" type="line"/>
      <point x="283.12048192771084" y="501.20481927710847" type="line" smooth="yes"/>
      <point x="296.855421686747" y="588.1686746987951"/>
      <point x="345.06024096385545" y="629.3493975903615"/>
      <point x="433.4216867469879" y="629.3493975903615" type="curve" smooth="yes"/>
      <point x="496.9156626506024" y="629.3493975903615"/>
      <point x="538.9156626506025" y="609.9036144578314"/>
      <point x="582.4698795180723" y="570.4578313253012" type="curve"/>
      <point x="622.8192771084337" y="643.6867469879518" type="line"/>
      <point x="578.2650602409639" y="690.132530120482"/>
      <point x="512.0" y="714.4216867469879"/>
      <point x="429.4457831325301" y="714.4216867469879" type="curve" smooth="yes"/>
      <point x="289.51807228915663" y="714.4216867469879"/>
      <point x="201.98795180722894" y="641.7590361445783"/>
      <point x="179.566265060241" y="504.2289156626506" type="curve" smooth="yes"/>
      <point x="160.54216867469881" y="386.2168674698795" type="line"/>
      <point x="65.1566265060241" y="386.2168674698795" type="line"/>
      <point x="54.891566265060234" y="321.0722891566265" type="line"/>
      <point x="150.27710843373495" y="321.0722891566265" type="line"/>
      <point x="127.54216867469881" y="178.3734939759036" type="line" smooth="yes"/>
      <point x="118.96385542168676" y="124.32530120481928"/>
      <point x="78.62650602409639" y="93.85542168674698"/>
      <point x="15.421686746987952" y="70.67469879518072" type="curve"/>
    </contour>
  </outline>
</glyph>
<glyph name="currency" format="2">
  <advance width="600.0"/>
  <unicode hex="00A4"/>
  <outline>
    <contour>
      <point x="113.97590361445783" y="-27.686746987951807" type="line"/>
      <point x="187.26506024096383" y="47.31325301204819" type="line"/>
      <point x="227.8433734939759" y="15.867469879518072"/>
      <point x="278.71084337349396" y="-3.0"/>
      <point x="333.86746987951807" y="-3.0" type="curve" smooth="yes"/>
      <point x="388.73493975903614" y="-3.0"/>
      <point x="439.3132530120482" y="15.578313253012048"/>
      <point x="479.60240963855426" y="47.734939759036145" type="curve"/>
      <point x="552.3132530120482" y="-26.97590361445783" type="line"/>
      <point x="598.9759036144578" y="19.686746987951807" type="line"/>
      <point x="525.2650602409639" y="94.39759036144578" type="line"/>
      <point x="556.710843373494" y="136.6867469879518"/>
      <point x="574.5783132530121" y="188.55421686746988"/>
      <point x="574.5783132530121" y="245.0" type="curve" smooth="yes"/>
      <point x="574.5783132530121" y="301.4457831325301"/>
      <point x="557.4216867469879" y="352.6024096385542"/>
      <point x="525.9759036144578" y="395.1807228915663" type="curve"/>
      <point x="599.6867469879518" y="469.6024096385542" type="line"/>
      <point x="550.8915662650603" y="519.1084337349398" type="line"/>
      <point x="478.46987951807233" y="443.6867469879518" type="line"/>
      <point x="437.89156626506025" y="475.13253012048193"/>
      <point x="388.0240963855422" y="493.0"/>
      <point x="333.86746987951807" y="493.0" type="curve" smooth="yes"/>
      <point x="279.421686746988" y="493.0"/>
      <point x="228.26506024096383" y="474.13253012048193"/>
      <point x="187.97590361445782" y="442.3975903614458" type="curve"/>
      <point x="113.97590361445783" y="517.6867469879518" type="line"/>
      <point x="67.60240963855422" y="471.0240963855422" type="line"/>
      <point x="140.89156626506022" y="395.73493975903614" type="line"/>
      <point x="110.02409638554217" y="353.73493975903614"/>
      <point x="92.44578313253012" y="301.578313253012"/>
      <point x="92.44578313253012" y="245.0" type="curve" smooth="yes"/>
      <point x="92.44578313253012" y="189.13253012048193"/>
      <point x="111.02409638554217" y="136.26506024096386"/>
      <point x="140.89156626506022" y="94.97590361445783" type="curve"/>
      <point x="67.60240963855422" y="19.686746987951807" type="line"/>
    </contour>
    <contour>
      <point x="333.5783132530121" y="81.22891566265059" type="curve" smooth="yes"/>
      <point x="247.48192771084337" y="81.22891566265059"/>
      <point x="179.25301204819274" y="154.4578313253012"/>
      <point x="179.25301204819274" y="245.0" type="curve" smooth="yes"/>
      <point x="179.25301204819274" y="336.2530120481928"/>
      <point x="248.19277108433735" y="409.1927710843373"/>
      <point x="333.5783132530121" y="409.48192771084337" type="curve" smooth="yes"/>
      <point x="418.5421686746988" y="409.7710843373494"/>
      <point x="487.1927710843374" y="336.2530120481928"/>
      <point x="487.1927710843374" y="245.0" type="curve" smooth="yes"/>
      <point x="487.1927710843374" y="154.4578313253012"/>
      <point x="418.5421686746988" y="81.22891566265059"/>
    </contour>
  </outline>
</glyph>
<glyph name="yen" format="2">
  <advance width="600.0"/>
  <unicode hex="00A5"/>
  <outline>
    <contour>
      <point x="208.43373493975903" y="0.0" type="line"/>
      <point x="311.56626506024094" y="0.0" type="line"/>
      <point x="339.433734939759" y="172.65060240963857" type="line"/>
      <point x="517.5542168674699" y="172.65060240963857" type="line"/>
      <point x="527.1084337349397" y="235.66265060240963" type="line"/>
      <point x="348.9879518072289" y="235.66265060240963" type="line"/>
      <point x="363.433734939759" y="326.9156626506024" type="line"/>
      <point x="541.5542168674699" y="326.9156626506024" type="line"/>
      <point x="551.5301204819277" y="389.9277108433735" type="line"/>
      <point x="400.12048192771084" y="389.9277108433735" type="line"/>
      <point x="398.4096385542169" y="377.2409638554217" type="line"/>
      <point x="681.9277108433735" y="705.0" type="line"/>
      <point x="564.2409638554218" y="705.0" type="line"/>
      <point x="307.0" y="403.93975903614455" type="line"/>
      <point x="331.95180722891564" y="403.93975903614455" type="line"/>
      <point x="171.6265060240964" y="705.0" type="line"/>
      <point x="62.07228915662651" y="705.0" type="line"/>
      <point x="241.72289156626505" y="377.2409638554217" type="line"/>
      <point x="243.43373493975903" y="389.9277108433735" type="line"/>
      <point x="92.1566265060241" y="389.9277108433735" type="line"/>
      <point x="82.18072289156626" y="326.9156626506024" type="line"/>
      <point x="260.3012048192771" y="326.9156626506024" type="line"/>
      <point x="245.85542168674698" y="235.66265060240963" type="line"/>
      <point x="67.73493975903614" y="235.66265060240963" type="line"/>
      <point x="58.18072289156626" y="172.65060240963857" type="line"/>
      <point x="235.59036144578312" y="172.65060240963857" type="line"/>
    </contour>
  </outline>
</glyph>
<glyph name="section" format="2">
  <advance width="554.6084337349398"/>
  <unicode hex="00A7"/>
  <outline>
    <contour>
      <point x="210.3012048192771" y="-189.42168674698794" type="curve" smooth="yes"/>
      <point x="336.4096385542169" y="-189.42168674698794"/>
      <point x="439.51807228915663" y="-116.26506024096386"/>
      <point x="439.51807228915663" y="3.240963855421686" type="curve" smooth="yes"/>
      <point x="439.51807228915663" y="29.795180722891562"/>
      <point x="434.3855421686747" y="52.9277108433735"/>
      <point x="421.83132530120486" y="75.06024096385542" type="curve"/>
      <point x="419.12048192771084" y="58.373493975903614" type="line"/>
      <point x="479.5180722891566" y="95.79518072289156"/>
      <point x="513.0722891566265" y="150.0843373493976"/>
      <point x="513.0722891566265" y="213.4578313253012" type="curve" smooth="yes"/>
      <point x="513.0722891566265" y="273.16867469879514"/>
      <point x="473.49397590361446" y="324.3012048192771"/>
      <point x="394.7590361445783" y="369.03614457831327" type="curve" smooth="yes"/>
      <point x="289.27710843373495" y="428.855421686747" type="line" smooth="yes"/>
      <point x="237.0722891566265" y="458.6144578313253"/>
      <point x="217.33734939759034" y="483.6385542168675"/>
      <point x="217.33734939759034" y="530.4216867469879" type="curve" smooth="yes"/>
      <point x="217.33734939759034" y="594.0722891566264"/>
      <point x="268.5421686746988" y="640.5903614457832"/>
      <point x="351.95180722891564" y="640.5903614457832" type="curve" smooth="yes"/>
      <point x="410.26506024096386" y="640.5903614457832"/>
      <point x="475.9759036144578" y="618.5903614457832"/>
      <point x="517.0843373493976" y="583.144578313253" type="curve"/>
      <point x="549.7469879518072" y="649.2650602409639" type="line"/>
      <point x="496.7951807228915" y="694.4216867469879"/>
      <point x="425.5301204819277" y="714.4216867469879"/>
      <point x="349.5301204819277" y="714.4216867469879" type="curve" smooth="yes"/>
      <point x="222.42168674698794" y="714.4216867469879"/>
      <point x="119.3132530120482" y="640.5542168674699"/>
      <point x="119.3132530120482" y="523.1807228915663" type="curve" smooth="yes"/>
      <point x="119.3132530120482" y="496.9156626506024"/>
      <point x="124.44578313253012" y="474.7831325301205"/>
      <point x="134.57831325301206" y="453.0722891566265" type="curve"/>
      <point x="138.0" y="465.20481927710847" type="line"/>
      <point x="77.6024096385542" y="427.49397590361446"/>
      <point x="45.46987951807229" y="374.91566265060237"/>
      <point x="45.46987951807229" y="311.54216867469876" type="curve" smooth="yes"/>
      <point x="45.46987951807229" y="251.12048192771084"/>
      <point x="85.62650602409639" y="198.9879518072289"/>
      <point x="161.49397590361446" y="155.25301204819277" type="curve" smooth="yes"/>
      <point x="269.55421686746985" y="93.56626506024097" type="line" smooth="yes"/>
      <point x="320.4698795180723" y="63.80722891566265"/>
      <point x="341.49397590361446" y="41.36144578313253"/>
      <point x="341.49397590361446" y="-6.132530120481928" type="curve" smooth="yes"/>
      <point x="341.49397590361446" y="-69.0722891566265"/>
      <point x="290.28915662650604" y="-115.59036144578313"/>
      <point x="207.1686746987952" y="-115.59036144578313" type="curve" smooth="yes"/>
      <point x="136.9879518072289" y="-115.59036144578313"/>
      <point x="71.87951807228916" y="-94.03614457831326"/>
      <point x="27.746987951807228" y="-54.87951807228916" type="curve"/>
      <point x="-9.759036144578314" y="-122.71084337349399" type="line"/>
      <point x="46.74698795180723" y="-166.13253012048193"/>
      <point x="121.56626506024095" y="-189.42168674698794"/>
    </contour>
    <contour>
      <point x="136.51807228915663" y="328.6265060240964" type="curve" smooth="yes"/>
      <point x="136.51807228915663" y="356.9397590361446"/>
      <point x="150.83132530120483" y="391.12048192771084"/>
      <point x="181.30120481927707" y="418.69879518072287" type="curve"/>
      <point x="167.6144578313253" y="415.433734939759" type="line"/>
      <point x="183.34939759036143" y="391.3855421686747"/>
      <point x="210.10843373493975" y="373.2048192771084"/>
      <point x="242.60240963855424" y="352.73493975903614" type="curve" smooth="yes"/>
      <point x="335.9277108433735" y="300.6265060240964" type="line" smooth="yes"/>
      <point x="391.710843373494" y="266.578313253012"/>
      <point x="422.3132530120482" y="236.84337349397592"/>
      <point x="422.3132530120482" y="196.3734939759036" type="curve" smooth="yes"/>
      <point x="422.3132530120482" y="168.7710843373494"/>
      <point x="407.71084337349396" y="135.3012048192771"/>
      <point x="378.95180722891564" y="108.855421686747" type="curve"/>
      <point x="391.50602409638554" y="107.98795180722891" type="line"/>
      <point x="375.7710843373494" y="131.03614457831327"/>
      <point x="350.0120481927711" y="148.9277108433735"/>
      <point x="316.5180722891566" y="169.6867469879518" type="curve" smooth="yes"/>
      <point x="220.32530120481925" y="224.3734939759036" type="line" smooth="yes"/>
      <point x="166.12048192771084" y="256.4216867469879"/>
      <point x="136.51807228915663" y="287.4457831325301"/>
    </contour>
  </outline>
</glyph>
<glyph name="copyright" format="2">
  <advance width="815.0"/>
  <unicode hex="00A9"/>
  <outline>
    <contour>
      <point x="429.0" y="-9.421686746987952" type="curve" smooth="yes"/>
      <point x="633.710843373494" y="-9.421686746987952"/>
      <point x="790.4216867469879" y="148.289156626506"/>
      <point x="790.4216867469879" y="353.0" type="curve" smooth="yes"/>
      <point x="790.4216867469879" y="557.710843373494"/>
      <point x="633.710843373494" y="714.4216867469879"/>
      <point x="429.0" y="714.4216867469879" type="curve" smooth="yes"/>
      <point x="223.289156626506" y="714.4216867469879"/>
      <point x="66.57831325301206" y="557.710843373494"/>
      <point x="66.57831325301206" y="353.0" type="curve" smooth="yes"/>
      <point x="66.57831325301206" y="148.289156626506"/>
      <point x="223.57831325301206" y="-9.421686746987952"/>
    </contour>
    <contour>
      <point x="443.68674698795184" y="137.0" type="curve" smooth="yes"/>
      <point x="495.3975903614458" y="137.0"/>
      <point x="553.5301204819277" y="156.86746987951807"/>
      <point x="587.5301204819277" y="188.3132530120482" type="curve"/>
      <point x="560.289156626506" y="251.16867469879517" type="line"/>
      <point x="526.9759036144578" y="221.27710843373495"/>
      <point x="487.66265060240966" y="207.6987951807229"/>
      <point x="449.7951807228916" y="207.6987951807229" type="curve" smooth="yes"/>
      <point x="368.56626506024094" y="207.6987951807229"/>
      <point x="319.51807228915663" y="263.48192771084337"/>
      <point x="319.51807228915663" y="354.28915662650604" type="curve" smooth="yes"/>
      <point x="319.51807228915663" y="445.3855421686747"/>
      <point x="368.56626506024094" y="498.0120481927711"/>
      <point x="449.7951807228916" y="498.0120481927711" type="curve" smooth="yes"/>
      <point x="487.66265060240966" y="498.0120481927711"/>
      <point x="526.9759036144578" y="484.0120481927711"/>
      <point x="560.289156626506" y="454.8313253012048" type="curve"/>
      <point x="587.5301204819277" y="517.3975903614457" type="line"/>
      <point x="553.5301204819277" y="548.843373493976"/>
      <point x="496.68674698795184" y="568.0"/>
      <point x="443.68674698795184" y="568.0" type="curve" smooth="yes"/>
      <point x="313.0" y="568.0"/>
      <point x="232.3132530120482" y="487.0"/>
      <point x="232.3132530120482" y="354.578313253012" type="curve" smooth="yes"/>
      <point x="232.3132530120482" y="222.86746987951807"/>
      <point x="313.0" y="137.0"/>
    </contour>
    <contour>
      <point x="429.0" y="38.66265060240964" type="curve" smooth="yes"/>
      <point x="250.26506024096383" y="38.66265060240964"/>
      <point x="117.08433734939759" y="174.6867469879518"/>
      <point x="117.08433734939759" y="353.0" type="curve" smooth="yes"/>
      <point x="117.08433734939759" y="531.3132530120482"/>
      <point x="250.26506024096383" y="666.3373493975904"/>
      <point x="429.0" y="666.3373493975904" type="curve" smooth="yes"/>
      <point x="606.0240963855422" y="666.3373493975904"/>
      <point x="739.9156626506024" y="531.3132530120482"/>
      <point x="739.9156626506024" y="353.0" type="curve" smooth="yes"/>
      <point x="739.9156626506024" y="174.6867469879518"/>
      <point x="606.0240963855422" y="38.66265060240964"/>
    </contour>
  </outline>
</glyph>
<glyph name="ordfeminine" format="2">
  <advance width="332.54819277108436"/>
  <unicode hex="00AA"/>
  <outline>
    <contour>
      <point x="160.0" y="409.4457831325301" type="curve" smooth="yes"/>
      <point x="204.57831325301206" y="409.4457831325301"/>
      <point x="238.44578313253012" y="428.578313253012"/>
      <point x="263.73493975903614" y="469.578313253012" type="curve"/>
      <point x="266.4457831325301" y="469.578313253012" type="line"/>
      <point x="257.73493975903614" y="415.1566265060241" type="line"/>
      <point x="321.30120481927713" y="415.1566265060241" type="line"/>
      <point x="349.30120481927713" y="588.6024096385543" type="line" smooth="yes"/>
      <point x="363.0120481927711" y="673.1566265060242"/>
      <point x="322.45783132530124" y="714.4216867469879"/>
      <point x="231.6867469879518" y="714.4216867469879" type="curve" smooth="yes"/>
      <point x="187.55421686746988" y="714.4216867469879"/>
      <point x="134.73493975903614" y="702.710843373494"/>
      <point x="99.02409638554217" y="683.1325301204819" type="curve"/>
      <point x="115.28915662650603" y="634.2289156626506" type="line"/>
      <point x="149.13253012048193" y="653.5180722891566"/>
      <point x="189.55421686746988" y="662.0963855421687"/>
      <point x="222.71084337349396" y="662.0963855421687" type="curve" smooth="yes"/>
      <point x="271.7349397590362" y="662.0963855421687"/>
      <point x="290.46987951807233" y="641.3614457831326"/>
      <point x="284.60240963855426" y="601.7349397590361" type="curve" smooth="yes"/>
      <point x="275.60240963855426" y="544.0240963855422" type="line" smooth="yes"/>
      <point x="266.7349397590362" y="490.10843373493975"/>
      <point x="227.55421686746988" y="457.50602409638554"/>
      <point x="179.63855421686748" y="457.50602409638554" type="curve" smooth="yes"/>
      <point x="141.30120481927707" y="457.50602409638554"/>
      <point x="126.14457831325302" y="477.5301204819277"/>
      <point x="130.72289156626505" y="505.421686746988" type="curve" smooth="yes"/>
      <point x="135.01204819277106" y="533.7349397590361"/>
      <point x="162.90361445783134" y="548.1807228915662"/>
      <point x="213.66265060240966" y="548.1807228915662" type="curve" smooth="yes"/>
      <point x="284.0240963855421" y="548.1807228915662" type="line"/>
      <point x="291.15662650602405" y="587.843373493976" type="line"/>
      <point x="220.9277108433735" y="587.843373493976" type="line" smooth="yes"/>
      <point x="131.89156626506022" y="587.843373493976"/>
      <point x="72.73493975903614" y="568.0"/>
      <point x="62.734939759036145" y="507.55421686746985" type="curve" smooth="yes"/>
      <point x="54.024096385542165" y="449.86746987951807"/>
      <point x="94.71084337349399" y="409.4457831325301"/>
    </contour>
  </outline>
</glyph>
<glyph name="registered" format="2">
  <advance width="815.0"/>
  <unicode hex="00AE"/>
  <outline>
    <contour>
      <point x="429.0" y="-9.421686746987952" type="curve" smooth="yes"/>
      <point x="633.710843373494" y="-9.421686746987952"/>
      <point x="790.4216867469879" y="148.289156626506"/>
      <point x="790.4216867469879" y="353.0" type="curve" smooth="yes"/>
      <point x="790.4216867469879" y="557.710843373494"/>
      <point x="633.710843373494" y="714.4216867469879"/>
      <point x="429.0" y="714.4216867469879" type="curve" smooth="yes"/>
      <point x="223.289156626506" y="714.4216867469879"/>
      <point x="66.57831325301206" y="557.710843373494"/>
      <point x="66.57831325301206" y="353.0" type="curve" smooth="yes"/>
      <point x="66.57831325301206" y="148.289156626506"/>
      <point x="223.57831325301206" y="-9.421686746987952"/>
    </contour>
    <contour>
      <point x="429.0" y="38.66265060240964" type="curve" smooth="yes"/>
      <point x="250.26506024096383" y="38.66265060240964"/>
      <point x="117.08433734939759" y="174.6867469879518"/>
      <point x="117.08433734939759" y="353.0" type="curve" smooth="yes"/>
      <point x="117.08433734939759" y="531.3132530120482"/>
      <point x="250.26506024096383" y="666.3373493975904"/>
      <point x="429.0" y="666.3373493975904" type="curve" smooth="yes"/>
      <point x="606.0240963855422" y="666.3373493975904"/>
      <point x="739.9156626506024" y="531.3132530120482"/>
      <point x="739.9156626506024" y="353.0" type="curve" smooth="yes"/>
      <point x="739.9156626506024" y="174.6867469879518"/>
      <point x="606.0240963855422" y="38.66265060240964"/>
    </contour>
    <contour>
      <point x="279.07228915662654" y="142.0" type="line"/>
      <point x="359.87951807228916" y="142.0" type="line"/>
      <point x="359.87951807228916" y="319.9156626506024" type="line"/>
      <point x="345.32530120481925" y="309.49397590361446" type="line"/>
      <point x="412.710843373494" y="309.49397590361446" type="line" smooth="yes"/>
      <point x="444.4698795180723" y="309.49397590361446"/>
      <point x="466.3614457831325" y="300.9156626506024"/>
      <point x="478.0963855421687" y="269.6024096385542" type="curve" smooth="yes"/>
      <point x="522.722891566265" y="142.0" type="line"/>
      <point x="604.1084337349398" y="142.0" type="line"/>
      <point x="560.6144578313254" y="263.93975903614455" type="line" smooth="yes"/>
      <point x="544.6144578313254" y="316.4457831325301"/>
      <point x="518.0361445783133" y="332.578313253012"/>
      <point x="475.7710843373494" y="332.578313253012" type="curve"/>
      <point x="459.26506024096386" y="322.1566265060241" type="line"/>
      <point x="548.3975903614457" y="322.1566265060241"/>
      <point x="599.5301204819277" y="364.1566265060241"/>
      <point x="599.5301204819277" y="440.86746987951807" type="curve" smooth="yes"/>
      <point x="599.5301204819277" y="515.7349397590361"/>
      <point x="547.9759036144578" y="564.4216867469879"/>
      <point x="456.71084337349396" y="564.4216867469879" type="curve" smooth="yes"/>
      <point x="279.07228915662654" y="564.4216867469879" type="line"/>
    </contour>
    <contour>
      <point x="359.1686746987952" y="371.3734939759036" type="line"/>
      <point x="359.1686746987952" y="502.5421686746988" type="line"/>
      <point x="445.3132530120482" y="502.5421686746988" type="line" smooth="yes"/>
      <point x="497.67469879518075" y="502.5421686746988"/>
      <point x="522.277108433735" y="481.93975903614455"/>
      <point x="522.277108433735" y="437.3132530120482" type="curve" smooth="yes"/>
      <point x="522.277108433735" y="391.6867469879518"/>
      <point x="497.3855421686747" y="371.3734939759036"/>
      <point x="445.3132530120482" y="371.3734939759036" type="curve" smooth="yes"/>
    </contour>
  </outline>
</glyph>
<glyph name="degree" format="2">
  <advance width="374.66265060240966"/>
  <unicode hex="00B0"/>
  <outline>
    <contour>
      <point x="237.97590361445782" y="411.07228915662654" type="curve" smooth="yes"/>
      <point x="324.08433734939763" y="411.07228915662654"/>
      <point x="389.06024096385545" y="475.6265060240964"/>
      <point x="389.06024096385545" y="561.6024096385541" type="curve" smooth="yes"/>
      <point x="389.06024096385545" y="647.5783132530121"/>
      <point x="324.08433734939763" y="712.1325301204819"/>
      <point x="237.97590361445782" y="712.1325301204819" type="curve" smooth="yes"/>
      <point x="150.86746987951807" y="712.1325301204819"/>
      <point x="85.60240963855422" y="647.289156626506"/>
      <point x="85.60240963855422" y="561.6024096385541" type="curve" smooth="yes"/>
      <point x="85.60240963855422" y="475.91566265060237"/>
      <point x="150.86746987951807" y="411.07228915662654"/>
    </contour>
    <contour>
      <point x="237.97590361445782" y="473.10843373493975" type="curve" smooth="yes"/>
      <point x="187.79518072289156" y="473.10843373493975"/>
      <point x="152.77108433734938" y="510.1325301204819"/>
      <point x="152.77108433734938" y="561.6024096385541" type="curve" smooth="yes"/>
      <point x="152.77108433734938" y="613.0722891566264"/>
      <point x="187.79518072289156" y="650.0963855421686"/>
      <point x="237.97590361445782" y="650.0963855421686" type="curve" smooth="yes"/>
      <point x="287.44578313253015" y="650.0963855421686"/>
      <point x="322.1807228915663" y="613.0722891566264"/>
      <point x="322.1807228915663" y="561.6024096385541" type="curve" smooth="yes"/>
      <point x="322.1807228915663" y="510.1325301204819"/>
      <point x="287.44578313253015" y="473.10843373493975"/>
    </contour>
  </outline>
</glyph>
<glyph name="plusminus" format="2">
  <advance width="600.0"/>
  <unicode hex="00B1"/>
  <outline>
    <contour>
      <point x="243.65060240963854" y="132.63855421686745" type="line"/>
      <point x="319.90361445783134" y="132.63855421686745" type="line"/>
      <point x="345.34939759036143" y="294.4698795180723" type="line"/>
      <point x="552.1566265060242" y="294.4698795180723" type="line"/>
      <point x="562.5542168674699" y="368.30120481927713" type="line"/>
      <point x="357.32530120481925" y="368.30120481927713" type="line"/>
      <point x="382.7710843373494" y="530.1325301204819" type="line"/>
      <point x="306.51807228915663" y="530.1325301204819" type="line"/>
      <point x="281.0722891566265" y="368.30120481927713" type="line"/>
      <point x="71.6867469879518" y="368.30120481927713" type="line"/>
      <point x="60.0" y="294.4698795180723" type="line"/>
      <point x="269.09638554216866" y="294.4698795180723" type="line"/>
    </contour>
    <contour>
      <point x="13.421686746987952" y="0.0" type="line"/>
      <point x="505.5783132530121" y="0.0" type="line"/>
      <point x="517.2650602409639" y="73.83132530120481" type="line"/>
      <point x="25.10843373493976" y="73.83132530120481" type="line"/>
    </contour>
  </outline>
</glyph>
<glyph name="micro" format="2">
  <advance width="574.8614457831326"/>
  <unicode hex="00B5"/>
  <outline>
    <contour>
      <point x="-4.7710843373493965" y="-216.0" type="line"/>
      <point x="96.93975903614458" y="-216.0" type="line"/>
      <point x="130.5421686746988" y="51.93975903614458" type="line"/>
      <point x="126.80722891566266" y="50.65060240963855" type="line"/>
      <point x="144.83132530120483" y="11.313253012048193"/>
      <point x="184.87951807228916" y="-9.421686746987952"/>
      <point x="237.66265060240966" y="-9.421686746987952" type="curve" smooth="yes"/>
      <point x="308.0481927710843" y="-9.421686746987952"/>
      <point x="361.6987951807229" y="34.89156626506024"/>
      <point x="389.0120481927711" y="107.49397590361446" type="curve"/>
      <point x="382.9879518072289" y="107.49397590361446" type="line"/>
      <point x="366.12048192771084" y="0.0" type="line"/>
      <point x="464.69879518072287" y="0.0" type="line"/>
      <point x="542.4096385542168" y="503.5542168674699" type="line"/>
      <point x="441.4096385542168" y="503.5542168674699" type="line"/>
      <point x="399.4096385542168" y="227.8433734939759" type="line" smooth="yes"/>
      <point x="384.96385542168673" y="132.87951807228916"/>
      <point x="331.46987951807233" y="72.22891566265059"/>
      <point x="245.7710843373494" y="72.22891566265059" type="curve" smooth="yes"/>
      <point x="177.25301204819277" y="72.22891566265059"/>
      <point x="148.9156626506024" y="112.56626506024097"/>
      <point x="162.36144578313252" y="198.97590361445785" type="curve" smooth="yes"/>
      <point x="208.65060240963857" y="503.5542168674699" type="line"/>
      <point x="107.65060240963855" y="503.5542168674699" type="line"/>
    </contour>
  </outline>
</glyph>
<glyph name="paragraph" format="2">
  <advance width="613.7168674698795"/>
  <unicode hex="00B6"/>
  <outline>
    <contour>
      <point x="183.26506024096386" y="-180.0" type="line"/>
      <point x="260.09638554216866" y="-180.0" type="line"/>
      <point x="388.4096385542168" y="629.3253012048193" type="line"/>
      <point x="513.0602409638554" y="629.3253012048193" type="line"/>
      <point x="384.7469879518072" y="-180.0" type="line"/>
      <point x="461.5783132530121" y="-180.0" type="line"/>
      <point x="601.5783132530121" y="705.0" type="line"/>
      <point x="319.39759036144574" y="705.0" type="line" smooth="yes"/>
      <point x="179.3132530120482" y="705.0"/>
      <point x="79.07228915662651" y="611.8915662650603"/>
      <point x="79.07228915662651" y="472.67469879518075" type="curve" smooth="yes"/>
      <point x="79.07228915662651" y="373.0120481927711"/>
      <point x="148.18072289156626" y="295.90361445783134"/>
      <point x="258.5783132530121" y="295.90361445783134" type="curve"/>
    </contour>
  </outline>
</glyph>
<glyph name="periodcentered" format="2">
  <advance width="240.3012048192771"/>
  <unicode hex="00B7"/>
  <outline>
    <contour>
      <point x="54.36144578313254" y="215.25301204819277" type="line"/>
      <point x="174.83132530120483" y="215.25301204819277" type="line"/>
      <point x="192.93975903614458" y="334.30120481927713" type="line"/>
      <point x="73.18072289156626" y="334.30120481927713" type="line"/>
    </contour>
  </outline>
</glyph>
<glyph name="ordmasculine" format="2">
  <advance width="347.90361445783134"/>
  <unicode hex="00BA"/>
  <outline>
    <contour>
      <point x="205.3734939759036" y="410.1566265060241" type="curve" smooth="yes"/>
      <point x="295.16867469879514" y="410.1566265060241"/>
      <point x="358.87951807228916" y="464.71084337349396"/>
      <point x="373.1686746987952" y="555.8674698795181" type="curve" smooth="yes"/>
      <point x="389.1686746987952" y="657.578313253012"/>
      <point x="332.90361445783134" y="714.4216867469879"/>
      <point x="240.53012048192772" y="714.4216867469879" type="curve" smooth="yes"/>
      <point x="151.44578313253012" y="714.4216867469879"/>
      <point x="86.73493975903614" y="660.578313253012"/>
      <point x="72.73493975903614" y="569.4216867469879" type="curve" smooth="yes"/>
      <point x="57.734939759036145" y="468.71084337349396"/>
      <point x="113.71084337349399" y="410.1566265060241"/>
    </contour>
    <contour>
      <point x="208.7951807228916" y="463.90361445783134" type="curve" smooth="yes"/>
      <point x="156.87951807228916" y="463.90361445783134"/>
      <point x="130.56626506024097" y="498.0843373493976"/>
      <point x="141.14457831325302" y="563.0" type="curve" smooth="yes"/>
      <point x="151.0120481927711" y="627.9156626506024"/>
      <point x="188.4819277108434" y="661.3855421686746"/>
      <point x="237.81927710843374" y="661.3855421686746" type="curve" smooth="yes"/>
      <point x="289.0240963855422" y="661.3855421686746"/>
      <point x="315.33734939759034" y="627.2048192771084"/>
      <point x="305.4698795180723" y="563.0" type="curve" smooth="yes"/>
      <point x="294.89156626506025" y="498.7951807228916"/>
      <point x="257.421686746988" y="463.90361445783134"/>
    </contour>
  </outline>
</glyph>
<glyph name="questiondown" format="2">
  <advance width="454.68072289156623"/>
  <unicode hex="00BF"/>
  <outline>
    <contour>
      <point x="154.95180722891567" y="-205.89156626506025" type="curve" smooth="yes"/>
      <point x="209.34939759036146" y="-205.89156626506025"/>
      <point x="271.72289156626505" y="-192.6265060240964"/>
      <point x="319.9879518072289" y="-167.36144578313252" type="curve"/>
      <point x="334.09638554216866" y="-78.0" type="line"/>
      <point x="286.5421686746988" y="-102.8433734939759"/>
      <point x="234.855421686747" y="-119.39759036144578"/>
      <point x="181.56626506024094" y="-119.39759036144578" type="curve" smooth="yes"/>
      <point x="121.49397590361444" y="-119.39759036144578"/>
      <point x="86.44578313253011" y="-94.21686746987953"/>
      <point x="86.44578313253011" y="-50.72289156626506" type="curve" smooth="yes"/>
      <point x="86.44578313253011" y="4.7951807228915655"/>
      <point x="130.5180722891566" y="54.86746987951807"/>
      <point x="172.8313253012048" y="93.75903614457832" type="curve" smooth="yes"/>
      <point x="251.32530120481928" y="166.40963855421685"/>
      <point x="276.7710843373494" y="215.72289156626505"/>
      <point x="287.7710843373494" y="279.6144578313253" type="curve" smooth="yes"/>
      <point x="292.9036144578313" y="308.855421686747" type="line"/>
      <point x="230.20481927710844" y="308.855421686747" type="line"/>
      <point x="223.0722891566265" y="287.566265060241" type="line" smooth="yes"/>
      <point x="209.7831325301205" y="241.49397590361446"/>
      <point x="183.46987951807228" y="199.18072289156626"/>
      <point x="106.60240963855422" y="134.97590361445782" type="curve" smooth="yes"/>
      <point x="42.20481927710843" y="82.95180722891565"/>
      <point x="-18.686746987951807" y="18.216867469879517"/>
      <point x="-18.686746987951807" y="-69.2289156626506" type="curve" smooth="yes"/>
      <point x="-18.686746987951807" y="-151.9156626506024"/>
      <point x="50.55421686746988" y="-205.89156626506025"/>
    </contour>
    <contour>
      <point x="353.12048192771084" y="503.5542168674699" type="line"/>
      <point x="232.93975903614458" y="503.5542168674699" type="line"/>
      <point x="214.12048192771084" y="385.2168674698795" type="line"/>
      <point x="334.30120481927713" y="385.2168674698795" type="line"/>
    </contour>
  </outline>
</glyph>
<glyph name="AE" format="2">
  <advance width="1010.9277108433736"/>
  <unicode hex="00C6"/>
  <anchor x="477.84337349397595" y="0.0" name="bottom"/>
  <anchor x="589.5542168674699" y="705.0" name="top"/>
  <outline>
    <contour>
      <point x="-50.16867469879518" y="0.0" type="line"/>
      <point x="67.51807228915663" y="0.0" type="line"/>
      <point x="219.1204819277108" y="199.89156626506025" type="line"/>
      <point x="178.06024096385542" y="172.25301204819277" type="line"/>
      <point x="555.4457831325301" y="172.25301204819277" type="line"/>
      <point x="531.4457831325301" y="195.1566265060241" type="line"/>
      <point x="518.0240963855422" y="0.0" type="line"/>
      <point x="924.5903614457832" y="0.0" type="line"/>
      <point x="937.698795180723" y="83.78313253012048" type="line"/>
      <point x="608.4939759036145" y="83.78313253012048" type="line"/>
      <point x="618.1807228915662" y="58.3855421686747" type="line"/>
      <point x="636.0481927710844" y="325.96385542168673" type="line"/>
      <point x="619.2289156626506" y="315.96385542168673" type="line"/>
      <point x="953.3253012048192" y="315.96385542168673" type="line"/>
      <point x="966.433734939759" y="399.7469879518072" type="line"/>
      <point x="627.0240963855422" y="399.7469879518072" type="line"/>
      <point x="640.1807228915662" y="371.6867469879518" type="line"/>
      <point x="659.4698795180723" y="643.7951807228916" type="line"/>
      <point x="633.3373493975903" y="621.9277108433735" type="line"/>
      <point x="1022.4819277108434" y="621.9277108433735" type="line"/>
      <point x="1036.5903614457832" y="705.0" type="line"/>
      <point x="494.7831325301205" y="705.0" type="line"/>
    </contour>
    <contour>
      <point x="536.1084337349397" y="620.9277108433735" type="line"/>
      <point x="562.8674698795181" y="620.9277108433735" type="line"/>
      <point x="535.156626506024" y="228.55421686746988" type="line"/>
      <point x="548.843373493976" y="256.03614457831327" type="line"/>
      <point x="233.20481927710844" y="256.03614457831327" type="line"/>
      <point x="241.78313253012047" y="231.10843373493975" type="line"/>
    </contour>
  </outline>
</glyph>
<glyph name="multiply" format="2">
  <advance width="600.0"/>
  <unicode hex="00D7"/>
  <outline>
    <contour>
      <point x="116.59036144578313" y="50.42168674698795" type="line"/>
      <point x="314.28915662650604" y="232.25301204819277" type="line"/>
      <point x="480.2530120481928" y="50.42168674698795" type="line"/>
      <point x="533.1325301204819" y="102.59036144578313" type="line"/>
      <point x="368.45783132530124" y="284.13253012048193" type="line"/>
      <point x="567.4457831325301" y="466.54216867469876" type="line"/>
      <point x="516.6987951807229" y="519.4216867469879" type="line"/>
      <point x="319.0" y="337.5903614457831" type="line"/>
      <point x="153.03614457831327" y="519.4216867469879" type="line"/>
      <point x="99.44578313253012" y="466.54216867469876" type="line"/>
      <point x="264.1204819277109" y="286.710843373494" type="line"/>
      <point x="65.13253012048193" y="102.59036144578313" type="line"/>
    </contour>
  </outline>
</glyph>
<glyph name="Thorn" format="2">
  <advance width="658.6144578313254"/>
  <unicode hex="00DE"/>
  <anchor x="290.34939759036143" y="0.0" name="bottom"/>
  <anchor x="401.6385542168675" y="705.0" name="top"/>
  <outline>
    <contour>
      <point x="43.493975903614455" y="0.0" type="line"/>
      <point x="147.33734939759034" y="0.0" type="line"/>
      <point x="172.9156626506024" y="163.89156626506025" type="line"/>
      <point x="374.77108433734935" y="163.89156626506025" type="line" smooth="yes"/>
      <point x="522.4096385542168" y="163.89156626506025"/>
      <point x="613.9879518072289" y="235.8433734939759"/>
      <point x="632.9879518072289" y="357.13253012048193" type="curve" smooth="yes"/>
      <point x="653.6987951807229" y="491.81927710843377"/>
      <point x="580.855421686747" y="575.3493975903615"/>
      <point x="423.1927710843373" y="575.3493975903615" type="curve" smooth="yes"/>
      <point x="238.46987951807228" y="575.3493975903615" type="line"/>
      <point x="259.33734939759034" y="705.0" type="line"/>
      <point x="155.49397590361446" y="705.0" type="line"/>
    </contour>
    <contour>
      <point x="186.02409638554215" y="247.67469879518072" type="line"/>
      <point x="225.07228915662648" y="492.27710843373495" type="line"/>
      <point x="407.3975903614458" y="492.27710843373495" type="line" smooth="yes"/>
      <point x="503.3614457831325" y="492.27710843373495"/>
      <point x="545.5662650602409" y="447.65060240963857"/>
      <point x="532.1204819277108" y="364.6867469879518" type="curve" smooth="yes"/>
      <point x="519.6746987951807" y="286.72289156626505"/>
      <point x="465.0240963855421" y="247.67469879518072"/>
      <point x="369.48192771084337" y="247.67469879518072" type="curve" smooth="yes"/>
    </contour>
  </outline>
</glyph>
<glyph name="germandbls" format="2">
  <advance width="651.9578313253012"/>
  <unicode hex="00DF"/>
  <outline>
    <contour>
      <point x="33.78313253012048" y="0.0" type="line"/>
      <point x="134.7831325301205" y="0.0" type="line"/>
      <point x="213.65060240963857" y="496.3614457831325" type="line" smooth="yes"/>
      <point x="232.22891566265062" y="614.8313253012049"/>
      <point x="288.2530120481928" y="666.4578313253012"/>
      <point x="386.48192771084337" y="666.4578313253012" type="curve" smooth="yes"/>
      <point x="464.9759036144578" y="666.4578313253012"/>
      <point x="501.71084337349396" y="626.144578313253"/>
      <point x="490.13253012048193" y="557.9397590361446" type="curve" smooth="yes"/>
      <point x="481.26506024096386" y="497.73493975903614"/>
      <point x="439.50602409638554" y="447.8192771084337"/>
      <point x="310.6987951807229" y="404.6144578313253" type="curve"/>
      <point x="298.30120481927713" y="326.09638554216866" type="line"/>
      <point x="477.8192771084337" y="277.9156626506024"/>
      <point x="521.1084337349398" y="225.02409638554218"/>
      <point x="511.24096385542174" y="158.81927710843374" type="curve" smooth="yes"/>
      <point x="502.08433734939763" y="99.3012048192771"/>
      <point x="457.5903614457832" y="66.54216867469879"/>
      <point x="389.6506024096385" y="66.54216867469879" type="curve" smooth="yes"/>
      <point x="334.6265060240964" y="66.54216867469879"/>
      <point x="287.91566265060237" y="82.83132530120481"/>
      <point x="242.49397590361446" y="113.27710843373494" type="curve"/>
      <point x="211.12048192771084" y="43.73493975903615" type="line"/>
      <point x="252.51807228915658" y="11.44578313253012"/>
      <point x="311.6746987951807" y="-9.421686746987952"/>
      <point x="391.91566265060237" y="-9.421686746987952" type="curve" smooth="yes"/>
      <point x="506.46987951807233" y="-9.421686746987952"/>
      <point x="591.1325301204819" y="49.44578313253012"/>
      <point x="607.2650602409637" y="151.95180722891567" type="curve" smooth="yes"/>
      <point x="624.9759036144578" y="264.77108433734935"/>
      <point x="551.7349397590361" y="333.0843373493976"/>
      <point x="384.66265060240966" y="381.10843373493975" type="curve"/>
      <point x="383.5301204819277" y="360.86746987951807" type="line"/>
      <point x="522.6867469879518" y="411.73493975903614"/>
      <point x="573.0" y="482.89156626506025"/>
      <point x="584.5783132530121" y="558.0722891566265" type="curve" smooth="yes"/>
      <point x="603.710843373494" y="677.8674698795181"/>
      <point x="523.9397590361447" y="742.843373493976"/>
      <point x="394.5903614457832" y="742.843373493976" type="curve" smooth="yes"/>
      <point x="228.73493975903614" y="742.843373493976"/>
      <point x="138.0722891566265" y="656.8915662650603"/>
      <point x="110.51807228915663" y="484.4096385542169" type="curve" smooth="yes"/>
    </contour>
  </outline>
</glyph>
<glyph name="ae" format="2">
  <advance width="877.2048192771084"/>
  <unicode hex="00E6"/>
  <anchor x="384.6265060240964" y="0.0" name="bottom"/>
  <anchor x="471.578313253012" y="484.0" name="top"/>
  <outline>
    <contour>
      <point x="208.57831325301203" y="-9.421686746987952" type="curve" smooth="yes"/>
      <point x="310.18072289156623" y="-9.421686746987952"/>
      <point x="384.91566265060237" y="46.75903614457832"/>
      <point x="422.0481927710843" y="140.96385542168676" type="curve"/>
      <point x="397.2289156626506" y="140.96385542168676" type="line"/>
      <point x="421.6024096385542" y="44.75903614457832"/>
      <point x="495.867469879518" y="-9.421686746987952"/>
      <point x="613.7349397590361" y="-9.421686746987952" type="curve" smooth="yes"/>
      <point x="684.5783132530121" y="-9.421686746987952"/>
      <point x="759.0240963855422" y="13.024096385542169"/>
      <point x="810.5783132530121" y="54.75903614457832" type="curve"/>
      <point x="779.3373493975904" y="124.01204819277109" type="line"/>
      <point x="730.7590361445783" y="85.25301204819277"/>
      <point x="679.0" y="70.09638554216868"/>
      <point x="625.3975903614457" y="70.09638554216868" type="curve" smooth="yes"/>
      <point x="513.3493975903614" y="70.09638554216868"/>
      <point x="463.3012048192771" y="134.3012048192771"/>
      <point x="479.4578313253012" y="248.71084337349396" type="curve" smooth="yes"/>
      <point x="483.5903614457831" y="276.50602409638554" type="line" smooth="yes"/>
      <point x="496.7469879518072" y="370.6265060240964"/>
      <point x="552.9759036144579" y="440.855421686747"/>
      <point x="646.3855421686748" y="440.855421686747" type="curve" smooth="yes"/>
      <point x="732.2168674698795" y="440.855421686747"/>
      <point x="769.9759036144578" y="384.7831325301205"/>
      <point x="755.8192771084338" y="282.6867469879518" type="curve"/>
      <point x="773.5301204819277" y="297.8192771084337" type="line"/>
      <point x="471.87951807228916" y="297.8192771084337" type="line"/>
      <point x="463.03614457831327" y="239.91566265060243" type="line"/>
      <point x="834.3132530120482" y="239.91566265060243" type="line"/>
      <point x="839.0240963855422" y="270.4698795180723" type="line" smooth="yes"/>
      <point x="860.4457831325301" y="413.1566265060241"/>
      <point x="789.4698795180723" y="512.9759036144578"/>
      <point x="651.0963855421686" y="512.9759036144578" type="curve" smooth="yes"/>
      <point x="564.6265060240964" y="512.9759036144578"/>
      <point x="490.5783132530121" y="472.7710843373494"/>
      <point x="441.89156626506025" y="395.855421686747" type="curve"/>
      <point x="472.6867469879518" y="395.855421686747" type="line"/>
      <point x="463.6024096385542" y="471.34939759036143"/>
      <point x="413.04819277108436" y="512.9759036144578"/>
      <point x="305.04819277108436" y="512.9759036144578" type="curve" smooth="yes"/>
      <point x="232.04819277108433" y="512.9759036144578"/>
      <point x="151.0963855421687" y="491.6867469879518"/>
      <point x="93.3855421686747" y="456.2409638554217" type="curve"/>
      <point x="122.33734939759036" y="385.27710843373495" type="line"/>
      <point x="183.91566265060243" y="420.3012048192771"/>
      <point x="234.36144578313252" y="434.1686746987952"/>
      <point x="297.67469879518075" y="434.1686746987952" type="curve" smooth="yes"/>
      <point x="365.855421686747" y="434.1686746987952"/>
      <point x="406.1686746987952" y="398.855421686747"/>
      <point x="393.0120481927711" y="318.04819277108436" type="curve" smooth="yes"/>
      <point x="375.43373493975906" y="204.73493975903614" type="line" smooth="yes"/>
      <point x="361.98795180722897" y="120.06024096385542"/>
      <point x="303.9156626506024" y="63.40963855421687"/>
      <point x="222.10843373493975" y="63.40963855421687" type="curve" smooth="yes"/>
      <point x="155.32530120481925" y="63.40963855421687"/>
      <point x="121.27710843373492" y="100.16867469879517"/>
      <point x="130.144578313253" y="153.95180722891567" type="curve" smooth="yes"/>
      <point x="140.59036144578312" y="220.9156626506024"/>
      <point x="212.0" y="239.6265060240964"/>
      <point x="337.16867469879514" y="239.6265060240964" type="curve" smooth="yes"/>
      <point x="391.43373493975906" y="239.6265060240964" type="line"/>
      <point x="399.98795180722897" y="296.5301204819277" type="line"/>
      <point x="348.69879518072287" y="296.5301204819277" type="line" smooth="yes"/>
      <point x="159.87951807228916" y="296.5301204819277"/>
      <point x="55.80722891566265" y="263.4216867469879"/>
      <point x="38.2289156626506" y="160.95180722891567" type="curve" smooth="yes"/>
      <point x="22.939759036144576" y="70.08433734939759"/>
      <point x="84.09638554216868" y="-9.421686746987952"/>
    </contour>
  </outline>
</glyph>
<glyph name="eth" format="2">
  <advance width="586.210843373494"/>
  <unicode hex="00F0"/>
  <outline>
    <contour>
      <point x="258.0602409638554" y="-9.421686746987952" type="curve" smooth="yes"/>
      <point x="412.01204819277103" y="-9.421686746987952"/>
      <point x="515.8072289156627" y="89.28915662650601"/>
      <point x="545.2289156626506" y="271.6867469879518" type="curve" smooth="yes"/>
      <point x="567.0963855421687" y="410.46987951807233"/>
      <point x="539.9397590361447" y="542.7590361445783"/>
      <point x="454.5180722891566" y="635.1807228915662" type="curve"/>
      <point x="452.3855421686747" y="619.7831325301205" type="line"/>
      <point x="557.5180722891566" y="662.6265060240963" type="line"/>
      <point x="536.6987951807229" y="709.9759036144578" type="line"/>
      <point x="410.0120481927711" y="659.0" type="line"/>
      <point x="432.69879518072287" y="656.0" type="line"/>
      <point x="383.87951807228916" y="696.9759036144578"/>
      <point x="318.7951807228916" y="728.1084337349398"/>
      <point x="236.3132530120482" y="743.843373493976" type="curve"/>
      <point x="208.51807228915663" y="677.433734939759" type="line"/>
      <point x="258.3855421686747" y="664.9879518072289"/>
      <point x="303.3855421686747" y="643.8313253012049"/>
      <point x="340.09638554216866" y="616.6746987951807" type="curve"/>
      <point x="341.2289156626506" y="630.0963855421687" type="line"/>
      <point x="161.33734939759034" y="558.0963855421687" type="line"/>
      <point x="181.44578313253012" y="510.03614457831327" type="line"/>
      <point x="393.421686746988" y="595.433734939759" type="line"/>
      <point x="368.3132530120482" y="595.722891566265" type="line"/>
      <point x="443.3614457831325" y="524.3855421686746"/>
      <point x="472.7831325301205" y="421.1566265060241"/>
      <point x="455.33734939759034" y="310.7710843373494" type="curve"/>
      <point x="480.73493975903614" y="310.7710843373494" type="line"/>
      <point x="468.7590361445783" y="410.26506024096386"/>
      <point x="400.6024096385542" y="456.6024096385542"/>
      <point x="303.71084337349396" y="456.6024096385542" type="curve" smooth="yes"/>
      <point x="167.57831325301206" y="456.6024096385542"/>
      <point x="63.048192771084345" y="371.0"/>
      <point x="42.75903614457832" y="238.42168674698794" type="curve" smooth="yes"/>
      <point x="18.469879518072293" y="88.55421686746988"/>
      <point x="106.13253012048193" y="-9.421686746987952"/>
    </contour>
    <contour>
      <point x="263.7469879518072" y="70.80722891566265" type="curve" smooth="yes"/>
      <point x="175.2289156626506" y="70.80722891566265"/>
      <point x="127.02409638554218" y="127.16867469879517"/>
      <point x="142.75903614457832" y="225.57831325301206" type="curve" smooth="yes"/>
      <point x="158.7831325301205" y="323.0120481927711"/>
      <point x="221.43373493975903" y="377.50602409638554"/>
      <point x="310.3975903614458" y="377.50602409638554" type="curve" smooth="yes"/>
      <point x="401.49397590361446" y="377.50602409638554"/>
      <point x="446.4096385542169" y="319.144578313253"/>
      <point x="430.9638554216868" y="222.73493975903617" type="curve" smooth="yes"/>
      <point x="416.22891566265065" y="129.16867469879517"/>
      <point x="352.0" y="70.80722891566265"/>
    </contour>
  </outline>
</glyph>
<glyph name="divide" format="2">
  <advance width="600.0"/>
  <unicode hex="00F7"/>
  <outline>
    <contour>
      <point x="52.57831325301205" y="249.93975903614458" type="line"/>
      <point x="545.7349397590361" y="249.93975903614458" type="line"/>
      <point x="557.421686746988" y="323.7710843373494" type="line"/>
      <point x="64.26506024096386" y="323.7710843373494" type="line"/>
    </contour>
    <contour>
      <point x="213.49397590361446" y="41.75903614457832" type="line"/>
      <point x="307.6626506024096" y="41.75903614457832" type="line"/>
      <point x="323.2168674698795" y="135.9277108433735" type="line"/>
      <point x="229.04819277108433" y="135.9277108433735" type="line"/>
    </contour>
    <contour>
      <point x="276.78313253012044" y="437.7831325301205" type="line"/>
      <point x="370.95180722891564" y="437.7831325301205" type="line"/>
      <point x="385.50602409638554" y="531.9518072289156" type="line"/>
      <point x="291.33734939759034" y="531.9518072289156" type="line"/>
    </contour>
  </outline>
</glyph>
